SplineFontDB: 3.2
FontName: HighwayShieldsA
FullName: HighwayShieldsA
FamilyName: HighwayShieldsA
Weight: Regular
Copyright: (c) 2023, Anirudh Vemula
UComments: "Created with FontForge (https://fontforge.org) and Inkscape (https://inkscape.org/)"
Version: 1.000
ItalicAngle: 0
UnderlinePosition: -100
UnderlineWidth: 50
Ascent: 800
Descent: 200
InvalidEm: 0
LayerCount: 2
Layer: 0 0 "Back" 1
Layer: 1 0 "Fore" 0
XUID: [1021 472 -1304494659 11358]
StyleMap: 0x0000
FSType: 0
OS2Version: 0
OS2_WeightWidthSlopeOnly: 0
OS2_UseTypoMetrics: 1
CreationTime: 1675149693
ModificationTime: 1675353041
PfmFamily: 17
TTFWeight: 400
TTFWidth: 5
LineGap: 90
VLineGap: 90
OS2TypoAscent: 0
OS2TypoAOffset: 1
OS2TypoDescent: 0
OS2TypoDOffset: 1
OS2TypoLinegap: 90
OS2WinAscent: 0
OS2WinAOffset: 1
OS2WinDescent: 0
OS2WinDOffset: 1
HheadAscent: 0
HheadAOffset: 1
HheadDescent: 0
HheadDOffset: 1
OS2Vendor: 'PfEd'
MarkAttachClasses: 1
DEI: 91125
LangName: 1033
Encoding: ISO8859-1
UnicodeInterp: none
NameList: AGL For New Fonts
DisplaySize: -48
AntiAlias: 1
FitToEm: 0
WinInfo: 0 38 14
BeginPrivate: 0
EndPrivate
TeXData: 1 0 0 346030 173015 115343 0 1048576 115343 783286 444596 497025 792723 393216 433062 380633 303038 157286 324010 404750 52429 2506097 1059062 262144
BeginChars: 256 96

StartChar: A
Encoding: 65 65 0
Width: 1000
HStem: 440.898 102.852<472.733 529.688>
VStem: 48.8252 3<129.166 562.654> 69.0742 862.5<140.572 541.648> 948.828 3<129.166 532.798>
LayerCount: 2
Fore
SplineSet
48.8251953125 401.25 m 0
 48.8251953125 129.412109375 241.413085938 -98.9755859375 500.326171875 -151.53125 c 1
 759.2109375 -98.9814453125 951.828125 129.3828125 951.828125 401.25 c 0
 951.828125 487.20703125 931.908203125 622.604492188 829.73828125 751.734375 c 1
 647.094726562 695.986328125 503.04296875 752.397460938 499.888671875 751.434570312 c 0
 414.165039062 725.271484375 297.81640625 713 170.9140625 751.734375 c 1
 143.68359375 717.318359375 48.8251953125 593.043945312 48.8251953125 401.25 c 0
500.326171875 -148.469726562 m 1
 244.404296875 -96.375 51.8251953125 129.943359375 51.8251953125 401.25 c 0
 51.8251953125 532.263671875 96.734375 652.788085938 171.997070312 748.267578125 c 1
 207.248046875 737.579101562 339.80859375 699.584960938 500.326171875 748.430664062 c 1
 535.541015625 737.71484375 668.079101562 699.576171875 828.655273438 748.267578125 c 1
 903.919921875 652.788085938 948.828125 532.263671875 948.828125 401.25 c 0
 948.828125 129.943359375 756.248046875 -96.375 500.326171875 -148.469726562 c 1
335.891601562 727.084960938 m 0
 240.107421875 727.084960938 174.219726562 751.500976562 171.455078125 751.500976562 c 0
 170.977539062 751.500976562 170.552734375 751.27734375 170.27734375 750.930664062 c 0
 94.228515625 654.811523438 48.8251953125 533.33203125 48.8251953125 401.25 c 0
 48.8251953125 128.388671875 242.5859375 -99.2138671875 500.026367188 -151.470703125 c 0
 500.133789062 -151.4921875 500.35546875 -151.525390625 500.625976562 -151.470703125 c 0
 758.06640625 -99.2138671875 951.828125 128.388671875 951.828125 401.25 c 0
 951.828125 533.33203125 906.42578125 654.811523438 830.375 750.930664062 c 0
 830.099609375 751.27734375 829.674804688 751.500976562 829.198242188 751.500976562 c 0
 826.43359375 751.500976562 760.544921875 727.084960938 664.76171875 727.084960938 c 0
 568.981445312 727.084960938 503.091796875 751.499023438 500.326171875 751.499023438 c 0
 497.551757812 751.499023438 431.6796875 727.084960938 335.891601562 727.084960938 c 0
500.326171875 -148.469726562 m 1
 244.404296875 -96.375 51.8251953125 129.943359375 51.8251953125 401.25 c 0
 51.8251953125 532.263671875 96.734375 652.788085938 171.997070312 748.267578125 c 1
 207.248046875 737.579101562 339.80859375 699.584960938 500.326171875 748.430664062 c 1
 535.541015625 737.71484375 668.079101562 699.576171875 828.655273438 748.267578125 c 1
 903.919921875 652.788085938 948.828125 532.263671875 948.828125 401.25 c 0
 948.828125 129.943359375 756.248046875 -96.375 500.326171875 -148.469726562 c 1
87.224609375 543.75 m 1
 913.42578125 543.75 l 1
 925.264648438 498.9453125 931.57421875 451.880859375 931.57421875 403.337890625 c 0
 931.57421875 140.572265625 746.706054688 -78.8720703125 500.325195312 -131.249023438 c 1
 253.944335938 -78.8720703125 69.07421875 140.572265625 69.07421875 403.337890625 c 0
 69.07421875 451.880859375 75.3837890625 498.9453125 87.224609375 543.75 c 1
472.733398438 440.8984375 m 1
 349.151367188 80.8984375 l 1
 409.868164062 80.8984375 l 1
 445.331054688 181.912109375 l 1
 557.629882812 181.912109375 l 1
 593.092773438 80.8984375 l 1
 653.270507812 80.8984375 l 1
 529.688476562 440.8984375 l 1
 472.733398438 440.8984375 l 1
501.749023438 340.95703125 m 1
 537.211914062 239.943359375 l 1
 465.211914062 239.943359375 l 1
 501.749023438 340.95703125 l 1
EndSplineSet
Validated: 37
EndChar

StartChar: B
Encoding: 66 66 1
Width: 1000
HStem: 136.51 96.7168<440.524 557.288> 293.406 87.582<441.062 554.374> 439.555 104.195<384.106 586.046> 724.094 2.94989<247.343 408.169 575.718 736.974>
VStem: 48.8252 3<129.166 562.654> 69.0742 315.032<249.614 439.456> 440.524 128.955<152.026 218.559 301.437 368.241> 628.046 303.528<172.51 427.609> 948.828 3<129.166 532.798>
LayerCount: 2
Fore
SplineSet
48.8251953125 401.25 m 0
 48.8251953125 129.412109375 241.413085938 -98.9755859375 500.326171875 -151.53125 c 1
 759.2109375 -98.9814453125 951.828125 129.3828125 951.828125 401.25 c 0
 951.828125 487.20703125 931.908203125 622.604492188 829.73828125 751.734375 c 1
 769.164363443 733.245479429 712.835249481 727.093239724 664.482956401 727.093239724 c 0
 568.281507601 727.093239724 503.656189801 751.446792319 499.999550594 751.446792319 c 0
 497.819672621 751.446792319 430.687599765 727.044388538 335.703516577 727.044388538 c 0
 284.219697464 727.044388538 228.659505523 734.108745886 170.9140625 751.734375 c 1
 143.68359375 717.318359375 48.8251953125 593.043945312 48.8251953125 401.25 c 0
500.326171875 -148.469726562 m 1
 244.404296875 -96.375 51.8251953125 129.943359375 51.8251953125 401.25 c 0
 51.8251953125 532.263671875 96.734375 652.788085938 171.997070312 748.267578125 c 1
 194.121661625 741.559163245 254.578454531 724.094496785 336.220980821 724.094496785 c 0
 384.658994327 724.094496785 440.554336446 730.24201854 500.326171875 748.430664062 c 1
 522.480517123 741.689132437 583.154560557 724.093873153 665.096293754 724.093873153 c 0
 713.402839117 724.093873153 769.100704143 730.20888552 828.655273438 748.267578125 c 1
 903.919921875 652.788085938 948.828125 532.263671875 948.828125 401.25 c 0
 948.828125 129.943359375 756.248046875 -96.375 500.326171875 -148.469726562 c 1
335.891601562 727.084960938 m 0
 240.107421875 727.084960938 174.219726562 751.500976562 171.455078125 751.500976562 c 0
 170.977539062 751.500976562 170.552734375 751.27734375 170.27734375 750.930664062 c 0
 94.228515625 654.811523438 48.8251953125 533.33203125 48.8251953125 401.25 c 0
 48.8251953125 128.388671875 242.5859375 -99.2138671875 500.026367188 -151.470703125 c 0
 500.133789062 -151.4921875 500.35546875 -151.525390625 500.625976562 -151.470703125 c 0
 758.06640625 -99.2138671875 951.828125 128.388671875 951.828125 401.25 c 0
 951.828125 533.33203125 906.42578125 654.811523438 830.375 750.930664062 c 0
 830.099609375 751.27734375 829.674804688 751.500976562 829.198242188 751.500976562 c 0
 826.43359375 751.500976562 760.544921875 727.084960938 664.76171875 727.084960938 c 0
 568.981445312 727.084960938 503.091796875 751.499023438 500.326171875 751.499023438 c 0
 497.551757812 751.499023438 431.6796875 727.084960938 335.891601562 727.084960938 c 0
500.326171875 -148.469726562 m 1
 244.404296875 -96.375 51.8251953125 129.943359375 51.8251953125 401.25 c 0
 51.8251953125 532.263671875 96.734375 652.788085938 171.997070312 748.267578125 c 1
 194.121661625 741.559163245 254.578454531 724.094496785 336.220980821 724.094496785 c 0
 384.658994327 724.094496785 440.554336446 730.24201854 500.326171875 748.430664062 c 1
 522.480517123 741.689132437 583.154560557 724.093873153 665.096293754 724.093873153 c 0
 713.402839117 724.093873153 769.100704143 730.20888552 828.655273438 748.267578125 c 1
 903.919921875 652.788085938 948.828125 532.263671875 948.828125 401.25 c 0
 948.828125 129.943359375 756.248046875 -96.375 500.326171875 -148.469726562 c 1
87.224609375 543.75 m 1
 913.42578125 543.75 l 1
 925.264648438 498.9453125 931.57421875 451.880859375 931.57421875 403.337890625 c 0
 931.57421875 140.572265625 746.706054688 -78.8720703125 500.325195312 -131.249023438 c 1
 253.944335938 -78.8720703125 69.07421875 140.572265625 69.07421875 403.337890625 c 0
 69.07421875 451.880859375 75.3837890625 498.9453125 87.224609375 543.75 c 1
384.106445312 439.5546875 m 1
 384.106445312 79.5546875 l 1
 525.958007812 79.5546875 l 2
 559.271484375 79.5546875 584.614257812 90.2119140625 601.987304688 111.525390625 c 0
 619.360351562 132.838867188 628.045898438 158.002929688 628.045898438 187.017578125 c 0
 628.045898438 223.196289062 613.717773438 249.345703125 585.061523438 265.46484375 c 1
 607.987304688 279.434570312 619.62890625 304.510742188 619.987304688 340.689453125 c 0
 619.987304688 371.853515625 610.494140625 396.12109375 591.508789062 413.494140625 c 0
 572.5234375 430.8671875 548.883789062 439.5546875 520.584960938 439.5546875 c 2
 384.106445312 439.5546875 l 1
441.061523438 380.98828125 m 1
 524.344726562 380.98828125 l 2
 537.598632812 380.98828125 547.71875 376.8671875 554.704101562 368.62890625 c 0
 561.689453125 360.390625 565.180664062 349.64453125 565.180664062 336.390625 c 0
 564.822265625 326.002929688 560.8828125 316.2421875 553.360351562 307.107421875 c 0
 545.837890625 297.97265625 535.986328125 293.40625 523.807617188 293.40625 c 2
 441.061523438 293.40625 l 1
 441.061523438 380.98828125 l 1
440.524414062 233.2265625 m 1
 528.106445312 233.2265625 l 2
 540.28515625 232.868164062 550.13671875 228.122070312 557.659179688 218.98828125 c 0
 565.181640625 209.853515625 569.12109375 198.66015625 569.479492188 185.40625 c 0
 569.479492188 172.869140625 565.540039062 161.584960938 557.659179688 151.5546875 c 0
 549.778320312 141.524414062 539.211914062 136.509765625 525.958007812 136.509765625 c 2
 440.524414062 136.509765625 l 1
 440.524414062 233.2265625 l 1
EndSplineSet
Validated: 5
EndChar

StartChar: C
Encoding: 67 67 2
Width: 1000
HStem: 133.932 249.711<464.927 556.858> 438.787 104.963<440.721 581.447> 724.094 2.94989<247.343 408.169 575.718 736.974>
VStem: 48.8252 3<129.166 562.654> 69.0742 313.882<250.243 427.609> 948.828 3<129.166 532.798>
LayerCount: 2
Fore
SplineSet
48.8251953125 401.25 m 0
 48.8251953125 129.412109375 241.413085938 -98.9755859375 500.326171875 -151.53125 c 1
 759.2109375 -98.9814453125 951.828125 129.3828125 951.828125 401.25 c 0
 951.828125 487.20703125 931.908203125 622.604492188 829.73828125 751.734375 c 1
 769.164363443 733.245479429 712.835249481 727.093239724 664.482956401 727.093239724 c 0
 568.281507601 727.093239724 503.656189801 751.446792319 499.999550594 751.446792319 c 0
 497.819672621 751.446792319 430.687599765 727.044388538 335.703516577 727.044388538 c 0
 284.219697464 727.044388538 228.659505523 734.108745886 170.9140625 751.734375 c 1
 143.68359375 717.318359375 48.8251953125 593.043945312 48.8251953125 401.25 c 0
500.326171875 -148.469726562 m 1
 244.404296875 -96.375 51.8251953125 129.943359375 51.8251953125 401.25 c 0
 51.8251953125 532.263671875 96.734375 652.788085938 171.997070312 748.267578125 c 1
 194.121661625 741.559163245 254.578454531 724.094496785 336.220980821 724.094496785 c 0
 384.658994327 724.094496785 440.554336446 730.24201854 500.326171875 748.430664062 c 1
 522.480517123 741.689132437 583.154560557 724.093873153 665.096293754 724.093873153 c 0
 713.402839117 724.093873153 769.100704143 730.20888552 828.655273438 748.267578125 c 1
 903.919921875 652.788085938 948.828125 532.263671875 948.828125 401.25 c 0
 948.828125 129.943359375 756.248046875 -96.375 500.326171875 -148.469726562 c 1
335.891601562 727.084960938 m 0
 240.107421875 727.084960938 174.219726562 751.500976562 171.455078125 751.500976562 c 0
 170.977539062 751.500976562 170.552734375 751.27734375 170.27734375 750.930664062 c 0
 94.228515625 654.811523438 48.8251953125 533.33203125 48.8251953125 401.25 c 0
 48.8251953125 128.388671875 242.5859375 -99.2138671875 500.026367188 -151.470703125 c 0
 500.133789062 -151.4921875 500.35546875 -151.525390625 500.625976562 -151.470703125 c 0
 758.06640625 -99.2138671875 951.828125 128.388671875 951.828125 401.25 c 0
 951.828125 533.33203125 906.42578125 654.811523438 830.375 750.930664062 c 0
 830.099609375 751.27734375 829.674804688 751.500976562 829.198242188 751.500976562 c 0
 826.43359375 751.500976562 760.544921875 727.084960938 664.76171875 727.084960938 c 0
 568.981445312 727.084960938 503.091796875 751.499023438 500.326171875 751.499023438 c 0
 497.551757812 751.499023438 431.6796875 727.084960938 335.891601562 727.084960938 c 0
500.326171875 -148.469726562 m 1
 244.404296875 -96.375 51.8251953125 129.943359375 51.8251953125 401.25 c 0
 51.8251953125 532.263671875 96.734375 652.788085938 171.997070312 748.267578125 c 1
 194.121661625 741.559163245 254.578454531 724.094496785 336.220980821 724.094496785 c 0
 384.658994327 724.094496785 440.554336446 730.24201854 500.326171875 748.430664062 c 1
 522.480517123 741.689132437 583.154560557 724.093873153 665.096293754 724.093873153 c 0
 713.402839117 724.093873153 769.100704143 730.20888552 828.655273438 748.267578125 c 1
 903.919921875 652.788085938 948.828125 532.263671875 948.828125 401.25 c 0
 948.828125 129.943359375 756.248046875 -96.375 500.326171875 -148.469726562 c 1
87.224609375 543.75 m 1
 913.42578125 543.75 l 1
 925.264648438 498.9453125 931.57421875 451.880859375 931.57421875 403.337890625 c 0
 931.57421875 140.572265625 746.706054688 -78.8720703125 500.325195312 -131.249023438 c 1
 253.944335938 -78.8720703125 69.07421875 140.572265625 69.07421875 403.337890625 c 0
 69.07421875 451.880859375 75.3837890625 498.9453125 87.224609375 543.75 c 1
510.411132812 438.787109375 m 0
 469.486328125 438.787109375 438.01171875 423.008789062 415.989257812 391.447265625 c 0
 393.965820312 359.88671875 382.956054688 315.665039062 382.956054688 258.787109375 c 0
 382.956054688 201.908203125 393.965820312 157.689453125 415.989257812 126.12890625 c 0
 438.01171875 94.5673828125 469.486328125 78.787109375 510.411132812 78.787109375 c 0
 560.700195312 79.8271484375 596.422851562 101.8515625 617.579101562 144.857421875 c 1
 566.077148438 170.349609375 l 1
 554.631835938 146.418945312 536.075195312 134.278320312 510.411132812 133.931640625 c 0
 486.133789062 133.931640625 468.446289062 145.463867188 457.348632812 168.52734375 c 0
 446.25 191.590820312 440.700195312 221.677734375 440.700195312 258.787109375 c 0
 440.700195312 295.896484375 446.25 325.985351562 457.348632812 349.048828125 c 0
 468.446289062 372.112304688 486.133789062 383.642578125 510.411132812 383.642578125 c 0
 536.075195312 383.295898438 554.631835938 371.157226562 566.077148438 347.2265625 c 1
 617.579101562 372.71875 l 1
 596.422851562 415.724609375 560.700195312 437.747070312 510.411132812 438.787109375 c 0
EndSplineSet
Validated: 5
EndChar

StartChar: D
Encoding: 68 68 3
Width: 1000
HStem: 439.555 104.195<388.272 570.52> 724.094 2.94989<247.343 408.169 575.718 736.974>
VStem: 48.8252 3<129.166 562.654> 69.0742 319.198<249.614 439.456> 445.228 132.18<171.945 349.103> 633.825 297.749<250.233 427.609> 948.828 3<129.166 532.798>
LayerCount: 2
Fore
SplineSet
48.8251953125 401.25 m 0
 48.8251953125 129.412109375 241.413085938 -98.9755859375 500.326171875 -151.53125 c 1
 759.2109375 -98.9814453125 951.828125 129.3828125 951.828125 401.25 c 0
 951.828125 487.20703125 931.908203125 622.604492188 829.73828125 751.734375 c 1
 769.164363443 733.245479429 712.835249481 727.093239724 664.482956401 727.093239724 c 0
 568.281507601 727.093239724 503.656189801 751.446792319 499.999550594 751.446792319 c 0
 497.819672621 751.446792319 430.687599765 727.044388538 335.703516577 727.044388538 c 0
 284.219697464 727.044388538 228.659505523 734.108745886 170.9140625 751.734375 c 1
 143.68359375 717.318359375 48.8251953125 593.043945312 48.8251953125 401.25 c 0
500.326171875 -148.469726562 m 1
 244.404296875 -96.375 51.8251953125 129.943359375 51.8251953125 401.25 c 0
 51.8251953125 532.263671875 96.734375 652.788085938 171.997070312 748.267578125 c 1
 194.121661625 741.559163245 254.578454531 724.094496785 336.220980821 724.094496785 c 0
 384.658994327 724.094496785 440.554336446 730.24201854 500.326171875 748.430664062 c 1
 522.480517123 741.689132437 583.154560557 724.093873153 665.096293754 724.093873153 c 0
 713.402839117 724.093873153 769.100704143 730.20888552 828.655273438 748.267578125 c 1
 903.919921875 652.788085938 948.828125 532.263671875 948.828125 401.25 c 0
 948.828125 129.943359375 756.248046875 -96.375 500.326171875 -148.469726562 c 1
335.891601562 727.084960938 m 0
 240.107421875 727.084960938 174.219726562 751.500976562 171.455078125 751.500976562 c 0
 170.977539062 751.500976562 170.552734375 751.27734375 170.27734375 750.930664062 c 0
 94.228515625 654.811523438 48.8251953125 533.33203125 48.8251953125 401.25 c 0
 48.8251953125 128.388671875 242.5859375 -99.2138671875 500.026367188 -151.470703125 c 0
 500.133789062 -151.4921875 500.35546875 -151.525390625 500.625976562 -151.470703125 c 0
 758.06640625 -99.2138671875 951.828125 128.388671875 951.828125 401.25 c 0
 951.828125 533.33203125 906.42578125 654.811523438 830.375 750.930664062 c 0
 830.099609375 751.27734375 829.674804688 751.500976562 829.198242188 751.500976562 c 0
 826.43359375 751.500976562 760.544921875 727.084960938 664.76171875 727.084960938 c 0
 568.981445312 727.084960938 503.091796875 751.499023438 500.326171875 751.499023438 c 0
 497.551757812 751.499023438 431.6796875 727.084960938 335.891601562 727.084960938 c 0
500.326171875 -148.469726562 m 1
 244.404296875 -96.375 51.8251953125 129.943359375 51.8251953125 401.25 c 0
 51.8251953125 532.263671875 96.734375 652.788085938 171.997070312 748.267578125 c 1
 194.121661625 741.559163245 254.578454531 724.094496785 336.220980821 724.094496785 c 0
 384.658994327 724.094496785 440.554336446 730.24201854 500.326171875 748.430664062 c 1
 522.480517123 741.689132437 583.154560557 724.093873153 665.096293754 724.093873153 c 0
 713.402839117 724.093873153 769.100704143 730.20888552 828.655273438 748.267578125 c 1
 903.919921875 652.788085938 948.828125 532.263671875 948.828125 401.25 c 0
 948.828125 129.943359375 756.248046875 -96.375 500.326171875 -148.469726562 c 1
87.224609375 543.75 m 1
 913.42578125 543.75 l 1
 925.264648438 498.9453125 931.57421875 451.880859375 931.57421875 403.337890625 c 0
 931.57421875 140.572265625 746.706054688 -78.8720703125 500.325195312 -131.249023438 c 1
 253.944335938 -78.8720703125 69.07421875 140.572265625 69.07421875 403.337890625 c 0
 69.07421875 451.880859375 75.3837890625 498.9453125 87.224609375 543.75 c 1
388.272460938 439.5546875 m 1
 388.272460938 79.5546875 l 1
 500.571289062 79.5546875 l 2
 537.825195312 79.5546875 569.2578125 93.8818359375 594.870117188 122.5390625 c 0
 620.482421875 151.1953125 633.466796875 196.868164062 633.825195312 259.5546875 c 0
 633.466796875 322.241210938 620.482421875 367.9140625 594.870117188 396.5703125 c 0
 569.2578125 425.2265625 537.825195312 439.5546875 500.571289062 439.5546875 c 2
 388.272460938 439.5546875 l 1
445.227539062 382.599609375 m 1
 500.571289062 382.599609375 l 2
 524.571289062 381.883789062 543.376953125 371.046875 556.989257812 350.091796875 c 0
 570.600585938 329.13671875 577.407226562 298.95703125 577.407226562 259.5546875 c 0
 577.048828125 222.659179688 570.15234375 193.107421875 556.719726562 170.8984375 c 0
 543.287109375 148.689453125 524.571289062 137.225585938 500.571289062 136.509765625 c 2
 445.227539062 136.509765625 l 1
 445.227539062 259.5546875 l 1
 445.227539062 382.599609375 l 1
EndSplineSet
Validated: 5
EndChar

StartChar: E
Encoding: 69 69 4
Width: 1000
HStem: 137.584 98.3281<452.159 556.935> 293.943 88.6562<452.159 556.935> 439.555 104.195<395.204 607.442> 724.094 2.94989<247.343 408.169 575.718 736.974>
VStem: 48.8252 3<129.166 562.654> 69.0742 326.13<249.614 439.456> 948.828 3<129.166 532.798>
LayerCount: 2
Fore
SplineSet
48.8251953125 401.25 m 0
 48.8251953125 129.412109375 241.413085938 -98.9755859375 500.326171875 -151.53125 c 1
 759.2109375 -98.9814453125 951.828125 129.3828125 951.828125 401.25 c 0
 951.828125 487.20703125 931.908203125 622.604492188 829.73828125 751.734375 c 1
 769.164363443 733.245479429 712.835249481 727.093239724 664.482956401 727.093239724 c 0
 568.281507601 727.093239724 503.656189801 751.446792319 499.999550594 751.446792319 c 0
 497.819672621 751.446792319 430.687599765 727.044388538 335.703516577 727.044388538 c 0
 284.219697464 727.044388538 228.659505523 734.108745886 170.9140625 751.734375 c 1
 143.68359375 717.318359375 48.8251953125 593.043945312 48.8251953125 401.25 c 0
500.326171875 -148.469726562 m 1
 244.404296875 -96.375 51.8251953125 129.943359375 51.8251953125 401.25 c 0
 51.8251953125 532.263671875 96.734375 652.788085938 171.997070312 748.267578125 c 1
 194.121661625 741.559163245 254.578454531 724.094496785 336.220980821 724.094496785 c 0
 384.658994327 724.094496785 440.554336446 730.24201854 500.326171875 748.430664062 c 1
 522.480517123 741.689132437 583.154560557 724.093873153 665.096293754 724.093873153 c 0
 713.402839117 724.093873153 769.100704143 730.20888552 828.655273438 748.267578125 c 1
 903.919921875 652.788085938 948.828125 532.263671875 948.828125 401.25 c 0
 948.828125 129.943359375 756.248046875 -96.375 500.326171875 -148.469726562 c 1
335.891601562 727.084960938 m 0
 240.107421875 727.084960938 174.219726562 751.500976562 171.455078125 751.500976562 c 0
 170.977539062 751.500976562 170.552734375 751.27734375 170.27734375 750.930664062 c 0
 94.228515625 654.811523438 48.8251953125 533.33203125 48.8251953125 401.25 c 0
 48.8251953125 128.388671875 242.5859375 -99.2138671875 500.026367188 -151.470703125 c 0
 500.133789062 -151.4921875 500.35546875 -151.525390625 500.625976562 -151.470703125 c 0
 758.06640625 -99.2138671875 951.828125 128.388671875 951.828125 401.25 c 0
 951.828125 533.33203125 906.42578125 654.811523438 830.375 750.930664062 c 0
 830.099609375 751.27734375 829.674804688 751.500976562 829.198242188 751.500976562 c 0
 826.43359375 751.500976562 760.544921875 727.084960938 664.76171875 727.084960938 c 0
 568.981445312 727.084960938 503.091796875 751.499023438 500.326171875 751.499023438 c 0
 497.551757812 751.499023438 431.6796875 727.084960938 335.891601562 727.084960938 c 0
500.326171875 -148.469726562 m 1
 244.404296875 -96.375 51.8251953125 129.943359375 51.8251953125 401.25 c 0
 51.8251953125 532.263671875 96.734375 652.788085938 171.997070312 748.267578125 c 1
 194.121661625 741.559163245 254.578454531 724.094496785 336.220980821 724.094496785 c 0
 384.658994327 724.094496785 440.554336446 730.24201854 500.326171875 748.430664062 c 1
 522.480517123 741.689132437 583.154560557 724.093873153 665.096293754 724.093873153 c 0
 713.402839117 724.093873153 769.100704143 730.20888552 828.655273438 748.267578125 c 1
 903.919921875 652.788085938 948.828125 532.263671875 948.828125 401.25 c 0
 948.828125 129.943359375 756.248046875 -96.375 500.326171875 -148.469726562 c 1
87.224609375 543.75 m 1
 913.42578125 543.75 l 1
 925.264648438 498.9453125 931.57421875 451.880859375 931.57421875 403.337890625 c 0
 931.57421875 140.572265625 746.706054688 -78.8720703125 500.325195312 -131.249023438 c 1
 253.944335938 -78.8720703125 69.07421875 140.572265625 69.07421875 403.337890625 c 0
 69.07421875 451.880859375 75.3837890625 498.9453125 87.224609375 543.75 c 1
395.204101562 439.5546875 m 1
 395.204101562 79.5546875 l 1
 618.725585938 79.5546875 l 1
 618.725585938 137.583984375 l 1
 452.159179688 137.583984375 l 1
 452.159179688 235.912109375 l 1
 556.934570312 235.912109375 l 1
 556.934570312 293.943359375 l 1
 452.159179688 293.943359375 l 1
 452.159179688 382.599609375 l 1
 607.442382812 382.599609375 l 1
 607.442382812 439.5546875 l 1
 395.204101562 439.5546875 l 1
EndSplineSet
Validated: 5
EndChar

StartChar: F
Encoding: 70 70 5
Width: 1000
HStem: 293.943 88.6562<458.159 562.935> 439.555 104.195<401.204 624.726> 724.094 2.94989<247.343 408.169 575.718 736.974>
VStem: 48.8252 3<129.166 562.654> 69.0742 332.13<249.614 439.456> 948.828 3<129.166 532.798>
LayerCount: 2
Fore
SplineSet
48.8251953125 401.25 m 0
 48.8251953125 129.412109375 241.413085938 -98.9755859375 500.326171875 -151.53125 c 1
 759.2109375 -98.9814453125 951.828125 129.3828125 951.828125 401.25 c 0
 951.828125 487.20703125 931.908203125 622.604492188 829.73828125 751.734375 c 1
 769.164363443 733.245479429 712.835249481 727.093239724 664.482956401 727.093239724 c 0
 568.281507601 727.093239724 503.656189801 751.446792319 499.999550594 751.446792319 c 0
 497.819672621 751.446792319 430.687599765 727.044388538 335.703516577 727.044388538 c 0
 284.219697464 727.044388538 228.659505523 734.108745886 170.9140625 751.734375 c 1
 143.68359375 717.318359375 48.8251953125 593.043945312 48.8251953125 401.25 c 0
500.326171875 -148.469726562 m 1
 244.404296875 -96.375 51.8251953125 129.943359375 51.8251953125 401.25 c 0
 51.8251953125 532.263671875 96.734375 652.788085938 171.997070312 748.267578125 c 1
 194.121661625 741.559163245 254.578454531 724.094496785 336.220980821 724.094496785 c 0
 384.658994327 724.094496785 440.554336446 730.24201854 500.326171875 748.430664062 c 1
 522.480517123 741.689132437 583.154560557 724.093873153 665.096293754 724.093873153 c 0
 713.402839117 724.093873153 769.100704143 730.20888552 828.655273438 748.267578125 c 1
 903.919921875 652.788085938 948.828125 532.263671875 948.828125 401.25 c 0
 948.828125 129.943359375 756.248046875 -96.375 500.326171875 -148.469726562 c 1
335.891601562 727.084960938 m 0
 240.107421875 727.084960938 174.219726562 751.500976562 171.455078125 751.500976562 c 0
 170.977539062 751.500976562 170.552734375 751.27734375 170.27734375 750.930664062 c 0
 94.228515625 654.811523438 48.8251953125 533.33203125 48.8251953125 401.25 c 0
 48.8251953125 128.388671875 242.5859375 -99.2138671875 500.026367188 -151.470703125 c 0
 500.133789062 -151.4921875 500.35546875 -151.525390625 500.625976562 -151.470703125 c 0
 758.06640625 -99.2138671875 951.828125 128.388671875 951.828125 401.25 c 0
 951.828125 533.33203125 906.42578125 654.811523438 830.375 750.930664062 c 0
 830.099609375 751.27734375 829.674804688 751.500976562 829.198242188 751.500976562 c 0
 826.43359375 751.500976562 760.544921875 727.084960938 664.76171875 727.084960938 c 0
 568.981445312 727.084960938 503.091796875 751.499023438 500.326171875 751.499023438 c 0
 497.551757812 751.499023438 431.6796875 727.084960938 335.891601562 727.084960938 c 0
500.326171875 -148.469726562 m 1
 244.404296875 -96.375 51.8251953125 129.943359375 51.8251953125 401.25 c 0
 51.8251953125 532.263671875 96.734375 652.788085938 171.997070312 748.267578125 c 1
 194.121661625 741.559163245 254.578454531 724.094496785 336.220980821 724.094496785 c 0
 384.658994327 724.094496785 440.554336446 730.24201854 500.326171875 748.430664062 c 1
 522.480517123 741.689132437 583.154560557 724.093873153 665.096293754 724.093873153 c 0
 713.402839117 724.093873153 769.100704143 730.20888552 828.655273438 748.267578125 c 1
 903.919921875 652.788085938 948.828125 532.263671875 948.828125 401.25 c 0
 948.828125 129.943359375 756.248046875 -96.375 500.326171875 -148.469726562 c 1
87.224609375 543.75 m 1
 913.42578125 543.75 l 1
 925.264648438 498.9453125 931.57421875 451.880859375 931.57421875 403.337890625 c 0
 931.57421875 140.572265625 746.706054688 -78.8720703125 500.325195312 -131.249023438 c 1
 253.944335938 -78.8720703125 69.07421875 140.572265625 69.07421875 403.337890625 c 0
 69.07421875 451.880859375 75.3837890625 498.9453125 87.224609375 543.75 c 1
401.204101562 439.5546875 m 1
 401.204101562 79.5546875 l 1
 458.159179688 79.5546875 l 1
 458.159179688 235.912109375 l 1
 562.934570312 235.912109375 l 1
 562.934570312 293.943359375 l 1
 458.159179688 293.943359375 l 1
 458.159179688 382.599609375 l 1
 624.725585938 382.599609375 l 1
 624.725585938 439.5546875 l 1
 401.204101562 439.5546875 l 1
EndSplineSet
Validated: 5
EndChar

StartChar: G
Encoding: 71 71 6
Width: 1000
HStem: 135.212 64.416<508.058 531.497> 439.629 104.122<436.389 576.913> 724.094 2.94989<247.343 408.169 575.718 736.974>
VStem: 48.8252 3<129.166 562.654> 69.0752 309.631<249.501 427.61> 436.369 71.6885<199.957 257.81> 948.828 3<129.166 532.798>
LayerCount: 2
Fore
SplineSet
48.8251953125 401.25 m 0
 48.8251953125 129.412109375 241.413085938 -98.9755859375 500.326171875 -151.53125 c 1
 759.2109375 -98.9814453125 951.828125 129.3828125 951.828125 401.25 c 0
 951.828125 487.20703125 931.908203125 622.604492188 829.73828125 751.734375 c 1
 769.164363443 733.245479429 712.835249481 727.093239724 664.482956401 727.093239724 c 0
 568.281507601 727.093239724 503.656189801 751.446792319 499.999550594 751.446792319 c 0
 497.819672621 751.446792319 430.687599765 727.044388538 335.703516577 727.044388538 c 0
 284.219697464 727.044388538 228.659505523 734.108745886 170.9140625 751.734375 c 1
 143.68359375 717.318359375 48.8251953125 593.043945312 48.8251953125 401.25 c 0
500.326171875 -148.469726562 m 1
 244.404296875 -96.375 51.8251953125 129.943359375 51.8251953125 401.25 c 0
 51.8251953125 532.263671875 96.734375 652.788085938 171.997070312 748.267578125 c 1
 194.121661625 741.559163245 254.578454531 724.094496785 336.220980821 724.094496785 c 0
 384.658994327 724.094496785 440.554336446 730.24201854 500.326171875 748.430664062 c 1
 522.480517123 741.689132437 583.154560557 724.093873153 665.096293754 724.093873153 c 0
 713.402839117 724.093873153 769.100704143 730.20888552 828.655273438 748.267578125 c 1
 903.919921875 652.788085938 948.828125 532.263671875 948.828125 401.25 c 0
 948.828125 129.943359375 756.248046875 -96.375 500.326171875 -148.469726562 c 1
335.891601562 727.084960938 m 0
 240.107421875 727.084960938 174.219726562 751.500976562 171.455078125 751.500976562 c 0
 170.977539062 751.500976562 170.552734375 751.27734375 170.27734375 750.930664062 c 0
 94.228515625 654.811523438 48.8251953125 533.33203125 48.8251953125 401.25 c 0
 48.8251953125 128.388671875 242.5859375 -99.2138671875 500.026367188 -151.470703125 c 0
 500.133789062 -151.4921875 500.35546875 -151.525390625 500.625976562 -151.470703125 c 0
 758.06640625 -99.2138671875 951.828125 128.388671875 951.828125 401.25 c 0
 951.828125 533.33203125 906.42578125 654.811523438 830.375 750.930664062 c 0
 830.099609375 751.27734375 829.674804688 751.500976562 829.198242188 751.500976562 c 0
 826.43359375 751.500976562 760.544921875 727.084960938 664.76171875 727.084960938 c 0
 568.981445312 727.084960938 503.091796875 751.499023438 500.326171875 751.499023438 c 0
 497.551757812 751.499023438 431.6796875 727.084960938 335.891601562 727.084960938 c 0
500.326171875 -148.469726562 m 1
 244.404296875 -96.375 51.8251953125 129.943359375 51.8251953125 401.25 c 0
 51.8251953125 532.263671875 96.734375 652.788085938 171.997070312 748.267578125 c 1
 194.121661625 741.559163245 254.578454531 724.094496785 336.220980821 724.094496785 c 0
 384.658994327 724.094496785 440.554336446 730.24201854 500.326171875 748.430664062 c 1
 522.480517123 741.689132437 583.154560557 724.093873153 665.096293754 724.093873153 c 0
 713.402839117 724.093873153 769.100704143 730.20888552 828.655273438 748.267578125 c 1
 903.919921875 652.788085938 948.828125 532.263671875 948.828125 401.25 c 0
 948.828125 129.943359375 756.248046875 -96.375 500.326171875 -148.469726562 c 1
69.0751953125 403.338867188 m 0
 69.0751953125 451.880859375 75.3837890625 498.9453125 87.224609375 543.750976562 c 1
 913.42578125 543.750976562 l 1
 925.264648438 498.9453125 931.57421875 451.880859375 931.57421875 403.338867188 c 0
 931.57421875 140.573242188 746.706054688 -78.8720703125 500.32421875 -131.249023438 c 1
 253.943359375 -78.8720703125 69.0751953125 140.573242188 69.0751953125 403.338867188 c 0
505.979492188 135.211914062 m 0
 481.736328125 135.211914062 464.07421875 146.727539062 452.9921875 169.7578125 c 0
 441.91015625 192.788085938 436.369140625 222.83203125 436.369140625 259.887695312 c 0
 436.369140625 296.944335938 441.91015625 326.987304688 452.9921875 350.017578125 c 0
 464.07421875 373.047851562 481.736328125 384.563476562 505.979492188 384.563476562 c 0
 531.607421875 384.216796875 550.135742188 372.095703125 561.563476562 348.200195312 c 1
 612.9921875 373.654296875 l 1
 591.8671875 416.598632812 556.196289062 438.58984375 505.979492188 439.62890625 c 0
 465.11328125 439.62890625 433.684570312 423.87109375 411.693359375 392.35546875 c 0
 389.702148438 360.83984375 378.706054688 316.684570312 378.706054688 259.887695312 c 0
 378.706054688 203.091796875 389.702148438 158.935546875 411.693359375 127.419921875 c 0
 433.684570312 95.9052734375 465.6328125 79.974609375 507.538085938 79.6279296875 c 0
 543.208984375 79.6279296875 571.520507812 93.39453125 592.47265625 120.926757812 c 0
 613.424804688 148.458984375 624.07421875 189.065429688 624.420898438 242.745117188 c 2
 624.420898438 257.809570312 l 1
 508.057617188 257.809570312 l 1
 508.057617188 199.627929688 l 1
 561.563476562 199.627929688 l 1
 555.676757812 157.376953125 537.1484375 135.905273438 505.979492188 135.211914062 c 0
EndSplineSet
Validated: 5
EndChar

StartChar: H
Encoding: 72 72 7
Width: 1000
HStem: 439.227 104.523<380.067 437.022 568.126 625.083> 724.094 2.94989<247.343 408.169 575.718 736.974>
VStem: 48.8252 3<129.166 562.654> 69.0742 310.993<249.614 437.216> 437.022 131.104<79.2266 235.584 293.615 439.227> 625.083 306.491<249.614 437.216> 948.828 3<129.166 532.798>
LayerCount: 2
Fore
SplineSet
48.8251953125 401.25 m 0
 48.8251953125 129.412109375 241.413085938 -98.9755859375 500.326171875 -151.53125 c 1
 759.2109375 -98.9814453125 951.828125 129.3828125 951.828125 401.25 c 0
 951.828125 487.20703125 931.908203125 622.604492188 829.73828125 751.734375 c 1
 769.164363443 733.245479429 712.835249481 727.093239724 664.482956401 727.093239724 c 0
 568.281507601 727.093239724 503.656189801 751.446792319 499.999550594 751.446792319 c 0
 497.819672621 751.446792319 430.687599765 727.044388538 335.703516577 727.044388538 c 0
 284.219697464 727.044388538 228.659505523 734.108745886 170.9140625 751.734375 c 1
 143.68359375 717.318359375 48.8251953125 593.043945312 48.8251953125 401.25 c 0
500.326171875 -148.469726562 m 1
 244.404296875 -96.375 51.8251953125 129.943359375 51.8251953125 401.25 c 0
 51.8251953125 532.263671875 96.734375 652.788085938 171.997070312 748.267578125 c 1
 194.121661625 741.559163245 254.578454531 724.094496785 336.220980821 724.094496785 c 0
 384.658994327 724.094496785 440.554336446 730.24201854 500.326171875 748.430664062 c 1
 522.480517123 741.689132437 583.154560557 724.093873153 665.096293754 724.093873153 c 0
 713.402839117 724.093873153 769.100704143 730.20888552 828.655273438 748.267578125 c 1
 903.919921875 652.788085938 948.828125 532.263671875 948.828125 401.25 c 0
 948.828125 129.943359375 756.248046875 -96.375 500.326171875 -148.469726562 c 1
335.891601562 727.084960938 m 0
 240.107421875 727.084960938 174.219726562 751.500976562 171.455078125 751.500976562 c 0
 170.977539062 751.500976562 170.552734375 751.27734375 170.27734375 750.930664062 c 0
 94.228515625 654.811523438 48.8251953125 533.33203125 48.8251953125 401.25 c 0
 48.8251953125 128.388671875 242.5859375 -99.2138671875 500.026367188 -151.470703125 c 0
 500.133789062 -151.4921875 500.35546875 -151.525390625 500.625976562 -151.470703125 c 0
 758.06640625 -99.2138671875 951.828125 128.388671875 951.828125 401.25 c 0
 951.828125 533.33203125 906.42578125 654.811523438 830.375 750.930664062 c 0
 830.099609375 751.27734375 829.674804688 751.500976562 829.198242188 751.500976562 c 0
 826.43359375 751.500976562 760.544921875 727.084960938 664.76171875 727.084960938 c 0
 568.981445312 727.084960938 503.091796875 751.499023438 500.326171875 751.499023438 c 0
 497.551757812 751.499023438 431.6796875 727.084960938 335.891601562 727.084960938 c 0
500.326171875 -148.469726562 m 1
 244.404296875 -96.375 51.8251953125 129.943359375 51.8251953125 401.25 c 0
 51.8251953125 532.263671875 96.734375 652.788085938 171.997070312 748.267578125 c 1
 194.121661625 741.559163245 254.578454531 724.094496785 336.220980821 724.094496785 c 0
 384.658994327 724.094496785 440.554336446 730.24201854 500.326171875 748.430664062 c 1
 522.480517123 741.689132437 583.154560557 724.093873153 665.096293754 724.093873153 c 0
 713.402839117 724.093873153 769.100704143 730.20888552 828.655273438 748.267578125 c 1
 903.919921875 652.788085938 948.828125 532.263671875 948.828125 401.25 c 0
 948.828125 129.943359375 756.248046875 -96.375 500.326171875 -148.469726562 c 1
87.224609375 543.75 m 1
 913.42578125 543.75 l 1
 925.264648438 498.9453125 931.57421875 451.880859375 931.57421875 403.337890625 c 0
 931.57421875 140.572265625 746.706054688 -78.8720703125 500.325195312 -131.249023438 c 1
 253.944335938 -78.8720703125 69.07421875 140.572265625 69.07421875 403.337890625 c 0
 69.07421875 451.880859375 75.3837890625 498.9453125 87.224609375 543.75 c 1
380.067382812 439.2265625 m 1
 380.067382812 79.2265625 l 1
 437.022460938 79.2265625 l 1
 437.022460938 235.583984375 l 1
 568.125976562 235.583984375 l 1
 568.125976562 79.2265625 l 1
 625.083007812 79.2265625 l 1
 625.083007812 439.2265625 l 1
 568.125976562 439.2265625 l 1
 568.125976562 293.615234375 l 1
 437.022460938 293.615234375 l 1
 437.022460938 439.2265625 l 1
 380.067382812 439.2265625 l 1
EndSplineSet
Validated: 5
EndChar

StartChar: I
Encoding: 73 73 8
Width: 1000
HStem: 439.227 104.523<471.968 529.997> 724.094 2.94989<247.343 408.169 575.718 736.974>
VStem: 48.8252 3<129.166 562.654> 69.0742 402.894<249.614 437.216> 529.997 401.577<249.614 437.216> 948.828 3<129.166 532.798>
LayerCount: 2
Fore
SplineSet
48.8251953125 401.25 m 0
 48.8251953125 129.412109375 241.413085938 -98.9755859375 500.326171875 -151.53125 c 1
 759.2109375 -98.9814453125 951.828125 129.3828125 951.828125 401.25 c 0
 951.828125 487.20703125 931.908203125 622.604492188 829.73828125 751.734375 c 1
 769.164363443 733.245479429 712.835249481 727.093239724 664.482956401 727.093239724 c 0
 568.281507601 727.093239724 503.656189801 751.446792319 499.999550594 751.446792319 c 0
 497.819672621 751.446792319 430.687599765 727.044388538 335.703516577 727.044388538 c 0
 284.219697464 727.044388538 228.659505523 734.108745886 170.9140625 751.734375 c 1
 143.68359375 717.318359375 48.8251953125 593.043945312 48.8251953125 401.25 c 0
500.326171875 -148.469726562 m 1
 244.404296875 -96.375 51.8251953125 129.943359375 51.8251953125 401.25 c 0
 51.8251953125 532.263671875 96.734375 652.788085938 171.997070312 748.267578125 c 1
 194.121661625 741.559163245 254.578454531 724.094496785 336.220980821 724.094496785 c 0
 384.658994327 724.094496785 440.554336446 730.24201854 500.326171875 748.430664062 c 1
 522.480517123 741.689132437 583.154560557 724.093873153 665.096293754 724.093873153 c 0
 713.402839117 724.093873153 769.100704143 730.20888552 828.655273438 748.267578125 c 1
 903.919921875 652.788085938 948.828125 532.263671875 948.828125 401.25 c 0
 948.828125 129.943359375 756.248046875 -96.375 500.326171875 -148.469726562 c 1
335.891601562 727.084960938 m 0
 240.107421875 727.084960938 174.219726562 751.500976562 171.455078125 751.500976562 c 0
 170.977539062 751.500976562 170.552734375 751.27734375 170.27734375 750.930664062 c 0
 94.228515625 654.811523438 48.8251953125 533.33203125 48.8251953125 401.25 c 0
 48.8251953125 128.388671875 242.5859375 -99.2138671875 500.026367188 -151.470703125 c 0
 500.133789062 -151.4921875 500.35546875 -151.525390625 500.625976562 -151.470703125 c 0
 758.06640625 -99.2138671875 951.828125 128.388671875 951.828125 401.25 c 0
 951.828125 533.33203125 906.42578125 654.811523438 830.375 750.930664062 c 0
 830.099609375 751.27734375 829.674804688 751.500976562 829.198242188 751.500976562 c 0
 826.43359375 751.500976562 760.544921875 727.084960938 664.76171875 727.084960938 c 0
 568.981445312 727.084960938 503.091796875 751.499023438 500.326171875 751.499023438 c 0
 497.551757812 751.499023438 431.6796875 727.084960938 335.891601562 727.084960938 c 0
500.326171875 -148.469726562 m 1
 244.404296875 -96.375 51.8251953125 129.943359375 51.8251953125 401.25 c 0
 51.8251953125 532.263671875 96.734375 652.788085938 171.997070312 748.267578125 c 1
 194.121661625 741.559163245 254.578454531 724.094496785 336.220980821 724.094496785 c 0
 384.658994327 724.094496785 440.554336446 730.24201854 500.326171875 748.430664062 c 1
 522.480517123 741.689132437 583.154560557 724.093873153 665.096293754 724.093873153 c 0
 713.402839117 724.093873153 769.100704143 730.20888552 828.655273438 748.267578125 c 1
 903.919921875 652.788085938 948.828125 532.263671875 948.828125 401.25 c 0
 948.828125 129.943359375 756.248046875 -96.375 500.326171875 -148.469726562 c 1
87.224609375 543.75 m 1
 913.42578125 543.75 l 1
 925.264648438 498.9453125 931.57421875 451.880859375 931.57421875 403.337890625 c 0
 931.57421875 140.572265625 746.706054688 -78.8720703125 500.325195312 -131.249023438 c 1
 253.944335938 -78.8720703125 69.07421875 140.572265625 69.07421875 403.337890625 c 0
 69.07421875 451.880859375 75.3837890625 498.9453125 87.224609375 543.75 c 1
471.967773438 439.2265625 m 1
 471.967773438 79.2265625 l 1
 529.997070312 79.2265625 l 1
 529.997070312 439.2265625 l 1
 471.967773438 439.2265625 l 1
EndSplineSet
Validated: 5
EndChar

StartChar: J
Encoding: 74 74 9
Width: 1000
HStem: 440.027 103.723<549.886 606.896> 724.094 2.94989<247.343 408.169 575.718 736.974>
VStem: 48.8252 3<129.166 562.654> 69.0742 480.812<249.614 439.456> 606.896 324.679<249.614 439.456> 948.828 3<129.166 532.798>
LayerCount: 2
Fore
SplineSet
48.8251953125 401.25 m 0
 48.8251953125 129.412109375 241.413085938 -98.9755859375 500.326171875 -151.53125 c 1
 759.2109375 -98.9814453125 951.828125 129.3828125 951.828125 401.25 c 0
 951.828125 487.20703125 931.908203125 622.604492188 829.73828125 751.734375 c 1
 769.164363443 733.245479429 712.835249481 727.093239724 664.482956401 727.093239724 c 0
 568.281507601 727.093239724 503.656189801 751.446792319 499.999550594 751.446792319 c 0
 497.819672621 751.446792319 430.687599765 727.044388538 335.703516577 727.044388538 c 0
 284.219697464 727.044388538 228.659505523 734.108745886 170.9140625 751.734375 c 1
 143.68359375 717.318359375 48.8251953125 593.043945312 48.8251953125 401.25 c 0
500.326171875 -148.469726562 m 1
 244.404296875 -96.375 51.8251953125 129.943359375 51.8251953125 401.25 c 0
 51.8251953125 532.263671875 96.734375 652.788085938 171.997070312 748.267578125 c 1
 194.121661625 741.559163245 254.578454531 724.094496785 336.220980821 724.094496785 c 0
 384.658994327 724.094496785 440.554336446 730.24201854 500.326171875 748.430664062 c 1
 522.480517123 741.689132437 583.154560557 724.093873153 665.096293754 724.093873153 c 0
 713.402839117 724.093873153 769.100704143 730.20888552 828.655273438 748.267578125 c 1
 903.919921875 652.788085938 948.828125 532.263671875 948.828125 401.25 c 0
 948.828125 129.943359375 756.248046875 -96.375 500.326171875 -148.469726562 c 1
335.891601562 727.084960938 m 0
 240.107421875 727.084960938 174.219726562 751.500976562 171.455078125 751.500976562 c 0
 170.977539062 751.500976562 170.552734375 751.27734375 170.27734375 750.930664062 c 0
 94.228515625 654.811523438 48.8251953125 533.33203125 48.8251953125 401.25 c 0
 48.8251953125 128.388671875 242.5859375 -99.2138671875 500.026367188 -151.470703125 c 0
 500.133789062 -151.4921875 500.35546875 -151.525390625 500.625976562 -151.470703125 c 0
 758.06640625 -99.2138671875 951.828125 128.388671875 951.828125 401.25 c 0
 951.828125 533.33203125 906.42578125 654.811523438 830.375 750.930664062 c 0
 830.099609375 751.27734375 829.674804688 751.500976562 829.198242188 751.500976562 c 0
 826.43359375 751.500976562 760.544921875 727.084960938 664.76171875 727.084960938 c 0
 568.981445312 727.084960938 503.091796875 751.499023438 500.326171875 751.499023438 c 0
 497.551757812 751.499023438 431.6796875 727.084960938 335.891601562 727.084960938 c 0
500.326171875 -148.469726562 m 1
 244.404296875 -96.375 51.8251953125 129.943359375 51.8251953125 401.25 c 0
 51.8251953125 532.263671875 96.734375 652.788085938 171.997070312 748.267578125 c 1
 194.121661625 741.559163245 254.578454531 724.094496785 336.220980821 724.094496785 c 0
 384.658994327 724.094496785 440.554336446 730.24201854 500.326171875 748.430664062 c 1
 522.480517123 741.689132437 583.154560557 724.093873153 665.096293754 724.093873153 c 0
 713.402839117 724.093873153 769.100704143 730.20888552 828.655273438 748.267578125 c 1
 903.919921875 652.788085938 948.828125 532.263671875 948.828125 401.25 c 0
 948.828125 129.943359375 756.248046875 -96.375 500.326171875 -148.469726562 c 1
87.224609375 543.75 m 1
 913.42578125 543.75 l 1
 925.264648438 498.9453125 931.57421875 451.880859375 931.57421875 403.337890625 c 0
 931.57421875 140.572265625 746.706054688 -78.8720703125 500.325195312 -131.249023438 c 1
 253.944335938 -78.8720703125 69.07421875 140.572265625 69.07421875 403.337890625 c 0
 69.07421875 451.880859375 75.3837890625 498.9453125 87.224609375 543.75 c 1
549.885742188 440.02734375 m 1
 549.885742188 202.490234375 l 2
 550.237304688 183.134765625 545.311523438 167.38671875 535.106445312 155.24609375 c 0
 524.901367188 143.10546875 511 137.03515625 493.405273438 137.03515625 c 0
 463.844726562 138.090820312 441.5 156.038085938 426.368164062 190.876953125 c 1
 370.942382812 168.1796875 l 1
 395.575195312 110.818359375 436.571289062 81.4345703125 493.932617188 80.02734375 c 0
 527.36328125 80.02734375 554.4609375 91.2001953125 575.223632812 113.546875 c 0
 595.986328125 135.892578125 606.54296875 165.71484375 606.895507812 203.017578125 c 2
 606.895507812 440.02734375 l 1
 549.885742188 440.02734375 l 1
EndSplineSet
Validated: 37
EndChar

StartChar: K
Encoding: 75 75 10
Width: 1000
HStem: 439.883 103.867<394.015 450.97 564.343 637.419> 724.094 2.94989<247.343 408.169 575.718 736.974>
VStem: 48.8252 3<129.166 562.654> 69.0742 324.94<249.614 439.456> 948.828 3<129.166 532.798>
LayerCount: 2
Fore
SplineSet
48.8251953125 401.25 m 0
 48.8251953125 129.412109375 241.413085938 -98.9755859375 500.326171875 -151.53125 c 1
 759.2109375 -98.9814453125 951.828125 129.3828125 951.828125 401.25 c 0
 951.828125 487.20703125 931.908203125 622.604492188 829.73828125 751.734375 c 1
 769.164363443 733.245479429 712.835249481 727.093239724 664.482956401 727.093239724 c 0
 568.281507601 727.093239724 503.656189801 751.446792319 499.999550594 751.446792319 c 0
 497.819672621 751.446792319 430.687599765 727.044388538 335.703516577 727.044388538 c 0
 284.219697464 727.044388538 228.659505523 734.108745886 170.9140625 751.734375 c 1
 143.68359375 717.318359375 48.8251953125 593.043945312 48.8251953125 401.25 c 0
500.326171875 -148.469726562 m 1
 244.404296875 -96.375 51.8251953125 129.943359375 51.8251953125 401.25 c 0
 51.8251953125 532.263671875 96.734375 652.788085938 171.997070312 748.267578125 c 1
 194.121661625 741.559163245 254.578454531 724.094496785 336.220980821 724.094496785 c 0
 384.658994327 724.094496785 440.554336446 730.24201854 500.326171875 748.430664062 c 1
 522.480517123 741.689132437 583.154560557 724.093873153 665.096293754 724.093873153 c 0
 713.402839117 724.093873153 769.100704143 730.20888552 828.655273438 748.267578125 c 1
 903.919921875 652.788085938 948.828125 532.263671875 948.828125 401.25 c 0
 948.828125 129.943359375 756.248046875 -96.375 500.326171875 -148.469726562 c 1
335.891601562 727.084960938 m 0
 240.107421875 727.084960938 174.219726562 751.500976562 171.455078125 751.500976562 c 0
 170.977539062 751.500976562 170.552734375 751.27734375 170.27734375 750.930664062 c 0
 94.228515625 654.811523438 48.8251953125 533.33203125 48.8251953125 401.25 c 0
 48.8251953125 128.388671875 242.5859375 -99.2138671875 500.026367188 -151.470703125 c 0
 500.133789062 -151.4921875 500.35546875 -151.525390625 500.625976562 -151.470703125 c 0
 758.06640625 -99.2138671875 951.828125 128.388671875 951.828125 401.25 c 0
 951.828125 533.33203125 906.42578125 654.811523438 830.375 750.930664062 c 0
 830.099609375 751.27734375 829.674804688 751.500976562 829.198242188 751.500976562 c 0
 826.43359375 751.500976562 760.544921875 727.084960938 664.76171875 727.084960938 c 0
 568.981445312 727.084960938 503.091796875 751.499023438 500.326171875 751.499023438 c 0
 497.551757812 751.499023438 431.6796875 727.084960938 335.891601562 727.084960938 c 0
500.326171875 -148.469726562 m 1
 244.404296875 -96.375 51.8251953125 129.943359375 51.8251953125 401.25 c 0
 51.8251953125 532.263671875 96.734375 652.788085938 171.997070312 748.267578125 c 1
 194.121661625 741.559163245 254.578454531 724.094496785 336.220980821 724.094496785 c 0
 384.658994327 724.094496785 440.554336446 730.24201854 500.326171875 748.430664062 c 1
 522.480517123 741.689132437 583.154560557 724.093873153 665.096293754 724.093873153 c 0
 713.402839117 724.093873153 769.100704143 730.20888552 828.655273438 748.267578125 c 1
 903.919921875 652.788085938 948.828125 532.263671875 948.828125 401.25 c 0
 948.828125 129.943359375 756.248046875 -96.375 500.326171875 -148.469726562 c 1
87.224609375 543.75 m 1
 913.42578125 543.75 l 1
 925.264648438 498.9453125 931.57421875 451.880859375 931.57421875 403.337890625 c 0
 931.57421875 140.572265625 746.706054688 -78.8720703125 500.325195312 -131.249023438 c 1
 253.944335938 -78.8720703125 69.07421875 140.572265625 69.07421875 403.337890625 c 0
 69.07421875 451.880859375 75.3837890625 498.9453125 87.224609375 543.75 c 1
394.014648438 439.8828125 m 1
 394.014648438 79.8828125 l 1
 450.969726562 79.8828125 l 1
 450.969726562 203.46484375 l 1
 488.583007812 250.2109375 l 1
 579.387695312 79.8828125 l 1
 645.477539062 79.8828125 l 1
 526.731445312 299.64453125 l 1
 637.418945312 439.8828125 l 1
 564.342773438 439.8828125 l 1
 450.969726562 296.95703125 l 1
 450.969726562 439.8828125 l 1
 394.014648438 439.8828125 l 1
EndSplineSet
Validated: 5
EndChar

StartChar: L
Encoding: 76 76 11
Width: 1000
HStem: 439.227 104.523<395.532 452.487> 724.094 2.94989<247.343 408.169 575.718 736.974>
VStem: 48.8252 3<129.166 562.654> 69.0742 326.458<249.614 437.216> 948.828 3<129.166 532.798>
LayerCount: 2
Fore
SplineSet
48.8251953125 401.25 m 0
 48.8251953125 129.412109375 241.413085938 -98.9755859375 500.326171875 -151.53125 c 1
 759.2109375 -98.9814453125 951.828125 129.3828125 951.828125 401.25 c 0
 951.828125 487.20703125 931.908203125 622.604492188 829.73828125 751.734375 c 1
 769.164363443 733.245479429 712.835249481 727.093239724 664.482956401 727.093239724 c 0
 568.281507601 727.093239724 503.656189801 751.446792319 499.999550594 751.446792319 c 0
 497.819672621 751.446792319 430.687599765 727.044388538 335.703516577 727.044388538 c 0
 284.219697464 727.044388538 228.659505523 734.108745886 170.9140625 751.734375 c 1
 143.68359375 717.318359375 48.8251953125 593.043945312 48.8251953125 401.25 c 0
500.326171875 -148.469726562 m 1
 244.404296875 -96.375 51.8251953125 129.943359375 51.8251953125 401.25 c 0
 51.8251953125 532.263671875 96.734375 652.788085938 171.997070312 748.267578125 c 1
 194.121661625 741.559163245 254.578454531 724.094496785 336.220980821 724.094496785 c 0
 384.658994327 724.094496785 440.554336446 730.24201854 500.326171875 748.430664062 c 1
 522.480517123 741.689132437 583.154560557 724.093873153 665.096293754 724.093873153 c 0
 713.402839117 724.093873153 769.100704143 730.20888552 828.655273438 748.267578125 c 1
 903.919921875 652.788085938 948.828125 532.263671875 948.828125 401.25 c 0
 948.828125 129.943359375 756.248046875 -96.375 500.326171875 -148.469726562 c 1
335.891601562 727.084960938 m 0
 240.107421875 727.084960938 174.219726562 751.500976562 171.455078125 751.500976562 c 0
 170.977539062 751.500976562 170.552734375 751.27734375 170.27734375 750.930664062 c 0
 94.228515625 654.811523438 48.8251953125 533.33203125 48.8251953125 401.25 c 0
 48.8251953125 128.388671875 242.5859375 -99.2138671875 500.026367188 -151.470703125 c 0
 500.133789062 -151.4921875 500.35546875 -151.525390625 500.625976562 -151.470703125 c 0
 758.06640625 -99.2138671875 951.828125 128.388671875 951.828125 401.25 c 0
 951.828125 533.33203125 906.42578125 654.811523438 830.375 750.930664062 c 0
 830.099609375 751.27734375 829.674804688 751.500976562 829.198242188 751.500976562 c 0
 826.43359375 751.500976562 760.544921875 727.084960938 664.76171875 727.084960938 c 0
 568.981445312 727.084960938 503.091796875 751.499023438 500.326171875 751.499023438 c 0
 497.551757812 751.499023438 431.6796875 727.084960938 335.891601562 727.084960938 c 0
500.326171875 -148.469726562 m 1
 244.404296875 -96.375 51.8251953125 129.943359375 51.8251953125 401.25 c 0
 51.8251953125 532.263671875 96.734375 652.788085938 171.997070312 748.267578125 c 1
 194.121661625 741.559163245 254.578454531 724.094496785 336.220980821 724.094496785 c 0
 384.658994327 724.094496785 440.554336446 730.24201854 500.326171875 748.430664062 c 1
 522.480517123 741.689132437 583.154560557 724.093873153 665.096293754 724.093873153 c 0
 713.402839117 724.093873153 769.100704143 730.20888552 828.655273438 748.267578125 c 1
 903.919921875 652.788085938 948.828125 532.263671875 948.828125 401.25 c 0
 948.828125 129.943359375 756.248046875 -96.375 500.326171875 -148.469726562 c 1
87.224609375 543.75 m 1
 913.42578125 543.75 l 1
 925.264648438 498.9453125 931.57421875 451.880859375 931.57421875 403.337890625 c 0
 931.57421875 140.572265625 746.706054688 -78.8720703125 500.325195312 -131.249023438 c 1
 253.944335938 -78.8720703125 69.07421875 140.572265625 69.07421875 403.337890625 c 0
 69.07421875 451.880859375 75.3837890625 498.9453125 87.224609375 543.75 c 1
395.532226562 439.2265625 m 1
 395.532226562 79.2265625 l 1
 619.053710938 79.2265625 l 1
 619.053710938 137.255859375 l 1
 452.487304688 137.255859375 l 1
 452.487304688 439.2265625 l 1
 395.532226562 439.2265625 l 1
EndSplineSet
Validated: 5
EndChar

StartChar: M
Encoding: 77 77 12
Width: 1000
HStem: 440.242 103.508<362.665 419.62 586.187 643.142> 724.094 2.94989<247.343 408.169 575.718 736.974>
VStem: 48.8252 3<129.166 562.654> 69.0742 293.591<249.614 439.456> 643.142 288.433<249.614 439.456> 948.828 3<129.166 532.798>
LayerCount: 2
Fore
SplineSet
48.8251953125 401.25 m 0
 48.8251953125 129.412109375 241.413085938 -98.9755859375 500.326171875 -151.53125 c 1
 759.2109375 -98.9814453125 951.828125 129.3828125 951.828125 401.25 c 0
 951.828125 487.20703125 931.908203125 622.604492188 829.73828125 751.734375 c 1
 769.164363443 733.245479429 712.835249481 727.093239724 664.482956401 727.093239724 c 0
 568.281507601 727.093239724 503.656189801 751.446792319 499.999550594 751.446792319 c 0
 497.819672621 751.446792319 430.687599765 727.044388538 335.703516577 727.044388538 c 0
 284.219697464 727.044388538 228.659505523 734.108745886 170.9140625 751.734375 c 1
 143.68359375 717.318359375 48.8251953125 593.043945312 48.8251953125 401.25 c 0
500.326171875 -148.469726562 m 1
 244.404296875 -96.375 51.8251953125 129.943359375 51.8251953125 401.25 c 0
 51.8251953125 532.263671875 96.734375 652.788085938 171.997070312 748.267578125 c 1
 194.121661625 741.559163245 254.578454531 724.094496785 336.220980821 724.094496785 c 0
 384.658994327 724.094496785 440.554336446 730.24201854 500.326171875 748.430664062 c 1
 522.480517123 741.689132437 583.154560557 724.093873153 665.096293754 724.093873153 c 0
 713.402839117 724.093873153 769.100704143 730.20888552 828.655273438 748.267578125 c 1
 903.919921875 652.788085938 948.828125 532.263671875 948.828125 401.25 c 0
 948.828125 129.943359375 756.248046875 -96.375 500.326171875 -148.469726562 c 1
335.891601562 727.084960938 m 0
 240.107421875 727.084960938 174.219726562 751.500976562 171.455078125 751.500976562 c 0
 170.977539062 751.500976562 170.552734375 751.27734375 170.27734375 750.930664062 c 0
 94.228515625 654.811523438 48.8251953125 533.33203125 48.8251953125 401.25 c 0
 48.8251953125 128.388671875 242.5859375 -99.2138671875 500.026367188 -151.470703125 c 0
 500.133789062 -151.4921875 500.35546875 -151.525390625 500.625976562 -151.470703125 c 0
 758.06640625 -99.2138671875 951.828125 128.388671875 951.828125 401.25 c 0
 951.828125 533.33203125 906.42578125 654.811523438 830.375 750.930664062 c 0
 830.099609375 751.27734375 829.674804688 751.500976562 829.198242188 751.500976562 c 0
 826.43359375 751.500976562 760.544921875 727.084960938 664.76171875 727.084960938 c 0
 568.981445312 727.084960938 503.091796875 751.499023438 500.326171875 751.499023438 c 0
 497.551757812 751.499023438 431.6796875 727.084960938 335.891601562 727.084960938 c 0
500.326171875 -148.469726562 m 1
 244.404296875 -96.375 51.8251953125 129.943359375 51.8251953125 401.25 c 0
 51.8251953125 532.263671875 96.734375 652.788085938 171.997070312 748.267578125 c 1
 194.121661625 741.559163245 254.578454531 724.094496785 336.220980821 724.094496785 c 0
 384.658994327 724.094496785 440.554336446 730.24201854 500.326171875 748.430664062 c 1
 522.480517123 741.689132437 583.154560557 724.093873153 665.096293754 724.093873153 c 0
 713.402839117 724.093873153 769.100704143 730.20888552 828.655273438 748.267578125 c 1
 903.919921875 652.788085938 948.828125 532.263671875 948.828125 401.25 c 0
 948.828125 129.943359375 756.248046875 -96.375 500.326171875 -148.469726562 c 1
87.224609375 543.75 m 1
 913.42578125 543.75 l 1
 925.264648438 498.9453125 931.57421875 451.880859375 931.57421875 403.337890625 c 0
 931.57421875 140.572265625 746.706054688 -78.8720703125 500.325195312 -131.249023438 c 1
 253.944335938 -78.8720703125 69.07421875 140.572265625 69.07421875 403.337890625 c 0
 69.07421875 451.880859375 75.3837890625 498.9453125 87.224609375 543.75 c 1
362.665039062 440.2421875 m 1
 362.665039062 80.2421875 l 1
 419.620117188 80.2421875 l 1
 419.620117188 288.71875 l 1
 502.903320312 80.2421875 l 1
 586.186523438 288.71875 l 1
 586.186523438 80.2421875 l 1
 643.141601562 80.2421875 l 1
 643.141601562 440.2421875 l 1
 586.186523438 440.2421875 l 1
 502.903320312 238.2109375 l 1
 419.620117188 440.2421875 l 1
 362.665039062 440.2421875 l 1
EndSplineSet
Validated: 5
EndChar

StartChar: S
Encoding: 83 83 13
Width: 1000
HStem: 307.68 78.4414<463.016 541.234> 439.629 104.121<434.271 561.368> 724.094 2.94989<247.343 408.169 575.718 736.974>
VStem: 48.8252 3<129.166 562.654> 69.0742 326.989<290.323 427.609> 619.997 311.577<152.092 427.609> 948.828 3<129.166 532.798>
LayerCount: 2
Fore
SplineSet
48.8251953125 401.25 m 0
 48.8251953125 129.412109375 241.413085938 -98.9755859375 500.326171875 -151.53125 c 1
 759.2109375 -98.9814453125 951.828125 129.3828125 951.828125 401.25 c 0
 951.828125 487.20703125 931.908203125 622.604492188 829.73828125 751.734375 c 1
 769.164363443 733.245479429 712.835249481 727.093239724 664.482956401 727.093239724 c 0
 568.281507601 727.093239724 503.656189801 751.446792319 499.999550594 751.446792319 c 0
 497.819672621 751.446792319 430.687599765 727.044388538 335.703516577 727.044388538 c 0
 284.219697464 727.044388538 228.659505523 734.108745886 170.9140625 751.734375 c 1
 143.68359375 717.318359375 48.8251953125 593.043945312 48.8251953125 401.25 c 0
500.326171875 -148.469726562 m 1
 244.404296875 -96.375 51.8251953125 129.943359375 51.8251953125 401.25 c 0
 51.8251953125 532.263671875 96.734375 652.788085938 171.997070312 748.267578125 c 1
 194.121661625 741.559163245 254.578454531 724.094496785 336.220980821 724.094496785 c 0
 384.658994327 724.094496785 440.554336446 730.24201854 500.326171875 748.430664062 c 1
 522.480517123 741.689132437 583.154560557 724.093873153 665.096293754 724.093873153 c 0
 713.402839117 724.093873153 769.100704143 730.20888552 828.655273438 748.267578125 c 1
 903.919921875 652.788085938 948.828125 532.263671875 948.828125 401.25 c 0
 948.828125 129.943359375 756.248046875 -96.375 500.326171875 -148.469726562 c 1
335.891601562 727.084960938 m 0
 240.107421875 727.084960938 174.219726562 751.500976562 171.455078125 751.500976562 c 0
 170.977539062 751.500976562 170.552734375 751.27734375 170.27734375 750.930664062 c 0
 94.228515625 654.811523438 48.8251953125 533.33203125 48.8251953125 401.25 c 0
 48.8251953125 128.388671875 242.5859375 -99.2138671875 500.026367188 -151.470703125 c 0
 500.133789062 -151.4921875 500.35546875 -151.525390625 500.625976562 -151.470703125 c 0
 758.06640625 -99.2138671875 951.828125 128.388671875 951.828125 401.25 c 0
 951.828125 533.33203125 906.42578125 654.811523438 830.375 750.930664062 c 0
 830.099609375 751.27734375 829.674804688 751.500976562 829.198242188 751.500976562 c 0
 826.43359375 751.500976562 760.544921875 727.084960938 664.76171875 727.084960938 c 0
 568.981445312 727.084960938 503.091796875 751.499023438 500.326171875 751.499023438 c 0
 497.551757812 751.499023438 431.6796875 727.084960938 335.891601562 727.084960938 c 0
500.326171875 -148.469726562 m 1
 244.404296875 -96.375 51.8251953125 129.943359375 51.8251953125 401.25 c 0
 51.8251953125 532.263671875 96.734375 652.788085938 171.997070312 748.267578125 c 1
 194.121661625 741.559163245 254.578454531 724.094496785 336.220980821 724.094496785 c 0
 384.658994327 724.094496785 440.554336446 730.24201854 500.326171875 748.430664062 c 1
 522.480517123 741.689132437 583.154560557 724.093873153 665.096293754 724.093873153 c 0
 713.402839117 724.093873153 769.100704143 730.20888552 828.655273438 748.267578125 c 1
 903.919921875 652.788085938 948.828125 532.263671875 948.828125 401.25 c 0
 948.828125 129.943359375 756.248046875 -96.375 500.326171875 -148.469726562 c 1
87.224609375 543.75 m 1
 913.42578125 543.75 l 1
 925.264648438 498.9453125 931.57421875 451.880859375 931.57421875 403.337890625 c 0
 931.57421875 140.572265625 746.706054688 -78.8720703125 500.325195312 -131.249023438 c 1
 253.944335938 -78.8720703125 69.07421875 140.572265625 69.07421875 403.337890625 c 0
 69.07421875 451.880859375 75.3837890625 498.9453125 87.224609375 543.75 c 1
497.399414062 439.62890625 m 0
 466.577148438 439.62890625 441.813476562 428.805664062 423.112304688 407.16015625 c 0
 405.078893657 386.287542386 396.063501607 363.565194894 396.063501607 338.989611201 c 0
 396.063501607 328.066094115 396.251080895 303.910995835 422.592773438 280.927734375 c 0
 440.254882812 265.516601562 465.7109375 255.385742188 498.958007812 250.537109375 c 0
 523.546875 246.03515625 540.688476562 238.501953125 550.385742188 227.939453125 c 0
 559.748262797 217.741565621 564.42908366 207.463571259 564.42908366 197.103712273 c 0
 564.42908366 188.353984293 563.495757495 171.1938697 546.229492188 154.173828125 c 0
 534.450176697 142.562490304 520.544114183 136.756821394 504.51309717 136.756821394 c 0
 504.047955279 136.756821394 503.581024437 136.761709054 503.112304688 136.771484375 c 0
 474.368164062 136.771484375 451.857421875 153.56640625 435.581054688 187.16015625 c 1
 383.112304688 160.66796875 l 1
 409.0859375 107.333984375 448.739257812 80.3212890625 502.073242188 79.62890625 c 0
 535.666015625 79.62890625 563.71875 91.1435546875 586.229492188 114.173828125 c 0
 608.740234375 137.204101562 619.997070312 163.611328125 619.997070312 193.39453125 c 0
 619.997070312 220.407226562 610.55859375 244.389648438 591.684570312 265.341796875 c 0
 572.810546875 286.293945312 542.421875 300.407226562 500.516601562 307.6796875 c 0
 482.854492188 310.450195312 469.952148438 315.126953125 461.813476562 321.70703125 c 0
 457.959301195 324.823113999 449.587167179 331.591945172 449.587167179 345.307601765 c 0
 449.587167179 356.201418493 453.922659908 365.65089815 462.592773438 373.654296875 c 0
 471.596679688 381.965820312 482.853515625 386.12109375 496.360351562 386.12109375 c 0
 519.563476562 385.774414062 536.706054688 375.385742188 547.788085938 354.953125 c 1
 594.022460938 378.330078125 l 1
 572.896484375 418.157226562 540.689453125 438.58984375 497.399414062 439.62890625 c 0
EndSplineSet
Validated: 5
EndChar

StartChar: N
Encoding: 78 78 14
Width: 1000
HStem: 439.227 104.523<377.083 434.038 565.142 622.097> 724.094 2.94989<247.343 408.169 575.718 736.974>
VStem: 48.8252 3<129.166 562.654> 69.0742 308.009<249.614 437.216> 622.097 309.478<249.614 437.216> 948.828 3<129.166 532.798>
LayerCount: 2
Fore
SplineSet
48.8251953125 401.25 m 0
 48.8251953125 129.412109375 241.413085938 -98.9755859375 500.326171875 -151.53125 c 1
 759.2109375 -98.9814453125 951.828125 129.3828125 951.828125 401.25 c 0
 951.828125 487.20703125 931.908203125 622.604492188 829.73828125 751.734375 c 1
 769.164363443 733.245479429 712.835249481 727.093239724 664.482956401 727.093239724 c 0
 568.281507601 727.093239724 503.656189801 751.446792319 499.999550594 751.446792319 c 0
 497.819672621 751.446792319 430.687599765 727.044388538 335.703516577 727.044388538 c 0
 284.219697464 727.044388538 228.659505523 734.108745886 170.9140625 751.734375 c 1
 143.68359375 717.318359375 48.8251953125 593.043945312 48.8251953125 401.25 c 0
500.326171875 -148.469726562 m 1
 244.404296875 -96.375 51.8251953125 129.943359375 51.8251953125 401.25 c 0
 51.8251953125 532.263671875 96.734375 652.788085938 171.997070312 748.267578125 c 1
 194.121661625 741.559163245 254.578454531 724.094496785 336.220980821 724.094496785 c 0
 384.658994327 724.094496785 440.554336446 730.24201854 500.326171875 748.430664062 c 1
 522.480517123 741.689132437 583.154560557 724.093873153 665.096293754 724.093873153 c 0
 713.402839117 724.093873153 769.100704143 730.20888552 828.655273438 748.267578125 c 1
 903.919921875 652.788085938 948.828125 532.263671875 948.828125 401.25 c 0
 948.828125 129.943359375 756.248046875 -96.375 500.326171875 -148.469726562 c 1
335.891601562 727.084960938 m 0
 240.107421875 727.084960938 174.219726562 751.500976562 171.455078125 751.500976562 c 0
 170.977539062 751.500976562 170.552734375 751.27734375 170.27734375 750.930664062 c 0
 94.228515625 654.811523438 48.8251953125 533.33203125 48.8251953125 401.25 c 0
 48.8251953125 128.388671875 242.5859375 -99.2138671875 500.026367188 -151.470703125 c 0
 500.133789062 -151.4921875 500.35546875 -151.525390625 500.625976562 -151.470703125 c 0
 758.06640625 -99.2138671875 951.828125 128.388671875 951.828125 401.25 c 0
 951.828125 533.33203125 906.42578125 654.811523438 830.375 750.930664062 c 0
 830.099609375 751.27734375 829.674804688 751.500976562 829.198242188 751.500976562 c 0
 826.43359375 751.500976562 760.544921875 727.084960938 664.76171875 727.084960938 c 0
 568.981445312 727.084960938 503.091796875 751.499023438 500.326171875 751.499023438 c 0
 497.551757812 751.499023438 431.6796875 727.084960938 335.891601562 727.084960938 c 0
500.326171875 -148.469726562 m 1
 244.404296875 -96.375 51.8251953125 129.943359375 51.8251953125 401.25 c 0
 51.8251953125 532.263671875 96.734375 652.788085938 171.997070312 748.267578125 c 1
 194.121661625 741.559163245 254.578454531 724.094496785 336.220980821 724.094496785 c 0
 384.658994327 724.094496785 440.554336446 730.24201854 500.326171875 748.430664062 c 1
 522.480517123 741.689132437 583.154560557 724.093873153 665.096293754 724.093873153 c 0
 713.402839117 724.093873153 769.100704143 730.20888552 828.655273438 748.267578125 c 1
 903.919921875 652.788085938 948.828125 532.263671875 948.828125 401.25 c 0
 948.828125 129.943359375 756.248046875 -96.375 500.326171875 -148.469726562 c 1
87.224609375 543.75 m 1
 913.42578125 543.75 l 1
 925.264648438 498.9453125 931.57421875 451.880859375 931.57421875 403.337890625 c 0
 931.57421875 140.572265625 746.706054688 -78.8720703125 500.325195312 -131.249023438 c 1
 253.944335938 -78.8720703125 69.07421875 140.572265625 69.07421875 403.337890625 c 0
 69.07421875 451.880859375 75.3837890625 498.9453125 87.224609375 543.75 c 1
377.083007812 439.2265625 m 1
 377.083007812 79.2265625 l 1
 434.038085938 79.2265625 l 1
 434.038085938 323.166015625 l 1
 571.590820312 79.2265625 l 1
 622.096679688 79.2265625 l 1
 622.096679688 439.2265625 l 1
 565.141601562 439.2265625 l 1
 565.141601562 209.255859375 l 1
 434.038085938 439.2265625 l 1
 377.083007812 439.2265625 l 1
EndSplineSet
Validated: 5
EndChar

StartChar: O
Encoding: 79 79 15
Width: 1000
HStem: 137.419 247.801<455.221 545.426> 440.285 103.465<430.732 570.603> 724.094 2.94989<247.343 408.169 575.718 736.974>
VStem: 48.8252 3<129.166 562.654> 69.0742 303.974<249.705 427.609> 430.192 140.779<161 350.456> 627.595 303.979<249.705 427.609> 948.828 3<129.166 532.798>
LayerCount: 2
Fore
SplineSet
48.8251953125 401.25 m 0
 48.8251953125 129.412109375 241.413085938 -98.9755859375 500.326171875 -151.53125 c 1
 759.2109375 -98.9814453125 951.828125 129.3828125 951.828125 401.25 c 0
 951.828125 487.20703125 931.908203125 622.604492188 829.73828125 751.734375 c 1
 769.164363443 733.245479429 712.835249481 727.093239724 664.482956401 727.093239724 c 0
 568.281507601 727.093239724 503.656189801 751.446792319 499.999550594 751.446792319 c 0
 497.819672621 751.446792319 430.687599765 727.044388538 335.703516577 727.044388538 c 0
 284.219697464 727.044388538 228.659505523 734.108745886 170.9140625 751.734375 c 1
 143.68359375 717.318359375 48.8251953125 593.043945312 48.8251953125 401.25 c 0
500.326171875 -148.469726562 m 1
 244.404296875 -96.375 51.8251953125 129.943359375 51.8251953125 401.25 c 0
 51.8251953125 532.263671875 96.734375 652.788085938 171.997070312 748.267578125 c 1
 194.121661625 741.559163245 254.578454531 724.094496785 336.220980821 724.094496785 c 0
 384.658994327 724.094496785 440.554336446 730.24201854 500.326171875 748.430664062 c 1
 522.480517123 741.689132437 583.154560557 724.093873153 665.096293754 724.093873153 c 0
 713.402839117 724.093873153 769.100704143 730.20888552 828.655273438 748.267578125 c 1
 903.919921875 652.788085938 948.828125 532.263671875 948.828125 401.25 c 0
 948.828125 129.943359375 756.248046875 -96.375 500.326171875 -148.469726562 c 1
335.891601562 727.084960938 m 0
 240.107421875 727.084960938 174.219726562 751.500976562 171.455078125 751.500976562 c 0
 170.977539062 751.500976562 170.552734375 751.27734375 170.27734375 750.930664062 c 0
 94.228515625 654.811523438 48.8251953125 533.33203125 48.8251953125 401.25 c 0
 48.8251953125 128.388671875 242.5859375 -99.2138671875 500.026367188 -151.470703125 c 0
 500.133789062 -151.4921875 500.35546875 -151.525390625 500.625976562 -151.470703125 c 0
 758.06640625 -99.2138671875 951.828125 128.388671875 951.828125 401.25 c 0
 951.828125 533.33203125 906.42578125 654.811523438 830.375 750.930664062 c 0
 830.099609375 751.27734375 829.674804688 751.500976562 829.198242188 751.500976562 c 0
 826.43359375 751.500976562 760.544921875 727.084960938 664.76171875 727.084960938 c 0
 568.981445312 727.084960938 503.091796875 751.499023438 500.326171875 751.499023438 c 0
 497.551757812 751.499023438 431.6796875 727.084960938 335.891601562 727.084960938 c 0
500.326171875 -148.469726562 m 1
 244.404296875 -96.375 51.8251953125 129.943359375 51.8251953125 401.25 c 0
 51.8251953125 532.263671875 96.734375 652.788085938 171.997070312 748.267578125 c 1
 194.121661625 741.559163245 254.578454531 724.094496785 336.220980821 724.094496785 c 0
 384.658994327 724.094496785 440.554336446 730.24201854 500.326171875 748.430664062 c 1
 522.480517123 741.689132437 583.154560557 724.093873153 665.096293754 724.093873153 c 0
 713.402839117 724.093873153 769.100704143 730.20888552 828.655273438 748.267578125 c 1
 903.919921875 652.788085938 948.828125 532.263671875 948.828125 401.25 c 0
 948.828125 129.943359375 756.248046875 -96.375 500.326171875 -148.469726562 c 1
87.224609375 543.75 m 1
 913.42578125 543.75 l 1
 925.264648438 498.9453125 931.57421875 451.880859375 931.57421875 403.337890625 c 0
 931.57421875 140.572265625 746.706054688 -78.8720703125 500.325195312 -131.249023438 c 1
 253.944335938 -78.8720703125 69.07421875 140.572265625 69.07421875 403.337890625 c 0
 69.07421875 451.880859375 75.3837890625 498.9453125 87.224609375 543.75 c 1
500.321289062 440.28515625 m 0
 459.455078125 440.28515625 428.02734375 424.52734375 406.036132812 393.01171875 c 0
 384.044921875 361.49609375 373.047851562 317.340820312 373.047851562 260.544921875 c 0
 373.047851562 202.36328125 384.044921875 157.772460938 406.036132812 126.77734375 c 0
 428.02734375 95.78125 459.455078125 80.28515625 500.321289062 80.28515625 c 0
 541.879882812 80.28515625 573.48046875 95.78125 595.125976562 126.77734375 c 0
 616.771484375 157.772460938 627.594726562 202.36328125 627.594726562 260.544921875 c 0
 627.594726562 317.340820312 616.771484375 361.49609375 595.125976562 393.01171875 c 0
 573.48046875 424.52734375 541.879882812 440.28515625 500.321289062 440.28515625 c 0
500.321289062 385.220703125 m 0
 524.91015625 383.834960938 542.658203125 372.579101562 553.567382812 351.453125 c 0
 564.4765625 330.327148438 570.279296875 300.372070312 570.971679688 261.583984375 c 0
 570.279296875 221.756835938 564.909179688 191.280273438 554.866210938 170.154296875 c 0
 544.823242188 149.028320312 526.641601562 138.120117188 500.321289062 137.427734375 c 0
 499.918664386 137.422136672 499.517868521 137.419337816 499.118901454 137.419337816 c 0
 474.808846538 137.419337816 457.288697425 147.810839574 446.555664062 168.595703125 c 0
 435.646484375 189.721679688 430.192382812 220.717773438 430.192382812 261.583984375 c 0
 430.5390625 297.947265625 436.252929688 327.643554688 447.334960938 350.673828125 c 0
 458.416992188 373.704101562 476.078125 385.220703125 500.321289062 385.220703125 c 0
EndSplineSet
Validated: 5
EndChar

StartChar: P
Encoding: 80 80 16
Width: 1000
HStem: 293.195 88.6582<441.116 552.213> 439.883 103.867<385.235 584.155> 724.094 2.94989<247.343 408.169 575.718 736.974>
VStem: 48.8252 3<129.166 562.654> 69.0742 316.161<249.614 439.456> 441.116 124.119<305.389 369.676> 622.728 308.847<278.445 427.609> 948.828 3<129.166 532.798>
LayerCount: 2
Fore
SplineSet
48.8251953125 401.25 m 0
 48.8251953125 129.412109375 241.413085938 -98.9755859375 500.326171875 -151.53125 c 1
 759.2109375 -98.9814453125 951.828125 129.3828125 951.828125 401.25 c 0
 951.828125 487.20703125 931.908203125 622.604492188 829.73828125 751.734375 c 1
 769.164363443 733.245479429 712.835249481 727.093239724 664.482956401 727.093239724 c 0
 568.281507601 727.093239724 503.656189801 751.446792319 499.999550594 751.446792319 c 0
 497.819672621 751.446792319 430.687599765 727.044388538 335.703516577 727.044388538 c 0
 284.219697464 727.044388538 228.659505523 734.108745886 170.9140625 751.734375 c 1
 143.68359375 717.318359375 48.8251953125 593.043945312 48.8251953125 401.25 c 0
500.326171875 -148.469726562 m 1
 244.404296875 -96.375 51.8251953125 129.943359375 51.8251953125 401.25 c 0
 51.8251953125 532.263671875 96.734375 652.788085938 171.997070312 748.267578125 c 1
 194.121661625 741.559163245 254.578454531 724.094496785 336.220980821 724.094496785 c 0
 384.658994327 724.094496785 440.554336446 730.24201854 500.326171875 748.430664062 c 1
 522.480517123 741.689132437 583.154560557 724.093873153 665.096293754 724.093873153 c 0
 713.402839117 724.093873153 769.100704143 730.20888552 828.655273438 748.267578125 c 1
 903.919921875 652.788085938 948.828125 532.263671875 948.828125 401.25 c 0
 948.828125 129.943359375 756.248046875 -96.375 500.326171875 -148.469726562 c 1
335.891601562 727.084960938 m 0
 240.107421875 727.084960938 174.219726562 751.500976562 171.455078125 751.500976562 c 0
 170.977539062 751.500976562 170.552734375 751.27734375 170.27734375 750.930664062 c 0
 94.228515625 654.811523438 48.8251953125 533.33203125 48.8251953125 401.25 c 0
 48.8251953125 128.388671875 242.5859375 -99.2138671875 500.026367188 -151.470703125 c 0
 500.133789062 -151.4921875 500.35546875 -151.525390625 500.625976562 -151.470703125 c 0
 758.06640625 -99.2138671875 951.828125 128.388671875 951.828125 401.25 c 0
 951.828125 533.33203125 906.42578125 654.811523438 830.375 750.930664062 c 0
 830.099609375 751.27734375 829.674804688 751.500976562 829.198242188 751.500976562 c 0
 826.43359375 751.500976562 760.544921875 727.084960938 664.76171875 727.084960938 c 0
 568.981445312 727.084960938 503.091796875 751.499023438 500.326171875 751.499023438 c 0
 497.551757812 751.499023438 431.6796875 727.084960938 335.891601562 727.084960938 c 0
500.326171875 -148.469726562 m 1
 244.404296875 -96.375 51.8251953125 129.943359375 51.8251953125 401.25 c 0
 51.8251953125 532.263671875 96.734375 652.788085938 171.997070312 748.267578125 c 1
 194.121661625 741.559163245 254.578454531 724.094496785 336.220980821 724.094496785 c 0
 384.658994327 724.094496785 440.554336446 730.24201854 500.326171875 748.430664062 c 1
 522.480517123 741.689132437 583.154560557 724.093873153 665.096293754 724.093873153 c 0
 713.402839117 724.093873153 769.100704143 730.20888552 828.655273438 748.267578125 c 1
 903.919921875 652.788085938 948.828125 532.263671875 948.828125 401.25 c 0
 948.828125 129.943359375 756.248046875 -96.375 500.326171875 -148.469726562 c 1
87.224609375 543.75 m 1
 913.42578125 543.75 l 1
 925.264648438 498.9453125 931.57421875 451.880859375 931.57421875 403.337890625 c 0
 931.57421875 140.572265625 746.706054688 -78.8720703125 500.325195312 -131.249023438 c 1
 253.944335938 -78.8720703125 69.07421875 140.572265625 69.07421875 403.337890625 c 0
 69.07421875 451.880859375 75.3837890625 498.9453125 87.224609375 543.75 c 1
385.235351562 439.8828125 m 1
 385.235351562 79.8828125 l 1
 442.190429688 79.8828125 l 1
 442.190429688 236.240234375 l 1
 510.428710938 236.240234375 l 2
 511.3407332 236.227198381 512.247188316 236.220680432 513.14807624 236.220680432 c 0
 537.015290809 236.220680432 556.975012401 240.7954893 573.026367188 249.943359375 c 0
 589.682617188 259.435546875 602.131835938 271.881835938 610.370117188 287.28515625 c 0
 618.608398438 302.688476562 622.727539062 319.8828125 622.727539062 338.8671875 c 0
 622.727539062 357.135742188 617.624023438 374.689453125 607.415039062 391.525390625 c 0
 597.206054688 408.361328125 584.040039062 420.62890625 567.920898438 428.330078125 c 0
 551.801757812 436.03125 530.48828125 439.8828125 503.981445312 439.8828125 c 2
 385.235351562 439.8828125 l 1
441.116210938 381.853515625 m 1
 524.399414062 381.853515625 l 2
 534.787109375 381.495117188 544.190429688 377.553710938 552.608398438 370.03125 c 0
 561.026367188 362.508789062 565.235351562 351.762695312 565.235351562 337.79296875 c 0
 565.235351562 323.823242188 561.474609375 312.8984375 553.952148438 305.017578125 c 0
 546.4296875 297.13671875 537.293945312 293.1953125 526.547851562 293.1953125 c 2
 441.116210938 293.1953125 l 1
 441.116210938 381.853515625 l 1
EndSplineSet
Validated: 5
EndChar

StartChar: Q
Encoding: 81 81 17
Width: 1000
HStem: 440.312 103.438<431.295 571.018> 724.094 2.94989<247.343 408.169 575.718 736.974>
VStem: 48.8252 3<129.166 562.654> 69.0742 304.601<249.821 427.609> 430.757 140.627<224.805 350.582> 627.946 303.628<250.537 427.609> 948.828 3<129.166 532.798>
LayerCount: 2
Fore
SplineSet
48.8251953125 401.25 m 0
 48.8251953125 129.412109375 241.413085938 -98.9755859375 500.326171875 -151.53125 c 1
 759.2109375 -98.9814453125 951.828125 129.3828125 951.828125 401.25 c 0
 951.828125 487.20703125 931.908203125 622.604492188 829.73828125 751.734375 c 1
 769.164363443 733.245479429 712.835249481 727.093239724 664.482956401 727.093239724 c 0
 568.281507601 727.093239724 503.656189801 751.446792319 499.999550594 751.446792319 c 0
 497.819672621 751.446792319 430.687599765 727.044388538 335.703516577 727.044388538 c 0
 284.219697464 727.044388538 228.659505523 734.108745886 170.9140625 751.734375 c 1
 143.68359375 717.318359375 48.8251953125 593.043945312 48.8251953125 401.25 c 0
500.326171875 -148.469726562 m 1
 244.404296875 -96.375 51.8251953125 129.943359375 51.8251953125 401.25 c 0
 51.8251953125 532.263671875 96.734375 652.788085938 171.997070312 748.267578125 c 1
 194.121661625 741.559163245 254.578454531 724.094496785 336.220980821 724.094496785 c 0
 384.658994327 724.094496785 440.554336446 730.24201854 500.326171875 748.430664062 c 1
 522.480517123 741.689132437 583.154560557 724.093873153 665.096293754 724.093873153 c 0
 713.402839117 724.093873153 769.100704143 730.20888552 828.655273438 748.267578125 c 1
 903.919921875 652.788085938 948.828125 532.263671875 948.828125 401.25 c 0
 948.828125 129.943359375 756.248046875 -96.375 500.326171875 -148.469726562 c 1
335.891601562 727.084960938 m 0
 240.107421875 727.084960938 174.219726562 751.500976562 171.455078125 751.500976562 c 0
 170.977539062 751.500976562 170.552734375 751.27734375 170.27734375 750.930664062 c 0
 94.228515625 654.811523438 48.8251953125 533.33203125 48.8251953125 401.25 c 0
 48.8251953125 128.388671875 242.5859375 -99.2138671875 500.026367188 -151.470703125 c 0
 500.133789062 -151.4921875 500.35546875 -151.525390625 500.625976562 -151.470703125 c 0
 758.06640625 -99.2138671875 951.828125 128.388671875 951.828125 401.25 c 0
 951.828125 533.33203125 906.42578125 654.811523438 830.375 750.930664062 c 0
 830.099609375 751.27734375 829.674804688 751.500976562 829.198242188 751.500976562 c 0
 826.43359375 751.500976562 760.544921875 727.084960938 664.76171875 727.084960938 c 0
 568.981445312 727.084960938 503.091796875 751.499023438 500.326171875 751.499023438 c 0
 497.551757812 751.499023438 431.6796875 727.084960938 335.891601562 727.084960938 c 0
500.326171875 -148.469726562 m 1
 244.404296875 -96.375 51.8251953125 129.943359375 51.8251953125 401.25 c 0
 51.8251953125 532.263671875 96.734375 652.788085938 171.997070312 748.267578125 c 1
 194.121661625 741.559163245 254.578454531 724.094496785 336.220980821 724.094496785 c 0
 384.658994327 724.094496785 440.554336446 730.24201854 500.326171875 748.430664062 c 1
 522.480517123 741.689132437 583.154560557 724.093873153 665.096293754 724.093873153 c 0
 713.402839117 724.093873153 769.100704143 730.20888552 828.655273438 748.267578125 c 1
 903.919921875 652.788085938 948.828125 532.263671875 948.828125 401.25 c 0
 948.828125 129.943359375 756.248046875 -96.375 500.326171875 -148.469726562 c 1
87.224609375 543.75 m 1
 913.42578125 543.75 l 1
 925.264648438 498.9453125 931.57421875 451.880859375 931.57421875 403.337890625 c 0
 931.57421875 140.572265625 746.706054688 -78.8720703125 500.325195312 -131.249023438 c 1
 253.944335938 -78.8720703125 69.07421875 140.572265625 69.07421875 403.337890625 c 0
 69.07421875 451.880859375 75.3837890625 498.9453125 87.224609375 543.75 c 1
500.809570312 440.3125 m 0
 459.987304688 440.3125 428.592773438 424.573242188 406.625976562 393.091796875 c 0
 384.658203125 361.610351562 373.674804688 317.500976562 373.674804688 260.765625 c 0
 373.674804688 202.646484375 384.658203125 158.106445312 406.625976562 127.14453125 c 0
 428.592773438 96.181640625 459.987304688 80.701171875 500.809570312 80.701171875 c 0
 516.03125 80.701171875 532.1171875 83.12109375 549.069335938 87.96484375 c 1
 575.016601562 46.451171875 l 1
 621.200195312 76.548828125 l 1
 594.735351562 119.099609375 l 1
 615.837890625 146.4296875 626.908203125 193.651367188 627.946289062 260.765625 c 0
 627.946289062 317.500976562 617.13671875 361.610351562 595.514648438 393.091796875 c 0
 573.892578125 424.573242188 542.323242188 440.3125 500.809570312 440.3125 c 0
500.809570312 385.306640625 m 0
 525.37109375 383.922851562 543.1015625 372.681640625 553.999023438 351.578125 c 0
 564.896484375 330.475585938 570.692382812 300.55078125 571.383789062 261.8046875 c 0
 571.383789062 227.90234375 568.09765625 201.608398438 561.524414062 182.927734375 c 1
 535.579101562 223.921875 l 1
 488.875976562 192.787109375 l 1
 520.010742188 141.4140625 l 1
 514.821289062 138.9921875 508.420898438 137.78125 500.809570312 137.78125 c 0
 500.406984008 137.775646686 500.006228141 137.772845026 499.607302701 137.772845026 c 0
 475.324524426 137.772845026 457.823866519 148.153591902 447.102539062 168.916015625 c 0
 436.205078125 190.018554688 430.756835938 220.982421875 430.756835938 261.8046875 c 0
 431.102539062 298.12890625 436.809570312 327.793945312 447.879882812 350.798828125 c 0
 458.950195312 373.8046875 476.592773438 385.306640625 500.809570312 385.306640625 c 0
EndSplineSet
Validated: 5
EndChar

StartChar: R
Encoding: 82 82 18
Width: 1000
HStem: 292.33 88.6582<446.427 557.524> 439.555 104.195<389.472 591.22> 724.094 2.94989<247.343 408.169 575.718 736.974>
VStem: 48.8252 3<129.166 562.654> 69.0742 320.397<249.614 439.456> 446.427 124.119<304.524 368.811> 626.964 304.61<279.64 427.609> 948.828 3<129.166 532.798>
LayerCount: 2
Fore
SplineSet
48.8251953125 401.25 m 0
 48.8251953125 129.412109375 241.413085938 -98.9755859375 500.326171875 -151.53125 c 1
 759.2109375 -98.9814453125 951.828125 129.3828125 951.828125 401.25 c 0
 951.828125 487.20703125 931.908203125 622.604492188 829.73828125 751.734375 c 1
 769.164363443 733.245479429 712.835249481 727.093239724 664.482956401 727.093239724 c 0
 568.281507601 727.093239724 503.656189801 751.446792319 499.999550594 751.446792319 c 0
 497.819672621 751.446792319 430.687599765 727.044388538 335.703516577 727.044388538 c 0
 284.219697464 727.044388538 228.659505523 734.108745886 170.9140625 751.734375 c 1
 143.68359375 717.318359375 48.8251953125 593.043945312 48.8251953125 401.25 c 0
500.326171875 -148.469726562 m 1
 244.404296875 -96.375 51.8251953125 129.943359375 51.8251953125 401.25 c 0
 51.8251953125 532.263671875 96.734375 652.788085938 171.997070312 748.267578125 c 1
 194.121661625 741.559163245 254.578454531 724.094496785 336.220980821 724.094496785 c 0
 384.658994327 724.094496785 440.554336446 730.24201854 500.326171875 748.430664062 c 1
 522.480517123 741.689132437 583.154560557 724.093873153 665.096293754 724.093873153 c 0
 713.402839117 724.093873153 769.100704143 730.20888552 828.655273438 748.267578125 c 1
 903.919921875 652.788085938 948.828125 532.263671875 948.828125 401.25 c 0
 948.828125 129.943359375 756.248046875 -96.375 500.326171875 -148.469726562 c 1
335.891601562 727.084960938 m 0
 240.107421875 727.084960938 174.219726562 751.500976562 171.455078125 751.500976562 c 0
 170.977539062 751.500976562 170.552734375 751.27734375 170.27734375 750.930664062 c 0
 94.228515625 654.811523438 48.8251953125 533.33203125 48.8251953125 401.25 c 0
 48.8251953125 128.388671875 242.5859375 -99.2138671875 500.026367188 -151.470703125 c 0
 500.133789062 -151.4921875 500.35546875 -151.525390625 500.625976562 -151.470703125 c 0
 758.06640625 -99.2138671875 951.828125 128.388671875 951.828125 401.25 c 0
 951.828125 533.33203125 906.42578125 654.811523438 830.375 750.930664062 c 0
 830.099609375 751.27734375 829.674804688 751.500976562 829.198242188 751.500976562 c 0
 826.43359375 751.500976562 760.544921875 727.084960938 664.76171875 727.084960938 c 0
 568.981445312 727.084960938 503.091796875 751.499023438 500.326171875 751.499023438 c 0
 497.551757812 751.499023438 431.6796875 727.084960938 335.891601562 727.084960938 c 0
500.326171875 -148.469726562 m 1
 244.404296875 -96.375 51.8251953125 129.943359375 51.8251953125 401.25 c 0
 51.8251953125 532.263671875 96.734375 652.788085938 171.997070312 748.267578125 c 1
 194.121661625 741.559163245 254.578454531 724.094496785 336.220980821 724.094496785 c 0
 384.658994327 724.094496785 440.554336446 730.24201854 500.326171875 748.430664062 c 1
 522.480517123 741.689132437 583.154560557 724.093873153 665.096293754 724.093873153 c 0
 713.402839117 724.093873153 769.100704143 730.20888552 828.655273438 748.267578125 c 1
 903.919921875 652.788085938 948.828125 532.263671875 948.828125 401.25 c 0
 948.828125 129.943359375 756.248046875 -96.375 500.326171875 -148.469726562 c 1
87.224609375 543.75 m 1
 913.42578125 543.75 l 1
 925.264648438 498.9453125 931.57421875 451.880859375 931.57421875 403.337890625 c 0
 931.57421875 140.572265625 746.706054688 -78.8720703125 500.325195312 -131.249023438 c 1
 253.944335938 -78.8720703125 69.07421875 140.572265625 69.07421875 403.337890625 c 0
 69.07421875 451.880859375 75.3837890625 498.9453125 87.224609375 543.75 c 1
389.471679688 439.5546875 m 1
 389.471679688 79.5546875 l 1
 446.426757812 79.5546875 l 1
 446.426757812 235.912109375 l 1
 514.665039062 235.912109375 l 1
 572.696289062 79.5546875 l 1
 634.487304688 79.5546875 l 1
 571.083007812 247.734375 l 1
 587.560546875 255.256835938 600.994140625 267.5234375 611.381835938 284.5390625 c 0
 621.76953125 301.553710938 626.963867188 319.5546875 626.963867188 338.5390625 c 0
 626.963867188 363.614257812 618.45703125 386.62890625 601.442382812 407.583984375 c 0
 584.427734375 428.5390625 561.233398438 439.196289062 531.860351562 439.5546875 c 2
 389.471679688 439.5546875 l 1
446.426757812 380.98828125 m 1
 529.709960938 380.98828125 l 2
 540.09765625 380.629882812 549.500976562 376.688476562 557.918945312 369.166015625 c 0
 566.336914062 361.643554688 570.545898438 350.8984375 570.545898438 336.927734375 c 0
 570.545898438 322.958007812 566.78515625 312.033203125 559.262695312 304.15234375 c 0
 551.740234375 296.271484375 542.606445312 292.330078125 531.860351562 292.330078125 c 2
 446.426757812 292.330078125 l 1
 446.426757812 380.98828125 l 1
EndSplineSet
Validated: 5
EndChar

StartChar: T
Encoding: 84 84 19
Width: 1000
HStem: 440.898 102.853<389.54 611.988> 724.094 2.94989<247.343 408.169 575.718 736.974>
VStem: 48.8252 3<129.166 562.654> 948.828 3<129.166 532.798>
LayerCount: 2
Fore
SplineSet
48.8251953125 401.25 m 0
 48.8251953125 129.412109375 241.413085938 -98.9755859375 500.326171875 -151.53125 c 1
 759.2109375 -98.9814453125 951.828125 129.3828125 951.828125 401.25 c 0
 951.828125 487.20703125 931.908203125 622.604492188 829.73828125 751.734375 c 1
 769.164363443 733.245479429 712.835249481 727.093239724 664.482956401 727.093239724 c 0
 568.281507601 727.093239724 503.656189801 751.446792319 499.999550594 751.446792319 c 0
 497.819672621 751.446792319 430.687599765 727.044388538 335.703516577 727.044388538 c 0
 284.219697464 727.044388538 228.659505523 734.108745886 170.9140625 751.734375 c 1
 143.68359375 717.318359375 48.8251953125 593.043945312 48.8251953125 401.25 c 0
500.326171875 -148.469726562 m 1
 244.404296875 -96.375 51.8251953125 129.943359375 51.8251953125 401.25 c 0
 51.8251953125 532.263671875 96.734375 652.788085938 171.997070312 748.267578125 c 1
 194.121661625 741.559163245 254.578454531 724.094496785 336.220980821 724.094496785 c 0
 384.658994327 724.094496785 440.554336446 730.24201854 500.326171875 748.430664062 c 1
 522.480517123 741.689132437 583.154560557 724.093873153 665.096293754 724.093873153 c 0
 713.402839117 724.093873153 769.100704143 730.20888552 828.655273438 748.267578125 c 1
 903.919921875 652.788085938 948.828125 532.263671875 948.828125 401.25 c 0
 948.828125 129.943359375 756.248046875 -96.375 500.326171875 -148.469726562 c 1
335.891601562 727.084960938 m 0
 240.107421875 727.084960938 174.219726562 751.500976562 171.455078125 751.500976562 c 0
 170.977539062 751.500976562 170.552734375 751.27734375 170.27734375 750.930664062 c 0
 94.228515625 654.811523438 48.8251953125 533.33203125 48.8251953125 401.25 c 0
 48.8251953125 128.388671875 242.5859375 -99.2138671875 500.026367188 -151.470703125 c 0
 500.133789062 -151.4921875 500.35546875 -151.525390625 500.625976562 -151.470703125 c 0
 758.06640625 -99.2138671875 951.828125 128.388671875 951.828125 401.25 c 0
 951.828125 533.33203125 906.42578125 654.811523438 830.375 750.930664062 c 0
 830.099609375 751.27734375 829.674804688 751.500976562 829.198242188 751.500976562 c 0
 826.43359375 751.500976562 760.544921875 727.084960938 664.76171875 727.084960938 c 0
 568.981445312 727.084960938 503.091796875 751.499023438 500.326171875 751.499023438 c 0
 497.551757812 751.499023438 431.6796875 727.084960938 335.891601562 727.084960938 c 0
500.326171875 -148.469726562 m 1
 244.404296875 -96.375 51.8251953125 129.943359375 51.8251953125 401.25 c 0
 51.8251953125 532.263671875 96.734375 652.788085938 171.997070312 748.267578125 c 1
 194.121661625 741.559163245 254.578454531 724.094496785 336.220980821 724.094496785 c 0
 384.658994327 724.094496785 440.554336446 730.24201854 500.326171875 748.430664062 c 1
 522.480517123 741.689132437 583.154560557 724.093873153 665.096293754 724.093873153 c 0
 713.402839117 724.093873153 769.100704143 730.20888552 828.655273438 748.267578125 c 1
 903.919921875 652.788085938 948.828125 532.263671875 948.828125 401.25 c 0
 948.828125 129.943359375 756.248046875 -96.375 500.326171875 -148.469726562 c 1
69.0751953125 403.338867188 m 0
 69.0751953125 451.880859375 75.3837890625 498.9453125 87.224609375 543.750976562 c 1
 913.42578125 543.750976562 l 1
 925.264648438 498.9453125 931.57421875 451.880859375 931.57421875 403.338867188 c 0
 931.57421875 140.573242188 746.706054688 -78.8720703125 500.32421875 -131.249023438 c 1
 253.943359375 -78.8720703125 69.0751953125 140.573242188 69.0751953125 403.338867188 c 0
611.98828125 390.390625 m 1
 611.98828125 440.8984375 l 1
 389.540039062 440.8984375 l 1
 389.540039062 390.390625 l 1
 471.749023438 390.390625 l 1
 471.749023438 80.8974609375 l 1
 528.705078125 80.8974609375 l 1
 528.705078125 390.390625 l 1
 611.98828125 390.390625 l 1
EndSplineSet
Validated: 5
EndChar

StartChar: U
Encoding: 85 85 20
Width: 1000
HStem: 440.355 103.395<381.083 437.036 565.833 621.786> 724.094 2.94989<247.343 408.169 575.718 736.974>
VStem: 48.8252 3<129.166 562.654> 69.0742 312.009<249.614 439.456> 437.036 128.797<158.87 440.355> 621.786 309.788<249.614 439.456> 948.828 3<129.166 532.798>
LayerCount: 2
Fore
SplineSet
48.8251953125 401.25 m 0
 48.8251953125 129.412109375 241.413085938 -98.9755859375 500.326171875 -151.53125 c 1
 759.2109375 -98.9814453125 951.828125 129.3828125 951.828125 401.25 c 0
 951.828125 487.20703125 931.908203125 622.604492188 829.73828125 751.734375 c 1
 769.164363443 733.245479429 712.835249481 727.093239724 664.482956401 727.093239724 c 0
 568.281507601 727.093239724 503.656189801 751.446792319 499.999550594 751.446792319 c 0
 497.819672621 751.446792319 430.687599765 727.044388538 335.703516577 727.044388538 c 0
 284.219697464 727.044388538 228.659505523 734.108745886 170.9140625 751.734375 c 1
 143.68359375 717.318359375 48.8251953125 593.043945312 48.8251953125 401.25 c 0
500.326171875 -148.469726562 m 1
 244.404296875 -96.375 51.8251953125 129.943359375 51.8251953125 401.25 c 0
 51.8251953125 532.263671875 96.734375 652.788085938 171.997070312 748.267578125 c 1
 194.121661625 741.559163245 254.578454531 724.094496785 336.220980821 724.094496785 c 0
 384.658994327 724.094496785 440.554336446 730.24201854 500.326171875 748.430664062 c 1
 522.480517123 741.689132437 583.154560557 724.093873153 665.096293754 724.093873153 c 0
 713.402839117 724.093873153 769.100704143 730.20888552 828.655273438 748.267578125 c 1
 903.919921875 652.788085938 948.828125 532.263671875 948.828125 401.25 c 0
 948.828125 129.943359375 756.248046875 -96.375 500.326171875 -148.469726562 c 1
335.891601562 727.084960938 m 0
 240.107421875 727.084960938 174.219726562 751.500976562 171.455078125 751.500976562 c 0
 170.977539062 751.500976562 170.552734375 751.27734375 170.27734375 750.930664062 c 0
 94.228515625 654.811523438 48.8251953125 533.33203125 48.8251953125 401.25 c 0
 48.8251953125 128.388671875 242.5859375 -99.2138671875 500.026367188 -151.470703125 c 0
 500.133789062 -151.4921875 500.35546875 -151.525390625 500.625976562 -151.470703125 c 0
 758.06640625 -99.2138671875 951.828125 128.388671875 951.828125 401.25 c 0
 951.828125 533.33203125 906.42578125 654.811523438 830.375 750.930664062 c 0
 830.099609375 751.27734375 829.674804688 751.500976562 829.198242188 751.500976562 c 0
 826.43359375 751.500976562 760.544921875 727.084960938 664.76171875 727.084960938 c 0
 568.981445312 727.084960938 503.091796875 751.499023438 500.326171875 751.499023438 c 0
 497.551757812 751.499023438 431.6796875 727.084960938 335.891601562 727.084960938 c 0
500.326171875 -148.469726562 m 1
 244.404296875 -96.375 51.8251953125 129.943359375 51.8251953125 401.25 c 0
 51.8251953125 532.263671875 96.734375 652.788085938 171.997070312 748.267578125 c 1
 194.121661625 741.559163245 254.578454531 724.094496785 336.220980821 724.094496785 c 0
 384.658994327 724.094496785 440.554336446 730.24201854 500.326171875 748.430664062 c 1
 522.480517123 741.689132437 583.154560557 724.093873153 665.096293754 724.093873153 c 0
 713.402839117 724.093873153 769.100704143 730.20888552 828.655273438 748.267578125 c 1
 903.919921875 652.788085938 948.828125 532.263671875 948.828125 401.25 c 0
 948.828125 129.943359375 756.248046875 -96.375 500.326171875 -148.469726562 c 1
87.224609375 543.75 m 1
 913.42578125 543.75 l 1
 925.264648438 498.9453125 931.57421875 451.880859375 931.57421875 403.337890625 c 0
 931.57421875 140.572265625 746.706054688 -78.8720703125 500.325195312 -131.249023438 c 1
 253.944335938 -78.8720703125 69.07421875 140.572265625 69.07421875 403.337890625 c 0
 69.07421875 451.880859375 75.3837890625 498.9453125 87.224609375 543.75 c 1
381.083007812 440.35546875 m 1
 381.083007812 213.375 l 2
 381.083007812 185.57421875 386.361328125 161.118164062 396.918945312 140.00390625 c 0
 406.068359375 122.408203125 420.319335938 108.067382812 439.674804688 96.982421875 c 0
 459.029296875 85.8974609375 479.616210938 80.35546875 501.434570312 80.35546875 c 0
 523.251953125 80.35546875 543.838867188 85.8974609375 563.194335938 96.982421875 c 0
 582.548828125 108.067382812 596.625 122.408203125 605.422851562 140.00390625 c 0
 616.33203125 161.118164062 621.786132812 185.57421875 621.786132812 213.375 c 2
 621.786132812 440.35546875 l 1
 565.833007812 440.35546875 l 1
 565.833007812 213.375 l 2
 565.833007812 190.500976562 559.938476562 172.114257812 548.149414062 158.21484375 c 0
 536.360351562 144.314453125 520.7890625 137.36328125 501.434570312 137.36328125 c 0
 482.079101562 137.36328125 466.5078125 144.314453125 454.719726562 158.21484375 c 0
 442.930664062 172.114257812 437.036132812 190.500976562 437.036132812 213.375 c 2
 437.036132812 440.35546875 l 1
 381.083007812 440.35546875 l 1
EndSplineSet
Validated: 5
EndChar

StartChar: V
Encoding: 86 86 21
Width: 1000
HStem: 439.227 104.523<365.146 424.788 577.384 638.101> 724.094 2.94989<247.343 408.169 575.718 736.974>
VStem: 48.8252 3<129.166 562.654> 948.828 3<129.166 532.798>
LayerCount: 2
Fore
SplineSet
48.8251953125 401.25 m 0
 48.8251953125 129.412109375 241.413085938 -98.9755859375 500.326171875 -151.53125 c 1
 759.2109375 -98.9814453125 951.828125 129.3828125 951.828125 401.25 c 0
 951.828125 487.20703125 931.908203125 622.604492188 829.73828125 751.734375 c 1
 769.164363443 733.245479429 712.835249481 727.093239724 664.482956401 727.093239724 c 0
 568.281507601 727.093239724 503.656189801 751.446792319 499.999550594 751.446792319 c 0
 497.819672621 751.446792319 430.687599765 727.044388538 335.703516577 727.044388538 c 0
 284.219697464 727.044388538 228.659505523 734.108745886 170.9140625 751.734375 c 1
 143.68359375 717.318359375 48.8251953125 593.043945312 48.8251953125 401.25 c 0
500.326171875 -148.469726562 m 1
 244.404296875 -96.375 51.8251953125 129.943359375 51.8251953125 401.25 c 0
 51.8251953125 532.263671875 96.734375 652.788085938 171.997070312 748.267578125 c 1
 194.121661625 741.559163245 254.578454531 724.094496785 336.220980821 724.094496785 c 0
 384.658994327 724.094496785 440.554336446 730.24201854 500.326171875 748.430664062 c 1
 522.480517123 741.689132437 583.154560557 724.093873153 665.096293754 724.093873153 c 0
 713.402839117 724.093873153 769.100704143 730.20888552 828.655273438 748.267578125 c 1
 903.919921875 652.788085938 948.828125 532.263671875 948.828125 401.25 c 0
 948.828125 129.943359375 756.248046875 -96.375 500.326171875 -148.469726562 c 1
335.891601562 727.084960938 m 0
 240.107421875 727.084960938 174.219726562 751.500976562 171.455078125 751.500976562 c 0
 170.977539062 751.500976562 170.552734375 751.27734375 170.27734375 750.930664062 c 0
 94.228515625 654.811523438 48.8251953125 533.33203125 48.8251953125 401.25 c 0
 48.8251953125 128.388671875 242.5859375 -99.2138671875 500.026367188 -151.470703125 c 0
 500.133789062 -151.4921875 500.35546875 -151.525390625 500.625976562 -151.470703125 c 0
 758.06640625 -99.2138671875 951.828125 128.388671875 951.828125 401.25 c 0
 951.828125 533.33203125 906.42578125 654.811523438 830.375 750.930664062 c 0
 830.099609375 751.27734375 829.674804688 751.500976562 829.198242188 751.500976562 c 0
 826.43359375 751.500976562 760.544921875 727.084960938 664.76171875 727.084960938 c 0
 568.981445312 727.084960938 503.091796875 751.499023438 500.326171875 751.499023438 c 0
 497.551757812 751.499023438 431.6796875 727.084960938 335.891601562 727.084960938 c 0
500.326171875 -148.469726562 m 1
 244.404296875 -96.375 51.8251953125 129.943359375 51.8251953125 401.25 c 0
 51.8251953125 532.263671875 96.734375 652.788085938 171.997070312 748.267578125 c 1
 194.121661625 741.559163245 254.578454531 724.094496785 336.220980821 724.094496785 c 0
 384.658994327 724.094496785 440.554336446 730.24201854 500.326171875 748.430664062 c 1
 522.480517123 741.689132437 583.154560557 724.093873153 665.096293754 724.093873153 c 0
 713.402839117 724.093873153 769.100704143 730.20888552 828.655273438 748.267578125 c 1
 903.919921875 652.788085938 948.828125 532.263671875 948.828125 401.25 c 0
 948.828125 129.943359375 756.248046875 -96.375 500.326171875 -148.469726562 c 1
87.224609375 543.75 m 1
 913.42578125 543.75 l 1
 925.264648438 498.9453125 931.57421875 451.880859375 931.57421875 403.337890625 c 0
 931.57421875 140.572265625 746.706054688 -78.8720703125 500.325195312 -131.249023438 c 1
 253.944335938 -78.8720703125 69.07421875 140.572265625 69.07421875 403.337890625 c 0
 69.07421875 451.880859375 75.3837890625 498.9453125 87.224609375 543.75 c 1
365.145507812 439.2265625 m 1
 474.756835938 79.2265625 l 1
 526.877929688 79.2265625 l 1
 638.100585938 439.2265625 l 1
 577.383789062 439.2265625 l 1
 501.624023438 199.046875 l 1
 424.788085938 439.2265625 l 1
 365.145507812 439.2265625 l 1
EndSplineSet
Validated: 5
EndChar

StartChar: W
Encoding: 87 87 22
Width: 1000
HStem: 440.898 102.852<342.007 400.036 473.647 528.991 603.679 661.708> 724.094 2.94989<247.343 408.169 575.718 736.974>
VStem: 48.8252 3<129.166 562.654> 948.828 3<129.166 532.798>
LayerCount: 2
Fore
SplineSet
48.8251953125 401.25 m 0
 48.8251953125 129.412109375 241.413085938 -98.9755859375 500.326171875 -151.53125 c 1
 759.2109375 -98.9814453125 951.828125 129.3828125 951.828125 401.25 c 0
 951.828125 487.20703125 931.908203125 622.604492188 829.73828125 751.734375 c 1
 769.164363443 733.245479429 712.835249481 727.093239724 664.482956401 727.093239724 c 0
 568.281507601 727.093239724 503.656189801 751.446792319 499.999550594 751.446792319 c 0
 497.819672621 751.446792319 430.687599765 727.044388538 335.703516577 727.044388538 c 0
 284.219697464 727.044388538 228.659505523 734.108745886 170.9140625 751.734375 c 1
 143.68359375 717.318359375 48.8251953125 593.043945312 48.8251953125 401.25 c 0
500.326171875 -148.469726562 m 1
 244.404296875 -96.375 51.8251953125 129.943359375 51.8251953125 401.25 c 0
 51.8251953125 532.263671875 96.734375 652.788085938 171.997070312 748.267578125 c 1
 194.121661625 741.559163245 254.578454531 724.094496785 336.220980821 724.094496785 c 0
 384.658994327 724.094496785 440.554336446 730.24201854 500.326171875 748.430664062 c 1
 522.480517123 741.689132437 583.154560557 724.093873153 665.096293754 724.093873153 c 0
 713.402839117 724.093873153 769.100704143 730.20888552 828.655273438 748.267578125 c 1
 903.919921875 652.788085938 948.828125 532.263671875 948.828125 401.25 c 0
 948.828125 129.943359375 756.248046875 -96.375 500.326171875 -148.469726562 c 1
335.891601562 727.084960938 m 0
 240.107421875 727.084960938 174.219726562 751.500976562 171.455078125 751.500976562 c 0
 170.977539062 751.500976562 170.552734375 751.27734375 170.27734375 750.930664062 c 0
 94.228515625 654.811523438 48.8251953125 533.33203125 48.8251953125 401.25 c 0
 48.8251953125 128.388671875 242.5859375 -99.2138671875 500.026367188 -151.470703125 c 0
 500.133789062 -151.4921875 500.35546875 -151.525390625 500.625976562 -151.470703125 c 0
 758.06640625 -99.2138671875 951.828125 128.388671875 951.828125 401.25 c 0
 951.828125 533.33203125 906.42578125 654.811523438 830.375 750.930664062 c 0
 830.099609375 751.27734375 829.674804688 751.500976562 829.198242188 751.500976562 c 0
 826.43359375 751.500976562 760.544921875 727.084960938 664.76171875 727.084960938 c 0
 568.981445312 727.084960938 503.091796875 751.499023438 500.326171875 751.499023438 c 0
 497.551757812 751.499023438 431.6796875 727.084960938 335.891601562 727.084960938 c 0
500.326171875 -148.469726562 m 1
 244.404296875 -96.375 51.8251953125 129.943359375 51.8251953125 401.25 c 0
 51.8251953125 532.263671875 96.734375 652.788085938 171.997070312 748.267578125 c 1
 194.121661625 741.559163245 254.578454531 724.094496785 336.220980821 724.094496785 c 0
 384.658994327 724.094496785 440.554336446 730.24201854 500.326171875 748.430664062 c 1
 522.480517123 741.689132437 583.154560557 724.093873153 665.096293754 724.093873153 c 0
 713.402839117 724.093873153 769.100704143 730.20888552 828.655273438 748.267578125 c 1
 903.919921875 652.788085938 948.828125 532.263671875 948.828125 401.25 c 0
 948.828125 129.943359375 756.248046875 -96.375 500.326171875 -148.469726562 c 1
87.224609375 543.75 m 1
 913.42578125 543.75 l 1
 925.264648438 498.9453125 931.57421875 451.880859375 931.57421875 403.337890625 c 0
 931.57421875 140.572265625 746.706054688 -78.8720703125 500.325195312 -131.249023438 c 1
 253.944335938 -78.8720703125 69.07421875 140.572265625 69.07421875 403.337890625 c 0
 69.07421875 451.880859375 75.3837890625 498.9453125 87.224609375 543.75 c 1
342.006835938 440.8984375 m 1
 395.200195312 80.8984375 l 1
 445.708007812 80.8984375 l 1
 501.051757812 311.943359375 l 1
 558.006835938 80.8984375 l 1
 608.514648438 80.8984375 l 1
 661.708007812 440.8984375 l 1
 603.678710938 440.8984375 l 1
 575.737304688 251.2265625 l 1
 528.991210938 440.8984375 l 1
 473.647460938 440.8984375 l 1
 427.975585938 251.2265625 l 1
 400.036132812 440.8984375 l 1
 342.006835938 440.8984375 l 1
EndSplineSet
Validated: 5
EndChar

StartChar: X
Encoding: 88 88 23
Width: 1000
HStem: 441.227 102.523<383.827 447.769 551.47 615.948> 724.094 2.94989<247.343 408.169 575.718 736.974>
VStem: 48.8252 3<129.166 562.654> 948.828 3<129.166 532.798>
LayerCount: 2
Fore
SplineSet
48.8251953125 401.25 m 0
 48.8251953125 129.412109375 241.413085938 -98.9755859375 500.326171875 -151.53125 c 1
 759.2109375 -98.9814453125 951.828125 129.3828125 951.828125 401.25 c 0
 951.828125 487.20703125 931.908203125 622.604492188 829.73828125 751.734375 c 1
 769.164363443 733.245479429 712.835249481 727.093239724 664.482956401 727.093239724 c 0
 568.281507601 727.093239724 503.656189801 751.446792319 499.999550594 751.446792319 c 0
 497.819672621 751.446792319 430.687599765 727.044388538 335.703516577 727.044388538 c 0
 284.219697464 727.044388538 228.659505523 734.108745886 170.9140625 751.734375 c 1
 143.68359375 717.318359375 48.8251953125 593.043945312 48.8251953125 401.25 c 0
500.326171875 -148.469726562 m 1
 244.404296875 -96.375 51.8251953125 129.943359375 51.8251953125 401.25 c 0
 51.8251953125 532.263671875 96.734375 652.788085938 171.997070312 748.267578125 c 1
 194.121661625 741.559163245 254.578454531 724.094496785 336.220980821 724.094496785 c 0
 384.658994327 724.094496785 440.554336446 730.24201854 500.326171875 748.430664062 c 1
 522.480517123 741.689132437 583.154560557 724.093873153 665.096293754 724.093873153 c 0
 713.402839117 724.093873153 769.100704143 730.20888552 828.655273438 748.267578125 c 1
 903.919921875 652.788085938 948.828125 532.263671875 948.828125 401.25 c 0
 948.828125 129.943359375 756.248046875 -96.375 500.326171875 -148.469726562 c 1
335.891601562 727.084960938 m 0
 240.107421875 727.084960938 174.219726562 751.500976562 171.455078125 751.500976562 c 0
 170.977539062 751.500976562 170.552734375 751.27734375 170.27734375 750.930664062 c 0
 94.228515625 654.811523438 48.8251953125 533.33203125 48.8251953125 401.25 c 0
 48.8251953125 128.388671875 242.5859375 -99.2138671875 500.026367188 -151.470703125 c 0
 500.133789062 -151.4921875 500.35546875 -151.525390625 500.625976562 -151.470703125 c 0
 758.06640625 -99.2138671875 951.828125 128.388671875 951.828125 401.25 c 0
 951.828125 533.33203125 906.42578125 654.811523438 830.375 750.930664062 c 0
 830.099609375 751.27734375 829.674804688 751.500976562 829.198242188 751.500976562 c 0
 826.43359375 751.500976562 760.544921875 727.084960938 664.76171875 727.084960938 c 0
 568.981445312 727.084960938 503.091796875 751.499023438 500.326171875 751.499023438 c 0
 497.551757812 751.499023438 431.6796875 727.084960938 335.891601562 727.084960938 c 0
500.326171875 -148.469726562 m 1
 244.404296875 -96.375 51.8251953125 129.943359375 51.8251953125 401.25 c 0
 51.8251953125 532.263671875 96.734375 652.788085938 171.997070312 748.267578125 c 1
 194.121661625 741.559163245 254.578454531 724.094496785 336.220980821 724.094496785 c 0
 384.658994327 724.094496785 440.554336446 730.24201854 500.326171875 748.430664062 c 1
 522.480517123 741.689132437 583.154560557 724.093873153 665.096293754 724.093873153 c 0
 713.402839117 724.093873153 769.100704143 730.20888552 828.655273438 748.267578125 c 1
 903.919921875 652.788085938 948.828125 532.263671875 948.828125 401.25 c 0
 948.828125 129.943359375 756.248046875 -96.375 500.326171875 -148.469726562 c 1
87.224609375 543.75 m 1
 913.42578125 543.75 l 1
 925.264648438 498.9453125 931.57421875 451.880859375 931.57421875 403.337890625 c 0
 931.57421875 140.572265625 746.706054688 -78.8720703125 500.325195312 -131.249023438 c 1
 253.944335938 -78.8720703125 69.07421875 140.572265625 69.07421875 403.337890625 c 0
 69.07421875 451.880859375 75.3837890625 498.9453125 87.224609375 543.75 c 1
383.827148438 441.2265625 m 1
 467.112304688 266.599609375 l 1
 377.379882812 81.2265625 l 1
 441.858398438 81.2265625 l 1
 499.887695312 201.046875 l 1
 557.916992188 81.2265625 l 1
 622.395507812 81.2265625 l 1
 531.588867188 266.599609375 l 1
 615.948242188 441.2265625 l 1
 551.469726562 441.2265625 l 1
 499.887695312 333.763671875 l 1
 447.768554688 441.2265625 l 1
 383.827148438 441.2265625 l 1
EndSplineSet
Validated: 5
EndChar

StartChar: Y
Encoding: 89 89 24
Width: 1000
HStem: 439.227 104.523<347.239 415.479 588.493 655.12> 724.094 2.94989<247.343 408.169 575.718 736.974>
VStem: 48.8252 3<129.166 562.654> 69.0742 404.435<140.572 235.584> 530.464 401.11<140.572 235.584> 948.828 3<129.166 532.798>
LayerCount: 2
Fore
SplineSet
48.8251953125 401.25 m 0
 48.8251953125 129.412109375 241.413085938 -98.9755859375 500.326171875 -151.53125 c 1
 759.2109375 -98.9814453125 951.828125 129.3828125 951.828125 401.25 c 0
 951.828125 487.20703125 931.908203125 622.604492188 829.73828125 751.734375 c 1
 769.164363443 733.245479429 712.835249481 727.093239724 664.482956401 727.093239724 c 0
 568.281507601 727.093239724 503.656189801 751.446792319 499.999550594 751.446792319 c 0
 497.819672621 751.446792319 430.687599765 727.044388538 335.703516577 727.044388538 c 0
 284.219697464 727.044388538 228.659505523 734.108745886 170.9140625 751.734375 c 1
 143.68359375 717.318359375 48.8251953125 593.043945312 48.8251953125 401.25 c 0
500.326171875 -148.469726562 m 1
 244.404296875 -96.375 51.8251953125 129.943359375 51.8251953125 401.25 c 0
 51.8251953125 532.263671875 96.734375 652.788085938 171.997070312 748.267578125 c 1
 194.121661625 741.559163245 254.578454531 724.094496785 336.220980821 724.094496785 c 0
 384.658994327 724.094496785 440.554336446 730.24201854 500.326171875 748.430664062 c 1
 522.480517123 741.689132437 583.154560557 724.093873153 665.096293754 724.093873153 c 0
 713.402839117 724.093873153 769.100704143 730.20888552 828.655273438 748.267578125 c 1
 903.919921875 652.788085938 948.828125 532.263671875 948.828125 401.25 c 0
 948.828125 129.943359375 756.248046875 -96.375 500.326171875 -148.469726562 c 1
335.891601562 727.084960938 m 0
 240.107421875 727.084960938 174.219726562 751.500976562 171.455078125 751.500976562 c 0
 170.977539062 751.500976562 170.552734375 751.27734375 170.27734375 750.930664062 c 0
 94.228515625 654.811523438 48.8251953125 533.33203125 48.8251953125 401.25 c 0
 48.8251953125 128.388671875 242.5859375 -99.2138671875 500.026367188 -151.470703125 c 0
 500.133789062 -151.4921875 500.35546875 -151.525390625 500.625976562 -151.470703125 c 0
 758.06640625 -99.2138671875 951.828125 128.388671875 951.828125 401.25 c 0
 951.828125 533.33203125 906.42578125 654.811523438 830.375 750.930664062 c 0
 830.099609375 751.27734375 829.674804688 751.500976562 829.198242188 751.500976562 c 0
 826.43359375 751.500976562 760.544921875 727.084960938 664.76171875 727.084960938 c 0
 568.981445312 727.084960938 503.091796875 751.499023438 500.326171875 751.499023438 c 0
 497.551757812 751.499023438 431.6796875 727.084960938 335.891601562 727.084960938 c 0
500.326171875 -148.469726562 m 1
 244.404296875 -96.375 51.8251953125 129.943359375 51.8251953125 401.25 c 0
 51.8251953125 532.263671875 96.734375 652.788085938 171.997070312 748.267578125 c 1
 194.121661625 741.559163245 254.578454531 724.094496785 336.220980821 724.094496785 c 0
 384.658994327 724.094496785 440.554336446 730.24201854 500.326171875 748.430664062 c 1
 522.480517123 741.689132437 583.154560557 724.093873153 665.096293754 724.093873153 c 0
 713.402839117 724.093873153 769.100704143 730.20888552 828.655273438 748.267578125 c 1
 903.919921875 652.788085938 948.828125 532.263671875 948.828125 401.25 c 0
 948.828125 129.943359375 756.248046875 -96.375 500.326171875 -148.469726562 c 1
87.224609375 543.75 m 1
 913.42578125 543.75 l 1
 925.264648438 498.9453125 931.57421875 451.880859375 931.57421875 403.337890625 c 0
 931.57421875 140.572265625 746.706054688 -78.8720703125 500.325195312 -131.249023438 c 1
 253.944335938 -78.8720703125 69.07421875 140.572265625 69.07421875 403.337890625 c 0
 69.07421875 451.880859375 75.3837890625 498.9453125 87.224609375 543.75 c 1
347.239257812 439.2265625 m 1
 473.508789062 235.583984375 l 1
 473.508789062 79.2265625 l 1
 530.463867188 79.2265625 l 1
 530.463867188 235.583984375 l 1
 655.120117188 439.2265625 l 1
 588.493164062 439.2265625 l 1
 501.448242188 300.0625 l 1
 415.479492188 439.2265625 l 1
 347.239257812 439.2265625 l 1
EndSplineSet
Validated: 5
EndChar

StartChar: Z
Encoding: 90 90 25
Width: 1000
HStem: 439.555 104.195<387.351 618.396> 724.094 2.94989<247.343 408.169 575.718 736.974>
VStem: 48.8252 3<129.166 562.654> 948.828 3<129.166 532.798>
LayerCount: 2
Fore
SplineSet
48.8251953125 401.25 m 0
 48.8251953125 129.412109375 241.413085938 -98.9755859375 500.326171875 -151.53125 c 1
 759.2109375 -98.9814453125 951.828125 129.3828125 951.828125 401.25 c 0
 951.828125 487.20703125 931.908203125 622.604492188 829.73828125 751.734375 c 1
 769.164363443 733.245479429 712.835249481 727.093239724 664.482956401 727.093239724 c 0
 568.281507601 727.093239724 503.656189801 751.446792319 499.999550594 751.446792319 c 0
 497.819672621 751.446792319 430.687599765 727.044388538 335.703516577 727.044388538 c 0
 284.219697464 727.044388538 228.659505523 734.108745886 170.9140625 751.734375 c 1
 143.68359375 717.318359375 48.8251953125 593.043945312 48.8251953125 401.25 c 0
500.326171875 -148.469726562 m 1
 244.404296875 -96.375 51.8251953125 129.943359375 51.8251953125 401.25 c 0
 51.8251953125 532.263671875 96.734375 652.788085938 171.997070312 748.267578125 c 1
 194.121661625 741.559163245 254.578454531 724.094496785 336.220980821 724.094496785 c 0
 384.658994327 724.094496785 440.554336446 730.24201854 500.326171875 748.430664062 c 1
 522.480517123 741.689132437 583.154560557 724.093873153 665.096293754 724.093873153 c 0
 713.402839117 724.093873153 769.100704143 730.20888552 828.655273438 748.267578125 c 1
 903.919921875 652.788085938 948.828125 532.263671875 948.828125 401.25 c 0
 948.828125 129.943359375 756.248046875 -96.375 500.326171875 -148.469726562 c 1
335.891601562 727.084960938 m 0
 240.107421875 727.084960938 174.219726562 751.500976562 171.455078125 751.500976562 c 0
 170.977539062 751.500976562 170.552734375 751.27734375 170.27734375 750.930664062 c 0
 94.228515625 654.811523438 48.8251953125 533.33203125 48.8251953125 401.25 c 0
 48.8251953125 128.388671875 242.5859375 -99.2138671875 500.026367188 -151.470703125 c 0
 500.133789062 -151.4921875 500.35546875 -151.525390625 500.625976562 -151.470703125 c 0
 758.06640625 -99.2138671875 951.828125 128.388671875 951.828125 401.25 c 0
 951.828125 533.33203125 906.42578125 654.811523438 830.375 750.930664062 c 0
 830.099609375 751.27734375 829.674804688 751.500976562 829.198242188 751.500976562 c 0
 826.43359375 751.500976562 760.544921875 727.084960938 664.76171875 727.084960938 c 0
 568.981445312 727.084960938 503.091796875 751.499023438 500.326171875 751.499023438 c 0
 497.551757812 751.499023438 431.6796875 727.084960938 335.891601562 727.084960938 c 0
500.326171875 -148.469726562 m 1
 244.404296875 -96.375 51.8251953125 129.943359375 51.8251953125 401.25 c 0
 51.8251953125 532.263671875 96.734375 652.788085938 171.997070312 748.267578125 c 1
 194.121661625 741.559163245 254.578454531 724.094496785 336.220980821 724.094496785 c 0
 384.658994327 724.094496785 440.554336446 730.24201854 500.326171875 748.430664062 c 1
 522.480517123 741.689132437 583.154560557 724.093873153 665.096293754 724.093873153 c 0
 713.402839117 724.093873153 769.100704143 730.20888552 828.655273438 748.267578125 c 1
 903.919921875 652.788085938 948.828125 532.263671875 948.828125 401.25 c 0
 948.828125 129.943359375 756.248046875 -96.375 500.326171875 -148.469726562 c 1
87.224609375 543.75 m 1
 913.42578125 543.75 l 1
 925.264648438 498.9453125 931.57421875 451.880859375 931.57421875 403.337890625 c 0
 931.57421875 140.572265625 746.706054688 -78.8720703125 500.325195312 -131.249023438 c 1
 253.944335938 -78.8720703125 69.07421875 140.572265625 69.07421875 403.337890625 c 0
 69.07421875 451.880859375 75.3837890625 498.9453125 87.224609375 543.75 c 1
387.350585938 439.5546875 m 1
 387.350585938 382.599609375 l 1
 540.485351562 382.599609375 l 1
 373.379882812 131.13671875 l 1
 373.379882812 79.5546875 l 1
 618.395507812 79.5546875 l 1
 618.395507812 137.583984375 l 1
 448.604492188 137.583984375 l 1
 618.395507812 387.435546875 l 1
 618.395507812 439.5546875 l 1
 387.350585938 439.5546875 l 1
EndSplineSet
Validated: 5
EndChar

StartChar: a
Encoding: 97 97 26
Width: 1000
HStem: 126.402 83.5215<464.77 539.662> 261.413 36.2882<443.16 525.596> 349.652 194.098<424.567 568.722> 724.094 2.94989<247.343 408.169 575.718 736.974>
VStem: 48.8252 3<129.166 562.654> 69.0742 333.06<156.695 427.609> 452.038 88.248<141.03 197.463> 948.828 3<129.166 532.798>
LayerCount: 2
Fore
SplineSet
48.8251953125 401.25 m 0
 48.8251953125 129.412109375 241.413085938 -98.9755859375 500.326171875 -151.53125 c 1
 759.2109375 -98.9814453125 951.828125 129.3828125 951.828125 401.25 c 0
 951.828125 487.20703125 931.908203125 622.604492188 829.73828125 751.734375 c 1
 769.164363443 733.245479429 712.835249481 727.093239724 664.482956401 727.093239724 c 0
 568.281507601 727.093239724 503.656189801 751.446792319 499.999550594 751.446792319 c 0
 497.819672621 751.446792319 430.687599765 727.044388538 335.703516577 727.044388538 c 0
 284.219697464 727.044388538 228.659505523 734.108745886 170.9140625 751.734375 c 1
 143.68359375 717.318359375 48.8251953125 593.043945312 48.8251953125 401.25 c 0
500.326171875 -148.469726562 m 1
 244.404296875 -96.375 51.8251953125 129.943359375 51.8251953125 401.25 c 0
 51.8251953125 532.263671875 96.734375 652.788085938 171.997070312 748.267578125 c 1
 194.121661625 741.559163245 254.578454531 724.094496785 336.220980821 724.094496785 c 0
 384.658994327 724.094496785 440.554336446 730.24201854 500.326171875 748.430664062 c 1
 522.480517123 741.689132437 583.154560557 724.093873153 665.096293754 724.093873153 c 0
 713.402839117 724.093873153 769.100704143 730.20888552 828.655273438 748.267578125 c 1
 903.919921875 652.788085938 948.828125 532.263671875 948.828125 401.25 c 0
 948.828125 129.943359375 756.248046875 -96.375 500.326171875 -148.469726562 c 1
335.891601562 727.084960938 m 0
 240.107421875 727.084960938 174.219726562 751.500976562 171.455078125 751.500976562 c 0
 170.977539062 751.500976562 170.552734375 751.27734375 170.27734375 750.930664062 c 0
 94.228515625 654.811523438 48.8251953125 533.33203125 48.8251953125 401.25 c 0
 48.8251953125 128.388671875 242.5859375 -99.2138671875 500.026367188 -151.470703125 c 0
 500.133789062 -151.4921875 500.35546875 -151.525390625 500.625976562 -151.470703125 c 0
 758.06640625 -99.2138671875 951.828125 128.388671875 951.828125 401.25 c 0
 951.828125 533.33203125 906.42578125 654.811523438 830.375 750.930664062 c 0
 830.099609375 751.27734375 829.674804688 751.500976562 829.198242188 751.500976562 c 0
 826.43359375 751.500976562 760.544921875 727.084960938 664.76171875 727.084960938 c 0
 568.981445312 727.084960938 503.091796875 751.499023438 500.326171875 751.499023438 c 0
 497.551757812 751.499023438 431.6796875 727.084960938 335.891601562 727.084960938 c 0
500.326171875 -148.469726562 m 1
 244.404296875 -96.375 51.8251953125 129.943359375 51.8251953125 401.25 c 0
 51.8251953125 532.263671875 96.734375 652.788085938 171.997070312 748.267578125 c 1
 194.121661625 741.559163245 254.578454531 724.094496785 336.220980821 724.094496785 c 0
 384.658994327 724.094496785 440.554336446 730.24201854 500.326171875 748.430664062 c 1
 522.480517123 741.689132437 583.154560557 724.093873153 665.096293754 724.093873153 c 0
 713.402839117 724.093873153 769.100704143 730.20888552 828.655273438 748.267578125 c 1
 903.919921875 652.788085938 948.828125 532.263671875 948.828125 401.25 c 0
 948.828125 129.943359375 756.248046875 -96.375 500.326171875 -148.469726562 c 1
87.224609375 543.75 m 1
 913.42578125 543.75 l 1
 925.264648438 498.9453125 931.57421875 451.880859375 931.57421875 403.337890625 c 0
 931.57421875 140.572265625 746.706054688 -78.8720703125 500.325195312 -131.249023438 c 1
 253.944335938 -78.8720703125 69.07421875 140.572265625 69.07421875 403.337890625 c 0
 69.07421875 451.880859375 75.3837890625 498.9453125 87.224609375 543.75 c 1
501.415039062 349.65234375 m 0
 468.146484375 348.6015625 438.904296875 339.147460938 413.690429688 321.287109375 c 1
 441.532226562 278.73828125 l 1
 458.831822769 291.380615004 478.185872027 297.700944581 499.594374336 297.700944581 c 0
 500.720963952 297.700944581 501.853242819 297.683442139 502.991210938 297.6484375 c 0
 529.606445312 295.197265625 542.5625 281.189453125 541.862304688 255.625 c 1
 527.854492188 259.4765625 512.795898438 261.40234375 496.686523438 261.40234375 c 0
 496.110331287 261.409293521 495.536513034 261.412768406 494.965068679 261.412768406 c 0
 466.709612539 261.412768406 444.258040167 252.917106021 427.610351562 235.92578125 c 0
 410.625976562 218.590820312 402.133789062 197.142578125 402.133789062 171.578125 c 0
 402.133789062 141.811523438 411.326171875 119.13671875 429.711914062 103.552734375 c 0
 448.096679688 87.96875 471.297851562 80.001953125 499.313476562 79.65234375 c 0
 516.123046875 80.001953125 531.357421875 85.0791015625 545.014648438 94.884765625 c 1
 545.014648438 86.48046875 l 1
 599.118164062 86.48046875 l 1
 599.118164062 258.251953125 l 2
 598.767578125 288.018554688 589.2265625 310.693359375 570.491210938 326.27734375 c 0
 551.755859375 341.861328125 528.73046875 349.65234375 501.415039062 349.65234375 c 0
494.061523438 209.923828125 m 0
 509.469726562 209.923828125 524.877929688 207.823242188 540.286132812 203.62109375 c 1
 540.286132812 145.837890625 l 1
 526.978515625 132.879882812 512.795898438 126.40234375 497.737304688 126.40234375 c 0
 483.729492188 126.40234375 472.611328125 131.130859375 464.381835938 140.5859375 c 0
 456.15234375 150.041015625 452.038085938 160.021484375 452.038085938 170.52734375 c 0
 451.6875 180.682617188 455.538085938 189.787109375 463.592773438 197.841796875 c 0
 471.646484375 205.895507812 481.8046875 209.923828125 494.061523438 209.923828125 c 0
EndSplineSet
Validated: 37
EndChar

StartChar: b
Encoding: 98 98 27
Width: 1000
HStem: 129.44 165.292<455.342 537.573> 348.607 195.143<452.35 564.326> 724.094 2.94989<247.343 408.169 575.718 736.974>
VStem: 48.8252 3<129.166 562.654> 69.0742 327.306<249.614 415.033> 452.87 98.332<139.329 282.48> 605.599 325.976<132.135 427.609> 948.828 3<129.166 532.798>
LayerCount: 2
Fore
SplineSet
48.8251953125 401.25 m 0
 48.8251953125 129.412109375 241.413085938 -98.9755859375 500.326171875 -151.53125 c 1
 759.2109375 -98.9814453125 951.828125 129.3828125 951.828125 401.25 c 0
 951.828125 487.20703125 931.908203125 622.604492188 829.73828125 751.734375 c 1
 769.164363443 733.245479429 712.835249481 727.093239724 664.482956401 727.093239724 c 0
 568.281507601 727.093239724 503.656189801 751.446792319 499.999550594 751.446792319 c 0
 497.819672621 751.446792319 430.687599765 727.044388538 335.703516577 727.044388538 c 0
 284.219697464 727.044388538 228.659505523 734.108745886 170.9140625 751.734375 c 1
 143.68359375 717.318359375 48.8251953125 593.043945312 48.8251953125 401.25 c 0
500.326171875 -148.469726562 m 1
 244.404296875 -96.375 51.8251953125 129.943359375 51.8251953125 401.25 c 0
 51.8251953125 532.263671875 96.734375 652.788085938 171.997070312 748.267578125 c 1
 194.121661625 741.559163245 254.578454531 724.094496785 336.220980821 724.094496785 c 0
 384.658994327 724.094496785 440.554336446 730.24201854 500.326171875 748.430664062 c 1
 522.480517123 741.689132437 583.154560557 724.093873153 665.096293754 724.093873153 c 0
 713.402839117 724.093873153 769.100704143 730.20888552 828.655273438 748.267578125 c 1
 903.919921875 652.788085938 948.828125 532.263671875 948.828125 401.25 c 0
 948.828125 129.943359375 756.248046875 -96.375 500.326171875 -148.469726562 c 1
335.891601562 727.084960938 m 0
 240.107421875 727.084960938 174.219726562 751.500976562 171.455078125 751.500976562 c 0
 170.977539062 751.500976562 170.552734375 751.27734375 170.27734375 750.930664062 c 0
 94.228515625 654.811523438 48.8251953125 533.33203125 48.8251953125 401.25 c 0
 48.8251953125 128.388671875 242.5859375 -99.2138671875 500.026367188 -151.470703125 c 0
 500.133789062 -151.4921875 500.35546875 -151.525390625 500.625976562 -151.470703125 c 0
 758.06640625 -99.2138671875 951.828125 128.388671875 951.828125 401.25 c 0
 951.828125 533.33203125 906.42578125 654.811523438 830.375 750.930664062 c 0
 830.099609375 751.27734375 829.674804688 751.500976562 829.198242188 751.500976562 c 0
 826.43359375 751.500976562 760.544921875 727.084960938 664.76171875 727.084960938 c 0
 568.981445312 727.084960938 503.091796875 751.499023438 500.326171875 751.499023438 c 0
 497.551757812 751.499023438 431.6796875 727.084960938 335.891601562 727.084960938 c 0
500.326171875 -148.469726562 m 1
 244.404296875 -96.375 51.8251953125 129.943359375 51.8251953125 401.25 c 0
 51.8251953125 532.263671875 96.734375 652.788085938 171.997070312 748.267578125 c 1
 194.121661625 741.559163245 254.578454531 724.094496785 336.220980821 724.094496785 c 0
 384.658994327 724.094496785 440.554336446 730.24201854 500.326171875 748.430664062 c 1
 522.480517123 741.689132437 583.154560557 724.093873153 665.096293754 724.093873153 c 0
 713.402839117 724.093873153 769.100704143 730.20888552 828.655273438 748.267578125 c 1
 903.919921875 652.788085938 948.828125 532.263671875 948.828125 401.25 c 0
 948.828125 129.943359375 756.248046875 -96.375 500.326171875 -148.469726562 c 1
87.224609375 543.75 m 1
 913.42578125 543.75 l 1
 925.264648438 498.9453125 931.57421875 451.880859375 931.57421875 403.337890625 c 0
 931.57421875 140.572265625 746.706054688 -78.8720703125 500.325195312 -131.249023438 c 1
 253.944335938 -78.8720703125 69.07421875 140.572265625 69.07421875 403.337890625 c 0
 69.07421875 451.880859375 75.3837890625 498.9453125 87.224609375 543.75 c 1
451.823242188 442.75390625 m 1
 396.379882812 415.033203125 l 1
 396.379882812 86.560546875 l 1
 451.823242188 86.560546875 l 1
 451.823242188 95.453125 l 1
 466.46875 85.3408203125 482.856445312 80.28515625 500.989257812 80.28515625 c 0
 570.728515625 80.28515625 605.598632812 123.698242188 605.598632812 210.5234375 c 0
 605.598632812 301.184570312 570.37890625 347.212890625 499.942382812 348.607421875 c 0
 479.020507812 348.258789062 462.981445312 342.15625 451.823242188 330.30078125 c 1
 451.823242188 442.75390625 l 1
499.942382812 294.732421875 m 0
 534.114257812 292.640625 551.202148438 264.74609375 551.202148438 211.046875 c 0
 550.853515625 156.999023438 534.290039062 129.799804688 501.512695312 129.451171875 c 0
 501.113175525 129.44401904 500.715042731 129.440442627 500.31829692 129.440442627 c 0
 481.323282753 129.440442627 465.507528788 137.638335407 452.870117188 154.033203125 c 1
 452.870117188 269.103515625 l 1
 462.981445312 286.189453125 478.671875 294.732421875 499.942382812 294.732421875 c 0
EndSplineSet
Validated: 5
EndChar

StartChar: e
Encoding: 101 101 28
Width: 1000
HStem: 135.09 56.3164<467.483 544.104> 242.984 54.7535<465.922 536.414> 349.826 193.924<440.688 563.121> 724.094 2.94989<247.343 408.169 575.718 736.974>
VStem: 48.8252 3<129.166 562.654> 69.0742 326.956<156.428 427.609> 452.872 96.3164<242.984 280.066> 605.505 326.069<191.406 303.025> 948.828 3<129.166 532.798>
LayerCount: 2
Fore
SplineSet
48.8251953125 401.25 m 0
 48.8251953125 129.412109375 241.413085938 -98.9755859375 500.326171875 -151.53125 c 1
 759.2109375 -98.9814453125 951.828125 129.3828125 951.828125 401.25 c 0
 951.828125 487.20703125 931.908203125 622.604492188 829.73828125 751.734375 c 1
 769.164363443 733.245479429 712.835249481 727.093239724 664.482956401 727.093239724 c 0
 568.281507601 727.093239724 503.656189801 751.446792319 499.999550594 751.446792319 c 0
 497.819672621 751.446792319 430.687599765 727.044388538 335.703516577 727.044388538 c 0
 284.219697464 727.044388538 228.659505523 734.108745886 170.9140625 751.734375 c 1
 143.68359375 717.318359375 48.8251953125 593.043945312 48.8251953125 401.25 c 0
500.326171875 -148.469726562 m 1
 244.404296875 -96.375 51.8251953125 129.943359375 51.8251953125 401.25 c 0
 51.8251953125 532.263671875 96.734375 652.788085938 171.997070312 748.267578125 c 1
 194.121661625 741.559163245 254.578454531 724.094496785 336.220980821 724.094496785 c 0
 384.658994327 724.094496785 440.554336446 730.24201854 500.326171875 748.430664062 c 1
 522.480517123 741.689132437 583.154560557 724.093873153 665.096293754 724.093873153 c 0
 713.402839117 724.093873153 769.100704143 730.20888552 828.655273438 748.267578125 c 1
 903.919921875 652.788085938 948.828125 532.263671875 948.828125 401.25 c 0
 948.828125 129.943359375 756.248046875 -96.375 500.326171875 -148.469726562 c 1
335.891601562 727.084960938 m 0
 240.107421875 727.084960938 174.219726562 751.500976562 171.455078125 751.500976562 c 0
 170.977539062 751.500976562 170.552734375 751.27734375 170.27734375 750.930664062 c 0
 94.228515625 654.811523438 48.8251953125 533.33203125 48.8251953125 401.25 c 0
 48.8251953125 128.388671875 242.5859375 -99.2138671875 500.026367188 -151.470703125 c 0
 500.133789062 -151.4921875 500.35546875 -151.525390625 500.625976562 -151.470703125 c 0
 758.06640625 -99.2138671875 951.828125 128.388671875 951.828125 401.25 c 0
 951.828125 533.33203125 906.42578125 654.811523438 830.375 750.930664062 c 0
 830.099609375 751.27734375 829.674804688 751.500976562 829.198242188 751.500976562 c 0
 826.43359375 751.500976562 760.544921875 727.084960938 664.76171875 727.084960938 c 0
 568.981445312 727.084960938 503.091796875 751.499023438 500.326171875 751.499023438 c 0
 497.551757812 751.499023438 431.6796875 727.084960938 335.891601562 727.084960938 c 0
500.326171875 -148.469726562 m 1
 244.404296875 -96.375 51.8251953125 129.943359375 51.8251953125 401.25 c 0
 51.8251953125 532.263671875 96.734375 652.788085938 171.997070312 748.267578125 c 1
 194.121661625 741.559163245 254.578454531 724.094496785 336.220980821 724.094496785 c 0
 384.658994327 724.094496785 440.554336446 730.24201854 500.326171875 748.430664062 c 1
 522.480517123 741.689132437 583.154560557 724.093873153 665.096293754 724.093873153 c 0
 713.402839117 724.093873153 769.100704143 730.20888552 828.655273438 748.267578125 c 1
 903.919921875 652.788085938 948.828125 532.263671875 948.828125 401.25 c 0
 948.828125 129.943359375 756.248046875 -96.375 500.326171875 -148.469726562 c 1
87.224609375 543.75 m 1
 913.42578125 543.75 l 1
 925.264648438 498.9453125 931.57421875 451.880859375 931.57421875 403.337890625 c 0
 931.57421875 140.572265625 746.706054688 -78.8720703125 500.325195312 -131.249023438 c 1
 253.944335938 -78.8720703125 69.07421875 140.572265625 69.07421875 403.337890625 c 0
 69.07421875 451.880859375 75.3837890625 498.9453125 87.224609375 543.75 c 1
502.346679688 349.826171875 m 0
 469.013671875 349.826171875 442.959960938 336.581054688 424.188476562 310.08984375 c 0
 405.416015625 283.598632812 396.030273438 252.283203125 396.030273438 216.142578125 c 0
 396.030273438 172.283203125 405.767578125 138.598632812 425.241210938 115.08984375 c 0
 444.71484375 91.5810546875 470.416992188 79.826171875 502.346679688 79.826171875 c 0
 547.609375 80.87890625 579.01171875 101.0546875 596.555664062 140.353515625 c 1
 546.555664062 160.87890625 l 1
 536.426717218 143.659978522 522.075087397 135.05007962 503.499904524 135.05007962 c 0
 502.771086843 135.05007962 502.035767124 135.063334313 501.293945312 135.08984375 c 0
 500.847672673 135.078665198 500.404059924 135.073075969 499.963107128 135.073075969 c 0
 486.536211311 135.073075969 475.575587314 140.255332818 467.083007812 150.6171875 c 0
 458.310546875 161.318359375 453.924804688 174.915039062 453.924804688 191.40625 c 1
 605.504882812 191.40625 l 1
 605.504882812 247.897460938 596.119140625 288.422851562 577.346679688 312.984375 c 0
 558.57421875 337.545898438 533.57421875 349.826171875 502.346679688 349.826171875 c 0
502.346679688 297.72265625 m 0
 516.732421875 297.72265625 528.22265625 292.283203125 536.819335938 281.40625 c 0
 545.416015625 270.529296875 549.5390625 257.720703125 549.188476562 242.984375 c 1
 452.872070312 242.984375 l 1
 452.169921875 256.317382812 456.381835938 268.86328125 465.504882812 280.6171875 c 0
 474.362768639 292.030688603 486.199497735 297.737886229 501.013281804 297.737886229 c 0
 501.455099639 297.737886229 501.899565616 297.732809577 502.346679688 297.72265625 c 0
EndSplineSet
Validated: 37
EndChar

StartChar: l
Encoding: 108 108 29
Width: 1000
HStem: 724.094 2.94989<247.343 408.169 575.718 736.974>
VStem: 48.8252 3<129.166 562.654> 69.0742 402.894<249.614 412.969> 529.06 402.515<249.614 439.456> 948.828 3<129.166 532.798>
LayerCount: 2
Fore
SplineSet
48.8251953125 401.25 m 0
 48.8251953125 129.412109375 241.413085938 -98.9755859375 500.326171875 -151.53125 c 1
 759.2109375 -98.9814453125 951.828125 129.3828125 951.828125 401.25 c 0
 951.828125 487.20703125 931.908203125 622.604492188 829.73828125 751.734375 c 1
 769.164363443 733.245479429 712.835249481 727.093239724 664.482956401 727.093239724 c 0
 568.281507601 727.093239724 503.656189801 751.446792319 499.999550594 751.446792319 c 0
 497.819672621 751.446792319 430.687599765 727.044388538 335.703516577 727.044388538 c 0
 284.219697464 727.044388538 228.659505523 734.108745886 170.9140625 751.734375 c 1
 143.68359375 717.318359375 48.8251953125 593.043945312 48.8251953125 401.25 c 0
500.326171875 -148.469726562 m 1
 244.404296875 -96.375 51.8251953125 129.943359375 51.8251953125 401.25 c 0
 51.8251953125 532.263671875 96.734375 652.788085938 171.997070312 748.267578125 c 1
 194.121661625 741.559163245 254.578454531 724.094496785 336.220980821 724.094496785 c 0
 384.658994327 724.094496785 440.554336446 730.24201854 500.326171875 748.430664062 c 1
 522.480517123 741.689132437 583.154560557 724.093873153 665.096293754 724.093873153 c 0
 713.402839117 724.093873153 769.100704143 730.20888552 828.655273438 748.267578125 c 1
 903.919921875 652.788085938 948.828125 532.263671875 948.828125 401.25 c 0
 948.828125 129.943359375 756.248046875 -96.375 500.326171875 -148.469726562 c 1
335.891601562 727.084960938 m 0
 240.107421875 727.084960938 174.219726562 751.500976562 171.455078125 751.500976562 c 0
 170.977539062 751.500976562 170.552734375 751.27734375 170.27734375 750.930664062 c 0
 94.228515625 654.811523438 48.8251953125 533.33203125 48.8251953125 401.25 c 0
 48.8251953125 128.388671875 242.5859375 -99.2138671875 500.026367188 -151.470703125 c 0
 500.133789062 -151.4921875 500.35546875 -151.525390625 500.625976562 -151.470703125 c 0
 758.06640625 -99.2138671875 951.828125 128.388671875 951.828125 401.25 c 0
 951.828125 533.33203125 906.42578125 654.811523438 830.375 750.930664062 c 0
 830.099609375 751.27734375 829.674804688 751.500976562 829.198242188 751.500976562 c 0
 826.43359375 751.500976562 760.544921875 727.084960938 664.76171875 727.084960938 c 0
 568.981445312 727.084960938 503.091796875 751.499023438 500.326171875 751.499023438 c 0
 497.551757812 751.499023438 431.6796875 727.084960938 335.891601562 727.084960938 c 0
500.326171875 -148.469726562 m 1
 244.404296875 -96.375 51.8251953125 129.943359375 51.8251953125 401.25 c 0
 51.8251953125 532.263671875 96.734375 652.788085938 171.997070312 748.267578125 c 1
 194.121661625 741.559163245 254.578454531 724.094496785 336.220980821 724.094496785 c 0
 384.658994327 724.094496785 440.554336446 730.24201854 500.326171875 748.430664062 c 1
 522.480517123 741.689132437 583.154560557 724.093873153 665.096293754 724.093873153 c 0
 713.402839117 724.093873153 769.100704143 730.20888552 828.655273438 748.267578125 c 1
 903.919921875 652.788085938 948.828125 532.263671875 948.828125 401.25 c 0
 948.828125 129.943359375 756.248046875 -96.375 500.326171875 -148.469726562 c 1
87.224609375 543.75 m 1
 913.42578125 543.75 l 1
 925.264648438 498.9453125 931.57421875 451.880859375 931.57421875 403.337890625 c 0
 931.57421875 140.572265625 746.706054688 -78.8720703125 500.325195312 -131.249023438 c 1
 253.944335938 -78.8720703125 69.07421875 140.572265625 69.07421875 403.337890625 c 0
 69.07421875 451.880859375 75.3837890625 498.9453125 87.224609375 543.75 c 1
529.059570312 441.515625 m 1
 471.967773438 412.96875 l 1
 471.967773438 81.515625 l 1
 529.059570312 81.515625 l 1
 529.059570312 441.515625 l 1
EndSplineSet
Validated: 5
EndChar

StartChar: i
Encoding: 105 105 30
Width: 1000
HStem: 338.619 43.998<473.233 520.397> 439.188 104.562<473.233 528.278> 724.094 2.94989<247.343 408.169 575.718 736.974>
VStem: 48.8252 3<129.166 562.654> 69.0742 403.397<249.614 437.821> 529.04 402.534<249.614 437.821> 948.828 3<129.166 532.798>
LayerCount: 2
Fore
SplineSet
48.8251953125 401.25 m 0
 48.8251953125 129.412109375 241.413085938 -98.9755859375 500.326171875 -151.53125 c 1
 759.2109375 -98.9814453125 951.828125 129.3828125 951.828125 401.25 c 0
 951.828125 487.20703125 931.908203125 622.604492188 829.73828125 751.734375 c 1
 769.164363443 733.245479429 712.835249481 727.093239724 664.482956401 727.093239724 c 0
 568.281507601 727.093239724 503.656189801 751.446792319 499.999550594 751.446792319 c 0
 497.819672621 751.446792319 430.687599765 727.044388538 335.703516577 727.044388538 c 0
 284.219697464 727.044388538 228.659505523 734.108745886 170.9140625 751.734375 c 1
 143.68359375 717.318359375 48.8251953125 593.043945312 48.8251953125 401.25 c 0
500.326171875 -148.469726562 m 1
 244.404296875 -96.375 51.8251953125 129.943359375 51.8251953125 401.25 c 0
 51.8251953125 532.263671875 96.734375 652.788085938 171.997070312 748.267578125 c 1
 194.121661625 741.559163245 254.578454531 724.094496785 336.220980821 724.094496785 c 0
 384.658994327 724.094496785 440.554336446 730.24201854 500.326171875 748.430664062 c 1
 522.480517123 741.689132437 583.154560557 724.093873153 665.096293754 724.093873153 c 0
 713.402839117 724.093873153 769.100704143 730.20888552 828.655273438 748.267578125 c 1
 903.919921875 652.788085938 948.828125 532.263671875 948.828125 401.25 c 0
 948.828125 129.943359375 756.248046875 -96.375 500.326171875 -148.469726562 c 1
335.891601562 727.084960938 m 0
 240.107421875 727.084960938 174.219726562 751.500976562 171.455078125 751.500976562 c 0
 170.977539062 751.500976562 170.552734375 751.27734375 170.27734375 750.930664062 c 0
 94.228515625 654.811523438 48.8251953125 533.33203125 48.8251953125 401.25 c 0
 48.8251953125 128.388671875 242.5859375 -99.2138671875 500.026367188 -151.470703125 c 0
 500.133789062 -151.4921875 500.35546875 -151.525390625 500.625976562 -151.470703125 c 0
 758.06640625 -99.2138671875 951.828125 128.388671875 951.828125 401.25 c 0
 951.828125 533.33203125 906.42578125 654.811523438 830.375 750.930664062 c 0
 830.099609375 751.27734375 829.674804688 751.500976562 829.198242188 751.500976562 c 0
 826.43359375 751.500976562 760.544921875 727.084960938 664.76171875 727.084960938 c 0
 568.981445312 727.084960938 503.091796875 751.499023438 500.326171875 751.499023438 c 0
 497.551757812 751.499023438 431.6796875 727.084960938 335.891601562 727.084960938 c 0
500.326171875 -148.469726562 m 1
 244.404296875 -96.375 51.8251953125 129.943359375 51.8251953125 401.25 c 0
 51.8251953125 532.263671875 96.734375 652.788085938 171.997070312 748.267578125 c 1
 194.121661625 741.559163245 254.578454531 724.094496785 336.220980821 724.094496785 c 0
 384.658994327 724.094496785 440.554336446 730.24201854 500.326171875 748.430664062 c 1
 522.480517123 741.689132437 583.154560557 724.093873153 665.096293754 724.093873153 c 0
 713.402839117 724.093873153 769.100704143 730.20888552 828.655273438 748.267578125 c 1
 903.919921875 652.788085938 948.828125 532.263671875 948.828125 401.25 c 0
 948.828125 129.943359375 756.248046875 -96.375 500.326171875 -148.469726562 c 1
87.224609375 543.75 m 1
 913.42578125 543.75 l 1
 925.264648438 498.9453125 931.57421875 451.880859375 931.57421875 403.337890625 c 0
 931.57421875 140.572265625 746.706054688 -78.8720703125 500.325195312 -131.249023438 c 1
 253.944335938 -78.8720703125 69.07421875 140.572265625 69.07421875 403.337890625 c 0
 69.07421875 451.880859375 75.3837890625 498.9453125 87.224609375 543.75 c 1
500.754882812 439.1875 m 0
 493.421875 439.1875 486.875976562 436.306640625 481.114257812 430.544921875 c 0
 475.352539062 424.783203125 472.471679688 418.235351562 472.471679688 410.90234375 c 0
 472.471679688 403.569335938 475.352539062 397.021484375 481.114257812 391.259765625 c 0
 486.875976562 385.498046875 493.421875 382.6171875 500.754882812 382.6171875 c 0
 508.4375 382.6171875 515.072265625 385.32421875 520.659179688 390.736328125 c 0
 526.24609375 396.1484375 529.040039062 402.87109375 529.040039062 410.90234375 c 0
 529.040039062 418.235351562 526.159179688 424.783203125 520.397460938 430.544921875 c 0
 514.635742188 436.306640625 508.087890625 439.1875 500.754882812 439.1875 c 0
472.471679688 338.619140625 m 1
 472.471679688 82.486328125 l 1
 529.563476562 82.486328125 l 1
 529.563476562 338.619140625 l 1
 472.471679688 338.619140625 l 1
EndSplineSet
Validated: 5
EndChar

StartChar: j
Encoding: 106 106 31
Width: 1000
HStem: 337.301 44.7598<484.645 532.452> 439.609 104.141<484.645 540.3> 724.094 2.94989<247.343 408.169 575.718 736.974>
VStem: 48.8252 3<129.166 562.654> 69.0742 414.624<249.614 437.939> 541.247 390.327<249.614 437.939> 948.828 3<129.166 532.798>
LayerCount: 2
Fore
SplineSet
48.8251953125 401.25 m 0
 48.8251953125 129.412109375 241.413085938 -98.9755859375 500.326171875 -151.53125 c 1
 759.2109375 -98.9814453125 951.828125 129.3828125 951.828125 401.25 c 0
 951.828125 487.20703125 931.908203125 622.604492188 829.73828125 751.734375 c 1
 769.164363443 733.245479429 712.835249481 727.093239724 664.482956401 727.093239724 c 0
 568.281507601 727.093239724 503.656189801 751.446792319 499.999550594 751.446792319 c 0
 497.819672621 751.446792319 430.687599765 727.044388538 335.703516577 727.044388538 c 0
 284.219697464 727.044388538 228.659505523 734.108745886 170.9140625 751.734375 c 1
 143.68359375 717.318359375 48.8251953125 593.043945312 48.8251953125 401.25 c 0
500.326171875 -148.469726562 m 1
 244.404296875 -96.375 51.8251953125 129.943359375 51.8251953125 401.25 c 0
 51.8251953125 532.263671875 96.734375 652.788085938 171.997070312 748.267578125 c 1
 194.121661625 741.559163245 254.578454531 724.094496785 336.220980821 724.094496785 c 0
 384.658994327 724.094496785 440.554336446 730.24201854 500.326171875 748.430664062 c 1
 522.480517123 741.689132437 583.154560557 724.093873153 665.096293754 724.093873153 c 0
 713.402839117 724.093873153 769.100704143 730.20888552 828.655273438 748.267578125 c 1
 903.919921875 652.788085938 948.828125 532.263671875 948.828125 401.25 c 0
 948.828125 129.943359375 756.248046875 -96.375 500.326171875 -148.469726562 c 1
335.891601562 727.084960938 m 0
 240.107421875 727.084960938 174.219726562 751.500976562 171.455078125 751.500976562 c 0
 170.977539062 751.500976562 170.552734375 751.27734375 170.27734375 750.930664062 c 0
 94.228515625 654.811523438 48.8251953125 533.33203125 48.8251953125 401.25 c 0
 48.8251953125 128.388671875 242.5859375 -99.2138671875 500.026367188 -151.470703125 c 0
 500.133789062 -151.4921875 500.35546875 -151.525390625 500.625976562 -151.470703125 c 0
 758.06640625 -99.2138671875 951.828125 128.388671875 951.828125 401.25 c 0
 951.828125 533.33203125 906.42578125 654.811523438 830.375 750.930664062 c 0
 830.099609375 751.27734375 829.674804688 751.500976562 829.198242188 751.500976562 c 0
 826.43359375 751.500976562 760.544921875 727.084960938 664.76171875 727.084960938 c 0
 568.981445312 727.084960938 503.091796875 751.499023438 500.326171875 751.499023438 c 0
 497.551757812 751.499023438 431.6796875 727.084960938 335.891601562 727.084960938 c 0
500.326171875 -148.469726562 m 1
 244.404296875 -96.375 51.8251953125 129.943359375 51.8251953125 401.25 c 0
 51.8251953125 532.263671875 96.734375 652.788085938 171.997070312 748.267578125 c 1
 194.121661625 741.559163245 254.578454531 724.094496785 336.220980821 724.094496785 c 0
 384.658994327 724.094496785 440.554336446 730.24201854 500.326171875 748.430664062 c 1
 522.480517123 741.689132437 583.154560557 724.093873153 665.096293754 724.093873153 c 0
 713.402839117 724.093873153 769.100704143 730.20888552 828.655273438 748.267578125 c 1
 903.919921875 652.788085938 948.828125 532.263671875 948.828125 401.25 c 0
 948.828125 129.943359375 756.248046875 -96.375 500.326171875 -148.469726562 c 1
87.224609375 543.75 m 1
 913.42578125 543.75 l 1
 925.264648438 498.9453125 931.57421875 451.880859375 931.57421875 403.337890625 c 0
 931.57421875 140.572265625 746.706054688 -78.8720703125 500.325195312 -131.249023438 c 1
 253.944335938 -78.8720703125 69.07421875 140.572265625 69.07421875 403.337890625 c 0
 69.07421875 451.880859375 75.3837890625 498.9453125 87.224609375 543.75 c 1
512.471679688 439.609375 m 0
 505.01171875 439.609375 498.350585938 436.677734375 492.489257812 430.81640625 c 0
 486.627929688 424.955078125 483.698242188 418.295898438 483.698242188 410.8359375 c 0
 483.698242188 403.375976562 486.627929688 396.71484375 492.489257812 390.853515625 c 0
 498.350585938 384.9921875 505.01171875 382.060546875 512.471679688 382.060546875 c 0
 520.287109375 382.060546875 527.03515625 384.814453125 532.719726562 390.3203125 c 0
 538.403320312 395.826171875 541.247070312 402.666015625 541.247070312 410.8359375 c 0
 541.247070312 418.295898438 538.315429688 424.955078125 532.454101562 430.81640625 c 0
 526.592773438 436.677734375 519.931640625 439.609375 512.471679688 439.609375 c 0
483.698242188 337.30078125 m 1
 483.698242188 76.732421875 l 2
 481.2109375 43.33984375 469.133789062 17.5859375 447.463867188 -0.5322265625 c 1
 470.375976562 -52.2216796875 l 1
 513.360351562 -27.3525390625 537.16015625 15.6298828125 541.778320312 76.732421875 c 1
 541.778320312 337.30078125 l 1
 483.698242188 337.30078125 l 1
EndSplineSet
Validated: 5
EndChar

StartChar: c
Encoding: 99 99 32
Width: 1000
HStem: 349.924 193.826<438.638 576.529> 724.094 2.94989<247.343 408.169 575.718 736.974>
VStem: 48.8252 3<129.166 562.654> 69.0742 328.396<159.5 427.609> 948.828 3<129.166 532.798>
LayerCount: 2
Fore
SplineSet
48.8251953125 401.25 m 0
 48.8251953125 129.412109375 241.413085938 -98.9755859375 500.326171875 -151.53125 c 1
 759.2109375 -98.9814453125 951.828125 129.3828125 951.828125 401.25 c 0
 951.828125 487.20703125 931.908203125 622.604492188 829.73828125 751.734375 c 1
 769.164363443 733.245479429 712.835249481 727.093239724 664.482956401 727.093239724 c 0
 568.281507601 727.093239724 503.656189801 751.446792319 499.999550594 751.446792319 c 0
 497.819672621 751.446792319 430.687599765 727.044388538 335.703516577 727.044388538 c 0
 284.219697464 727.044388538 228.659505523 734.108745886 170.9140625 751.734375 c 1
 143.68359375 717.318359375 48.8251953125 593.043945312 48.8251953125 401.25 c 0
500.326171875 -148.469726562 m 1
 244.404296875 -96.375 51.8251953125 129.943359375 51.8251953125 401.25 c 0
 51.8251953125 532.263671875 96.734375 652.788085938 171.997070312 748.267578125 c 1
 194.121661625 741.559163245 254.578454531 724.094496785 336.220980821 724.094496785 c 0
 384.658994327 724.094496785 440.554336446 730.24201854 500.326171875 748.430664062 c 1
 522.480517123 741.689132437 583.154560557 724.093873153 665.096293754 724.093873153 c 0
 713.402839117 724.093873153 769.100704143 730.20888552 828.655273438 748.267578125 c 1
 903.919921875 652.788085938 948.828125 532.263671875 948.828125 401.25 c 0
 948.828125 129.943359375 756.248046875 -96.375 500.326171875 -148.469726562 c 1
335.891601562 727.084960938 m 0
 240.107421875 727.084960938 174.219726562 751.500976562 171.455078125 751.500976562 c 0
 170.977539062 751.500976562 170.552734375 751.27734375 170.27734375 750.930664062 c 0
 94.228515625 654.811523438 48.8251953125 533.33203125 48.8251953125 401.25 c 0
 48.8251953125 128.388671875 242.5859375 -99.2138671875 500.026367188 -151.470703125 c 0
 500.133789062 -151.4921875 500.35546875 -151.525390625 500.625976562 -151.470703125 c 0
 758.06640625 -99.2138671875 951.828125 128.388671875 951.828125 401.25 c 0
 951.828125 533.33203125 906.42578125 654.811523438 830.375 750.930664062 c 0
 830.099609375 751.27734375 829.674804688 751.500976562 829.198242188 751.500976562 c 0
 826.43359375 751.500976562 760.544921875 727.084960938 664.76171875 727.084960938 c 0
 568.981445312 727.084960938 503.091796875 751.499023438 500.326171875 751.499023438 c 0
 497.551757812 751.499023438 431.6796875 727.084960938 335.891601562 727.084960938 c 0
500.326171875 -148.469726562 m 1
 244.404296875 -96.375 51.8251953125 129.943359375 51.8251953125 401.25 c 0
 51.8251953125 532.263671875 96.734375 652.788085938 171.997070312 748.267578125 c 1
 194.121661625 741.559163245 254.578454531 724.094496785 336.220980821 724.094496785 c 0
 384.658994327 724.094496785 440.554336446 730.24201854 500.326171875 748.430664062 c 1
 522.480517123 741.689132437 583.154560557 724.093873153 665.096293754 724.093873153 c 0
 713.402839117 724.093873153 769.100704143 730.20888552 828.655273438 748.267578125 c 1
 903.919921875 652.788085938 948.828125 532.263671875 948.828125 401.25 c 0
 948.828125 129.943359375 756.248046875 -96.375 500.326171875 -148.469726562 c 1
87.224609375 543.75 m 1
 913.42578125 543.75 l 1
 925.264648438 498.9453125 931.57421875 451.880859375 931.57421875 403.337890625 c 0
 931.57421875 140.572265625 746.706054688 -78.8720703125 500.325195312 -131.249023438 c 1
 253.944335938 -78.8720703125 69.07421875 140.572265625 69.07421875 403.337890625 c 0
 69.07421875 451.880859375 75.3837890625 498.9453125 87.224609375 543.75 c 1
505.895507812 349.923828125 m 0
 465.856445312 349.923828125 436.623046875 334.510742188 418.198242188 303.68359375 c 0
 404.37890625 281.005859375 397.469726562 251.419921875 397.469726562 214.923828125 c 0
 397.469726562 178.427734375 404.37890625 148.840820312 418.198242188 126.1640625 c 0
 436.623046875 95.3369140625 465.856445312 79.923828125 505.895507812 79.923828125 c 0
 557.2734375 79.923828125 590.225585938 101.713867188 604.752929688 145.296875 c 1
 552.135742188 166.556640625 l 1
 544.459836511 144.227956971 529.228064482 133.064081224 506.438561779 133.064081224 c 0
 506.082307355 133.064081224 505.724206035 133.066809359 505.364257812 133.072265625 c 0
 486.23046875 133.072265625 472.411132812 143.348632812 463.907226562 163.900390625 c 0
 457.883789062 178.427734375 454.872070312 195.435546875 454.872070312 214.923828125 c 0
 454.872070312 234.412109375 457.883789062 251.419921875 463.907226562 265.947265625 c 0
 472.411132812 286.499023438 486.23046875 296.7734375 505.364257812 296.7734375 c 0
 505.724206035 296.778893766 506.082307355 296.781621901 506.438561779 296.781621901 c 0
 529.228064482 296.781621901 544.459836511 285.617746154 552.135742188 263.2890625 c 1
 604.752929688 284.548828125 l 1
 590.225585938 328.131835938 557.2734375 349.923828125 505.895507812 349.923828125 c 0
EndSplineSet
Validated: 5
EndChar

StartChar: d
Encoding: 100 100 33
Width: 1000
HStem: 126.8 166.454<463.301 545.559> 347.506 196.244<436.36 549.123> 724.094 2.94989<247.343 408.169 575.718 736.974>
VStem: 48.8252 3<129.166 562.654> 69.0742 325.724<130.795 427.609> 449.577 99.0234<136.964 280.915> 605.485 326.089<249.614 441.693> 948.828 3<129.166 532.798>
LayerCount: 2
Fore
SplineSet
48.8251953125 401.25 m 0
 48.8251953125 129.412109375 241.413085938 -98.9755859375 500.326171875 -151.53125 c 1
 759.2109375 -98.9814453125 951.828125 129.3828125 951.828125 401.25 c 0
 951.828125 487.20703125 931.908203125 622.604492188 829.73828125 751.734375 c 1
 769.164363443 733.245479429 712.835249481 727.093239724 664.482956401 727.093239724 c 0
 568.281507601 727.093239724 503.656189801 751.446792319 499.999550594 751.446792319 c 0
 497.819672621 751.446792319 430.687599765 727.044388538 335.703516577 727.044388538 c 0
 284.219697464 727.044388538 228.659505523 734.108745886 170.9140625 751.734375 c 1
 143.68359375 717.318359375 48.8251953125 593.043945312 48.8251953125 401.25 c 0
500.326171875 -148.469726562 m 1
 244.404296875 -96.375 51.8251953125 129.943359375 51.8251953125 401.25 c 0
 51.8251953125 532.263671875 96.734375 652.788085938 171.997070312 748.267578125 c 1
 194.121661625 741.559163245 254.578454531 724.094496785 336.220980821 724.094496785 c 0
 384.658994327 724.094496785 440.554336446 730.24201854 500.326171875 748.430664062 c 1
 522.480517123 741.689132437 583.154560557 724.093873153 665.096293754 724.093873153 c 0
 713.402839117 724.093873153 769.100704143 730.20888552 828.655273438 748.267578125 c 1
 903.919921875 652.788085938 948.828125 532.263671875 948.828125 401.25 c 0
 948.828125 129.943359375 756.248046875 -96.375 500.326171875 -148.469726562 c 1
335.891601562 727.084960938 m 0
 240.107421875 727.084960938 174.219726562 751.500976562 171.455078125 751.500976562 c 0
 170.977539062 751.500976562 170.552734375 751.27734375 170.27734375 750.930664062 c 0
 94.228515625 654.811523438 48.8251953125 533.33203125 48.8251953125 401.25 c 0
 48.8251953125 128.388671875 242.5859375 -99.2138671875 500.026367188 -151.470703125 c 0
 500.133789062 -151.4921875 500.35546875 -151.525390625 500.625976562 -151.470703125 c 0
 758.06640625 -99.2138671875 951.828125 128.388671875 951.828125 401.25 c 0
 951.828125 533.33203125 906.42578125 654.811523438 830.375 750.930664062 c 0
 830.099609375 751.27734375 829.674804688 751.500976562 829.198242188 751.500976562 c 0
 826.43359375 751.500976562 760.544921875 727.084960938 664.76171875 727.084960938 c 0
 568.981445312 727.084960938 503.091796875 751.499023438 500.326171875 751.499023438 c 0
 497.551757812 751.499023438 431.6796875 727.084960938 335.891601562 727.084960938 c 0
500.326171875 -148.469726562 m 1
 244.404296875 -96.375 51.8251953125 129.943359375 51.8251953125 401.25 c 0
 51.8251953125 532.263671875 96.734375 652.788085938 171.997070312 748.267578125 c 1
 194.121661625 741.559163245 254.578454531 724.094496785 336.220980821 724.094496785 c 0
 384.658994327 724.094496785 440.554336446 730.24201854 500.326171875 748.430664062 c 1
 522.480517123 741.689132437 583.154560557 724.093873153 665.096293754 724.093873153 c 0
 713.402839117 724.093873153 769.100704143 730.20888552 828.655273438 748.267578125 c 1
 903.919921875 652.788085938 948.828125 532.263671875 948.828125 401.25 c 0
 948.828125 129.943359375 756.248046875 -96.375 500.326171875 -148.469726562 c 1
87.224609375 543.75 m 1
 913.42578125 543.75 l 1
 925.264648438 498.9453125 931.57421875 451.880859375 931.57421875 403.337890625 c 0
 931.57421875 140.572265625 746.706054688 -78.8720703125 500.325195312 -131.249023438 c 1
 253.944335938 -78.8720703125 69.07421875 140.572265625 69.07421875 403.337890625 c 0
 69.07421875 451.880859375 75.3837890625 498.9453125 87.224609375 543.75 c 1
605.485351562 442.314453125 m 1
 549.653320312 414.3984375 l 1
 549.653320312 329.0703125 l 1
 538.416992188 341.009765625 522.264648438 347.154296875 501.196289062 347.505859375 c 0
 430.264648438 346.1015625 394.797851562 299.750976562 394.797851562 208.453125 c 0
 394.797851562 121.017578125 429.912109375 77.30078125 500.141601562 77.30078125 c 0
 518.401367188 77.30078125 534.905273438 82.390625 549.653320312 92.57421875 c 1
 549.653320312 83.62109375 l 1
 605.485351562 83.62109375 l 1
 605.485351562 442.314453125 l 1
501.196289062 293.25390625 m 0
 522.616210938 293.25390625 538.416992188 284.651367188 548.600585938 267.4453125 c 1
 548.600585938 151.56640625 l 1
 535.873846082 135.055317111 519.946091443 126.799772542 500.817322019 126.799772542 c 0
 500.418344209 126.799772542 500.017973849 126.803363986 499.616210938 126.810546875 c 0
 466.608398438 127.161132812 449.928710938 154.55078125 449.577148438 208.978515625 c 0
 449.577148438 263.0546875 466.784179688 291.147460938 501.196289062 293.25390625 c 0
EndSplineSet
Validated: 5
EndChar

StartChar: f
Encoding: 102 102 34
Width: 1000
HStem: -131.249 674.999<253.944 746.706> 338.018 51.2773<526.864 564.032> 439.516 104.234<483.675 563.799> 724.094 2.94989<247.343 408.169 575.718 736.974>
VStem: 48.8252 3<129.166 562.654> 948.828 3<129.166 532.798>
LayerCount: 2
Fore
SplineSet
48.8251953125 401.25 m 0x1c
 48.8251953125 129.412109375 241.413085938 -98.9755859375 500.326171875 -151.53125 c 1
 759.2109375 -98.9814453125 951.828125 129.3828125 951.828125 401.25 c 0
 951.828125 487.20703125 931.908203125 622.604492188 829.73828125 751.734375 c 1
 769.164363443 733.245479429 712.835249481 727.093239724 664.482956401 727.093239724 c 0
 568.281507601 727.093239724 503.656189801 751.446792319 499.999550594 751.446792319 c 0
 497.819672621 751.446792319 430.687599765 727.044388538 335.703516577 727.044388538 c 0
 284.219697464 727.044388538 228.659505523 734.108745886 170.9140625 751.734375 c 1
 143.68359375 717.318359375 48.8251953125 593.043945312 48.8251953125 401.25 c 0x1c
500.326171875 -148.469726562 m 1
 244.404296875 -96.375 51.8251953125 129.943359375 51.8251953125 401.25 c 0
 51.8251953125 532.263671875 96.734375 652.788085938 171.997070312 748.267578125 c 1
 194.121661625 741.559163245 254.578454531 724.094496785 336.220980821 724.094496785 c 0
 384.658994327 724.094496785 440.554336446 730.24201854 500.326171875 748.430664062 c 1
 522.480517123 741.689132437 583.154560557 724.093873153 665.096293754 724.093873153 c 0
 713.402839117 724.093873153 769.100704143 730.20888552 828.655273438 748.267578125 c 1
 903.919921875 652.788085938 948.828125 532.263671875 948.828125 401.25 c 0
 948.828125 129.943359375 756.248046875 -96.375 500.326171875 -148.469726562 c 1
335.891601562 727.084960938 m 0
 240.107421875 727.084960938 174.219726562 751.500976562 171.455078125 751.500976562 c 0
 170.977539062 751.500976562 170.552734375 751.27734375 170.27734375 750.930664062 c 0
 94.228515625 654.811523438 48.8251953125 533.33203125 48.8251953125 401.25 c 0
 48.8251953125 128.388671875 242.5859375 -99.2138671875 500.026367188 -151.470703125 c 0
 500.133789062 -151.4921875 500.35546875 -151.525390625 500.625976562 -151.470703125 c 0
 758.06640625 -99.2138671875 951.828125 128.388671875 951.828125 401.25 c 0
 951.828125 533.33203125 906.42578125 654.811523438 830.375 750.930664062 c 0
 830.099609375 751.27734375 829.674804688 751.500976562 829.198242188 751.500976562 c 0
 826.43359375 751.500976562 760.544921875 727.084960938 664.76171875 727.084960938 c 0
 568.981445312 727.084960938 503.091796875 751.499023438 500.326171875 751.499023438 c 0
 497.551757812 751.499023438 431.6796875 727.084960938 335.891601562 727.084960938 c 0
500.326171875 -148.469726562 m 1
 244.404296875 -96.375 51.8251953125 129.943359375 51.8251953125 401.25 c 0
 51.8251953125 532.263671875 96.734375 652.788085938 171.997070312 748.267578125 c 1
 194.121661625 741.559163245 254.578454531 724.094496785 336.220980821 724.094496785 c 0
 384.658994327 724.094496785 440.554336446 730.24201854 500.326171875 748.430664062 c 1
 522.480517123 741.689132437 583.154560557 724.093873153 665.096293754 724.093873153 c 0
 713.402839117 724.093873153 769.100704143 730.20888552 828.655273438 748.267578125 c 1
 903.919921875 652.788085938 948.828125 532.263671875 948.828125 401.25 c 0
 948.828125 129.943359375 756.248046875 -96.375 500.326171875 -148.469726562 c 1
87.224609375 543.75 m 1x3c
 913.42578125 543.75 l 1x3c
 925.264648438 498.9453125 931.57421875 451.880859375 931.57421875 403.337890625 c 0
 931.57421875 140.572265625 746.706054688 -78.8720703125 500.325195312 -131.249023438 c 1x9c
 253.944335938 -78.8720703125 69.07421875 140.572265625 69.07421875 403.337890625 c 0
 69.07421875 451.880859375 75.3837890625 498.9453125 87.224609375 543.75 c 1x3c
521.047851562 439.515625 m 0
 504.8359375 438.811523438 492.237304688 432.203125 483.250976562 419.69140625 c 0
 474.263671875 407.180664062 469.770507812 393.170898438 469.770507812 377.6640625 c 2
 469.770507812 338.017578125 l 1
 436.467773438 338.017578125 l 1
 436.467773438 286.740234375 l 1
 469.770507812 286.740234375 l 1
 469.770507812 79.515625 l 1
 526.864257812 79.515625 l 1
 526.864257812 286.740234375 l 1
 564.395507812 286.740234375 l 1
 564.395507812 338.017578125 l 1
 526.864257812 338.017578125 l 1
 526.864257812 371.3203125 l 2
 527.216796875 382.950195312 532.326171875 388.942382812 542.194335938 389.294921875 c 0x7c
 549.2421875 388.942382812 556.641601562 387.1796875 564.395507812 384.0078125 c 1
 564.395507812 430 l 1
 551.708007812 436.34375 537.259765625 439.515625 521.047851562 439.515625 c 0
EndSplineSet
Validated: 5
EndChar

StartChar: g
Encoding: 103 103 35
Width: 1000
HStem: 129.585 165.917<464.005 546.549> 349.58 194.17<437.151 549.552 550.081 605.733> 724.094 2.94989<247.343 408.169 575.718 736.974>
VStem: 48.8252 3<129.166 562.654> 69.0742 326.649<167.398 427.609> 450.325 98.7051<139.716 283.203> 605.733 325.841<249.614 347.48> 948.828 3<129.166 532.798>
LayerCount: 2
Fore
SplineSet
48.8251953125 401.25 m 0
 48.8251953125 129.412109375 241.413085938 -98.9755859375 500.326171875 -151.53125 c 1
 759.2109375 -98.9814453125 951.828125 129.3828125 951.828125 401.25 c 0
 951.828125 487.20703125 931.908203125 622.604492188 829.73828125 751.734375 c 1
 769.164363443 733.245479429 712.835249481 727.093239724 664.482956401 727.093239724 c 0
 568.281507601 727.093239724 503.656189801 751.446792319 499.999550594 751.446792319 c 0
 497.819672621 751.446792319 430.687599765 727.044388538 335.703516577 727.044388538 c 0
 284.219697464 727.044388538 228.659505523 734.108745886 170.9140625 751.734375 c 1
 143.68359375 717.318359375 48.8251953125 593.043945312 48.8251953125 401.25 c 0
500.326171875 -148.469726562 m 1
 244.404296875 -96.375 51.8251953125 129.943359375 51.8251953125 401.25 c 0
 51.8251953125 532.263671875 96.734375 652.788085938 171.997070312 748.267578125 c 1
 194.121661625 741.559163245 254.578454531 724.094496785 336.220980821 724.094496785 c 0
 384.658994327 724.094496785 440.554336446 730.24201854 500.326171875 748.430664062 c 1
 522.480517123 741.689132437 583.154560557 724.093873153 665.096293754 724.093873153 c 0
 713.402839117 724.093873153 769.100704143 730.20888552 828.655273438 748.267578125 c 1
 903.919921875 652.788085938 948.828125 532.263671875 948.828125 401.25 c 0
 948.828125 129.943359375 756.248046875 -96.375 500.326171875 -148.469726562 c 1
335.891601562 727.084960938 m 0
 240.107421875 727.084960938 174.219726562 751.500976562 171.455078125 751.500976562 c 0
 170.977539062 751.500976562 170.552734375 751.27734375 170.27734375 750.930664062 c 0
 94.228515625 654.811523438 48.8251953125 533.33203125 48.8251953125 401.25 c 0
 48.8251953125 128.388671875 242.5859375 -99.2138671875 500.026367188 -151.470703125 c 0
 500.133789062 -151.4921875 500.35546875 -151.525390625 500.625976562 -151.470703125 c 0
 758.06640625 -99.2138671875 951.828125 128.388671875 951.828125 401.25 c 0
 951.828125 533.33203125 906.42578125 654.811523438 830.375 750.930664062 c 0
 830.099609375 751.27734375 829.674804688 751.500976562 829.198242188 751.500976562 c 0
 826.43359375 751.500976562 760.544921875 727.084960938 664.76171875 727.084960938 c 0
 568.981445312 727.084960938 503.091796875 751.499023438 500.326171875 751.499023438 c 0
 497.551757812 751.499023438 431.6796875 727.084960938 335.891601562 727.084960938 c 0
500.326171875 -148.469726562 m 1
 244.404296875 -96.375 51.8251953125 129.943359375 51.8251953125 401.25 c 0
 51.8251953125 532.263671875 96.734375 652.788085938 171.997070312 748.267578125 c 1
 194.121661625 741.559163245 254.578454531 724.094496785 336.220980821 724.094496785 c 0
 384.658994327 724.094496785 440.554336446 730.24201854 500.326171875 748.430664062 c 1
 522.480517123 741.689132437 583.154560557 724.093873153 665.096293754 724.093873153 c 0
 713.402839117 724.093873153 769.100704143 730.20888552 828.655273438 748.267578125 c 1
 903.919921875 652.788085938 948.828125 532.263671875 948.828125 401.25 c 0
 948.828125 129.943359375 756.248046875 -96.375 500.326171875 -148.469726562 c 1
87.224609375 543.75 m 1
 913.42578125 543.75 l 1
 925.264648438 498.9453125 931.57421875 451.880859375 931.57421875 403.337890625 c 0
 931.57421875 140.572265625 746.706054688 -78.8720703125 500.325195312 -131.249023438 c 1
 253.944335938 -78.8720703125 69.07421875 140.572265625 69.07421875 403.337890625 c 0
 69.07421875 451.880859375 75.3837890625 498.9453125 87.224609375 543.75 c 1
501.778320312 349.580078125 m 0
 431.075195312 348.1796875 395.723632812 301.978515625 395.723632812 210.974609375 c 0
 395.723632812 123.821289062 430.724609375 80.244140625 500.727539062 80.244140625 c 0
 518.928710938 80.244140625 535.379882812 85.318359375 550.081054688 95.46875 c 1
 551.130859375 52.4169921875 530.655273438 22.490234375 488.653320312 5.689453125 c 1
 511.752929688 -40.5126953125 l 1
 571.955078125 -18.4599609375 603.283203125 26.8681640625 605.733398438 95.46875 c 2
 605.733398438 347.48046875 l 1
 550.081054688 347.48046875 l 1
 550.081054688 331.203125 l 1
 538.880859375 343.103515625 522.779296875 349.229492188 501.778320312 349.580078125 c 0
501.778320312 295.501953125 m 0
 523.12890625 295.501953125 538.879882812 286.927734375 549.030273438 269.77734375 c 1
 549.030273438 154.271484375 l 1
 536.343817807 137.814103688 520.46858283 129.584954396 501.401814817 129.584954396 c 0
 501.003966642 129.584954396 500.604728899 129.588537303 500.204101562 129.595703125 c 0
 467.302734375 129.9453125 450.674804688 157.248046875 450.325195312 211.5 c 0
 450.325195312 265.40234375 467.4765625 293.40234375 501.778320312 295.501953125 c 0
EndSplineSet
Validated: 37
EndChar

StartChar: h
Encoding: 104 104 36
Width: 1000
HStem: 345.346 198.404<452.88 573.644> 724.094 2.94989<247.343 408.169 575.718 736.974>
VStem: 48.8252 3<129.166 562.654> 69.0742 328.099<249.614 413.01> 453.208 95.6816<80.5 277.968> 948.828 3<129.166 532.798>
LayerCount: 2
Fore
SplineSet
48.8251953125 401.25 m 0
 48.8251953125 129.412109375 241.413085938 -98.9755859375 500.326171875 -151.53125 c 1
 759.2109375 -98.9814453125 951.828125 129.3828125 951.828125 401.25 c 0
 951.828125 487.20703125 931.908203125 622.604492188 829.73828125 751.734375 c 1
 769.164363443 733.245479429 712.835249481 727.093239724 664.482956401 727.093239724 c 0
 568.281507601 727.093239724 503.656189801 751.446792319 499.999550594 751.446792319 c 0
 497.819672621 751.446792319 430.687599765 727.044388538 335.703516577 727.044388538 c 0
 284.219697464 727.044388538 228.659505523 734.108745886 170.9140625 751.734375 c 1
 143.68359375 717.318359375 48.8251953125 593.043945312 48.8251953125 401.25 c 0
500.326171875 -148.469726562 m 1
 244.404296875 -96.375 51.8251953125 129.943359375 51.8251953125 401.25 c 0
 51.8251953125 532.263671875 96.734375 652.788085938 171.997070312 748.267578125 c 1
 194.121661625 741.559163245 254.578454531 724.094496785 336.220980821 724.094496785 c 0
 384.658994327 724.094496785 440.554336446 730.24201854 500.326171875 748.430664062 c 1
 522.480517123 741.689132437 583.154560557 724.093873153 665.096293754 724.093873153 c 0
 713.402839117 724.093873153 769.100704143 730.20888552 828.655273438 748.267578125 c 1
 903.919921875 652.788085938 948.828125 532.263671875 948.828125 401.25 c 0
 948.828125 129.943359375 756.248046875 -96.375 500.326171875 -148.469726562 c 1
335.891601562 727.084960938 m 0
 240.107421875 727.084960938 174.219726562 751.500976562 171.455078125 751.500976562 c 0
 170.977539062 751.500976562 170.552734375 751.27734375 170.27734375 750.930664062 c 0
 94.228515625 654.811523438 48.8251953125 533.33203125 48.8251953125 401.25 c 0
 48.8251953125 128.388671875 242.5859375 -99.2138671875 500.026367188 -151.470703125 c 0
 500.133789062 -151.4921875 500.35546875 -151.525390625 500.625976562 -151.470703125 c 0
 758.06640625 -99.2138671875 951.828125 128.388671875 951.828125 401.25 c 0
 951.828125 533.33203125 906.42578125 654.811523438 830.375 750.930664062 c 0
 830.099609375 751.27734375 829.674804688 751.500976562 829.198242188 751.500976562 c 0
 826.43359375 751.500976562 760.544921875 727.084960938 664.76171875 727.084960938 c 0
 568.981445312 727.084960938 503.091796875 751.499023438 500.326171875 751.499023438 c 0
 497.551757812 751.499023438 431.6796875 727.084960938 335.891601562 727.084960938 c 0
500.326171875 -148.469726562 m 1
 244.404296875 -96.375 51.8251953125 129.943359375 51.8251953125 401.25 c 0
 51.8251953125 532.263671875 96.734375 652.788085938 171.997070312 748.267578125 c 1
 194.121661625 741.559163245 254.578454531 724.094496785 336.220980821 724.094496785 c 0
 384.658994327 724.094496785 440.554336446 730.24201854 500.326171875 748.430664062 c 1
 522.480517123 741.689132437 583.154560557 724.093873153 665.096293754 724.093873153 c 0
 713.402839117 724.093873153 769.100704143 730.20888552 828.655273438 748.267578125 c 1
 903.919921875 652.788085938 948.828125 532.263671875 948.828125 401.25 c 0
 948.828125 129.943359375 756.248046875 -96.375 500.326171875 -148.469726562 c 1
87.224609375 543.75 m 1
 913.42578125 543.75 l 1
 925.264648438 498.9453125 931.57421875 451.880859375 931.57421875 403.337890625 c 0
 931.57421875 140.572265625 746.706054688 -78.8720703125 500.325195312 -131.249023438 c 1
 253.944335938 -78.8720703125 69.07421875 140.572265625 69.07421875 403.337890625 c 0
 69.07421875 451.880859375 75.3837890625 498.9453125 87.224609375 543.75 c 1
452.149414062 440.5 m 1
 397.172851562 413.009765625 l 1
 397.172851562 80.5 l 1
 453.208007812 80.5 l 1
 453.208007812 242.26171875 l 2
 453.208007812 258.825195312 457.172851562 271.513671875 465.102539062 280.32421875 c 0
 473.032226562 289.134765625 484.573242188 293.5390625 499.727539062 293.5390625 c 0
 500.616915932 293.582461398 501.496947005 293.604160734 502.367632282 293.604160734 c 0
 515.642493685 293.604160734 526.744884487 288.56005687 535.674804688 278.47265625 c 0
 545.190429688 267.723632812 549.594726562 255.653320312 548.889648438 242.26171875 c 2
 548.889648438 80.5 l 1
 603.338867188 80.5 l 1
 603.338867188 243.318359375 l 2
 603.338867188 270.455078125 595.939453125 294.243164062 581.137695312 314.68359375 c 0
 566.3359375 335.124023438 543.95703125 345.345703125 514.000976562 345.345703125 c 0
 488.2734375 345.345703125 467.655273438 338.825195312 452.149414062 325.78515625 c 1
 452.149414062 440.5 l 1
EndSplineSet
Validated: 37
EndChar

StartChar: k
Encoding: 107 107 37
Width: 1000
HStem: 724.094 2.94989<247.343 408.169 575.718 736.974>
VStem: 48.8252 3<129.166 562.654> 69.0742 329.999<249.614 411.297> 948.828 3<129.166 532.798>
LayerCount: 2
Fore
SplineSet
48.8251953125 401.25 m 0
 48.8251953125 129.412109375 241.413085938 -98.9755859375 500.326171875 -151.53125 c 1
 759.2109375 -98.9814453125 951.828125 129.3828125 951.828125 401.25 c 0
 951.828125 487.20703125 931.908203125 622.604492188 829.73828125 751.734375 c 1
 769.164363443 733.245479429 712.835249481 727.093239724 664.482956401 727.093239724 c 0
 568.281507601 727.093239724 503.656189801 751.446792319 499.999550594 751.446792319 c 0
 497.819672621 751.446792319 430.687599765 727.044388538 335.703516577 727.044388538 c 0
 284.219697464 727.044388538 228.659505523 734.108745886 170.9140625 751.734375 c 1
 143.68359375 717.318359375 48.8251953125 593.043945312 48.8251953125 401.25 c 0
500.326171875 -148.469726562 m 1
 244.404296875 -96.375 51.8251953125 129.943359375 51.8251953125 401.25 c 0
 51.8251953125 532.263671875 96.734375 652.788085938 171.997070312 748.267578125 c 1
 194.121661625 741.559163245 254.578454531 724.094496785 336.220980821 724.094496785 c 0
 384.658994327 724.094496785 440.554336446 730.24201854 500.326171875 748.430664062 c 1
 522.480517123 741.689132437 583.154560557 724.093873153 665.096293754 724.093873153 c 0
 713.402839117 724.093873153 769.100704143 730.20888552 828.655273438 748.267578125 c 1
 903.919921875 652.788085938 948.828125 532.263671875 948.828125 401.25 c 0
 948.828125 129.943359375 756.248046875 -96.375 500.326171875 -148.469726562 c 1
335.891601562 727.084960938 m 0
 240.107421875 727.084960938 174.219726562 751.500976562 171.455078125 751.500976562 c 0
 170.977539062 751.500976562 170.552734375 751.27734375 170.27734375 750.930664062 c 0
 94.228515625 654.811523438 48.8251953125 533.33203125 48.8251953125 401.25 c 0
 48.8251953125 128.388671875 242.5859375 -99.2138671875 500.026367188 -151.470703125 c 0
 500.133789062 -151.4921875 500.35546875 -151.525390625 500.625976562 -151.470703125 c 0
 758.06640625 -99.2138671875 951.828125 128.388671875 951.828125 401.25 c 0
 951.828125 533.33203125 906.42578125 654.811523438 830.375 750.930664062 c 0
 830.099609375 751.27734375 829.674804688 751.500976562 829.198242188 751.500976562 c 0
 826.43359375 751.500976562 760.544921875 727.084960938 664.76171875 727.084960938 c 0
 568.981445312 727.084960938 503.091796875 751.499023438 500.326171875 751.499023438 c 0
 497.551757812 751.499023438 431.6796875 727.084960938 335.891601562 727.084960938 c 0
500.326171875 -148.469726562 m 1
 244.404296875 -96.375 51.8251953125 129.943359375 51.8251953125 401.25 c 0
 51.8251953125 532.263671875 96.734375 652.788085938 171.997070312 748.267578125 c 1
 194.121661625 741.559163245 254.578454531 724.094496785 336.220980821 724.094496785 c 0
 384.658994327 724.094496785 440.554336446 730.24201854 500.326171875 748.430664062 c 1
 522.480517123 741.689132437 583.154560557 724.093873153 665.096293754 724.093873153 c 0
 713.402839117 724.093873153 769.100704143 730.20888552 828.655273438 748.267578125 c 1
 903.919921875 652.788085938 948.828125 532.263671875 948.828125 401.25 c 0
 948.828125 129.943359375 756.248046875 -96.375 500.326171875 -148.469726562 c 1
87.224609375 543.75 m 1
 913.42578125 543.75 l 1
 925.264648438 498.9453125 931.57421875 451.880859375 931.57421875 403.337890625 c 0
 931.57421875 140.572265625 746.706054688 -78.8720703125 500.325195312 -131.249023438 c 1
 253.944335938 -78.8720703125 69.07421875 140.572265625 69.07421875 403.337890625 c 0
 69.07421875 451.880859375 75.3837890625 498.9453125 87.224609375 543.75 c 1
456.165039062 439.84375 m 1
 399.073242188 411.296875 l 1
 399.073242188 79.84375 l 1
 456.165039062 79.84375 l 1
 456.165039062 191.384765625 l 1
 488.411132812 225.216796875 l 1
 562.950195312 79.84375 l 1
 627.442382812 79.84375 l 1
 530.702148438 267.5078125 l 1
 598.897460938 338.345703125 l 1
 527.002929688 338.345703125 l 1
 456.165039062 263.80859375 l 1
 456.165039062 439.84375 l 1
EndSplineSet
Validated: 5
EndChar

StartChar: o
Encoding: 111 111 38
Width: 1000
HStem: 135.945 159.473<461 539.353> 350.156 193.594<435.257 564.704> 724.094 2.94989<247.343 408.169 575.718 736.974>
VStem: 48.8252 3<129.166 562.654> 69.0742 323.538<160.276 427.609> 446.296 107.369<166.605 264.758> 607.349 324.226<160.276 427.609> 948.828 3<129.166 532.798>
LayerCount: 2
Fore
SplineSet
48.8251953125 401.25 m 0
 48.8251953125 129.412109375 241.413085938 -98.9755859375 500.326171875 -151.53125 c 1
 759.2109375 -98.9814453125 951.828125 129.3828125 951.828125 401.25 c 0
 951.828125 487.20703125 931.908203125 622.604492188 829.73828125 751.734375 c 1
 769.164363443 733.245479429 712.835249481 727.093239724 664.482956401 727.093239724 c 0
 568.281507601 727.093239724 503.656189801 751.446792319 499.999550594 751.446792319 c 0
 497.819672621 751.446792319 430.687599765 727.044388538 335.703516577 727.044388538 c 0
 284.219697464 727.044388538 228.659505523 734.108745886 170.9140625 751.734375 c 1
 143.68359375 717.318359375 48.8251953125 593.043945312 48.8251953125 401.25 c 0
500.326171875 -148.469726562 m 1
 244.404296875 -96.375 51.8251953125 129.943359375 51.8251953125 401.25 c 0
 51.8251953125 532.263671875 96.734375 652.788085938 171.997070312 748.267578125 c 1
 194.121661625 741.559163245 254.578454531 724.094496785 336.220980821 724.094496785 c 0
 384.658994327 724.094496785 440.554336446 730.24201854 500.326171875 748.430664062 c 1
 522.480517123 741.689132437 583.154560557 724.093873153 665.096293754 724.093873153 c 0
 713.402839117 724.093873153 769.100704143 730.20888552 828.655273438 748.267578125 c 1
 903.919921875 652.788085938 948.828125 532.263671875 948.828125 401.25 c 0
 948.828125 129.943359375 756.248046875 -96.375 500.326171875 -148.469726562 c 1
335.891601562 727.084960938 m 0
 240.107421875 727.084960938 174.219726562 751.500976562 171.455078125 751.500976562 c 0
 170.977539062 751.500976562 170.552734375 751.27734375 170.27734375 750.930664062 c 0
 94.228515625 654.811523438 48.8251953125 533.33203125 48.8251953125 401.25 c 0
 48.8251953125 128.388671875 242.5859375 -99.2138671875 500.026367188 -151.470703125 c 0
 500.133789062 -151.4921875 500.35546875 -151.525390625 500.625976562 -151.470703125 c 0
 758.06640625 -99.2138671875 951.828125 128.388671875 951.828125 401.25 c 0
 951.828125 533.33203125 906.42578125 654.811523438 830.375 750.930664062 c 0
 830.099609375 751.27734375 829.674804688 751.500976562 829.198242188 751.500976562 c 0
 826.43359375 751.500976562 760.544921875 727.084960938 664.76171875 727.084960938 c 0
 568.981445312 727.084960938 503.091796875 751.499023438 500.326171875 751.499023438 c 0
 497.551757812 751.499023438 431.6796875 727.084960938 335.891601562 727.084960938 c 0
500.326171875 -148.469726562 m 1
 244.404296875 -96.375 51.8251953125 129.943359375 51.8251953125 401.25 c 0
 51.8251953125 532.263671875 96.734375 652.788085938 171.997070312 748.267578125 c 1
 194.121661625 741.559163245 254.578454531 724.094496785 336.220980821 724.094496785 c 0
 384.658994327 724.094496785 440.554336446 730.24201854 500.326171875 748.430664062 c 1
 522.480517123 741.689132437 583.154560557 724.093873153 665.096293754 724.093873153 c 0
 713.402839117 724.093873153 769.100704143 730.20888552 828.655273438 748.267578125 c 1
 903.919921875 652.788085938 948.828125 532.263671875 948.828125 401.25 c 0
 948.828125 129.943359375 756.248046875 -96.375 500.326171875 -148.469726562 c 1
87.224609375 543.75 m 1
 913.42578125 543.75 l 1
 925.264648438 498.9453125 931.57421875 451.880859375 931.57421875 403.337890625 c 0
 931.57421875 140.572265625 746.706054688 -78.8720703125 500.325195312 -131.249023438 c 1
 253.944335938 -78.8720703125 69.07421875 140.572265625 69.07421875 403.337890625 c 0
 69.07421875 451.880859375 75.3837890625 498.9453125 87.224609375 543.75 c 1
499.981445312 350.15625 m 0
 461.034179688 349.103515625 432.260742188 333.838867188 413.665039062 304.365234375 c 0
 399.98046875 281.909179688 392.962890625 252.259765625 392.612304688 215.41796875 c 0
 392.962890625 179.979492188 399.98046875 151.032226562 413.665039062 128.576171875 c 0
 431.91015625 98.0498046875 460.682617188 81.91015625 499.981445312 80.15625 c 0
 539.279296875 81.91015625 568.049804688 98.0498046875 586.295898438 128.576171875 c 0
 599.98046875 151.032226562 606.998046875 179.979492188 607.348632812 215.41796875 c 0
 606.998046875 252.259765625 599.98046875 281.909179688 586.295898438 304.365234375 c 0
 567.69921875 333.838867188 538.928710938 349.103515625 499.981445312 350.15625 c 0
499.454101562 295.41796875 m 0
 520.155273438 295.41796875 535.069335938 285.41796875 544.192382812 265.41796875 c 0
 550.5078125 251.3828125 553.665039062 234.541015625 553.665039062 214.892578125 c 0
 553.665039062 196.295898438 550.5078125 179.98046875 544.192382812 165.9453125 c 0
 534.71875 145.9453125 519.8046875 135.9453125 499.454101562 135.9453125 c 0
 480.857421875 135.9453125 466.296875 145.9453125 455.770507812 165.9453125 c 0
 449.454101562 179.98046875 446.295898438 196.295898438 446.295898438 214.892578125 c 0
 446.295898438 234.541015625 449.454101562 251.3828125 455.770507812 265.41796875 c 0
 464.892578125 285.41796875 479.454101562 295.41796875 499.454101562 295.41796875 c 0
EndSplineSet
Validated: 5
EndChar

StartChar: m
Encoding: 109 109 39
Width: 1000
HStem: 346.83 196.92<322.749 380.72 381.477 497.259 517.76 641.139> 724.094 2.94989<247.343 408.169 575.718 736.974>
VStem: 48.8252 3<129.166 562.654> 69.0742 253.675<249.614 346.83> 381.794 89.6426<80.0508 289.122> 532.093 89.6406<80.0508 281.442> 948.828 3<129.166 532.798>
LayerCount: 2
Fore
SplineSet
48.8251953125 401.25 m 0
 48.8251953125 129.412109375 241.413085938 -98.9755859375 500.326171875 -151.53125 c 1
 759.2109375 -98.9814453125 951.828125 129.3828125 951.828125 401.25 c 0
 951.828125 487.20703125 931.908203125 622.604492188 829.73828125 751.734375 c 1
 769.164363443 733.245479429 712.835249481 727.093239724 664.482956401 727.093239724 c 0
 568.281507601 727.093239724 503.656189801 751.446792319 499.999550594 751.446792319 c 0
 497.819672621 751.446792319 430.687599765 727.044388538 335.703516577 727.044388538 c 0
 284.219697464 727.044388538 228.659505523 734.108745886 170.9140625 751.734375 c 1
 143.68359375 717.318359375 48.8251953125 593.043945312 48.8251953125 401.25 c 0
500.326171875 -148.469726562 m 1
 244.404296875 -96.375 51.8251953125 129.943359375 51.8251953125 401.25 c 0
 51.8251953125 532.263671875 96.734375 652.788085938 171.997070312 748.267578125 c 1
 194.121661625 741.559163245 254.578454531 724.094496785 336.220980821 724.094496785 c 0
 384.658994327 724.094496785 440.554336446 730.24201854 500.326171875 748.430664062 c 1
 522.480517123 741.689132437 583.154560557 724.093873153 665.096293754 724.093873153 c 0
 713.402839117 724.093873153 769.100704143 730.20888552 828.655273438 748.267578125 c 1
 903.919921875 652.788085938 948.828125 532.263671875 948.828125 401.25 c 0
 948.828125 129.943359375 756.248046875 -96.375 500.326171875 -148.469726562 c 1
335.891601562 727.084960938 m 0
 240.107421875 727.084960938 174.219726562 751.500976562 171.455078125 751.500976562 c 0
 170.977539062 751.500976562 170.552734375 751.27734375 170.27734375 750.930664062 c 0
 94.228515625 654.811523438 48.8251953125 533.33203125 48.8251953125 401.25 c 0
 48.8251953125 128.388671875 242.5859375 -99.2138671875 500.026367188 -151.470703125 c 0
 500.133789062 -151.4921875 500.35546875 -151.525390625 500.625976562 -151.470703125 c 0
 758.06640625 -99.2138671875 951.828125 128.388671875 951.828125 401.25 c 0
 951.828125 533.33203125 906.42578125 654.811523438 830.375 750.930664062 c 0
 830.099609375 751.27734375 829.674804688 751.500976562 829.198242188 751.500976562 c 0
 826.43359375 751.500976562 760.544921875 727.084960938 664.76171875 727.084960938 c 0
 568.981445312 727.084960938 503.091796875 751.499023438 500.326171875 751.499023438 c 0
 497.551757812 751.499023438 431.6796875 727.084960938 335.891601562 727.084960938 c 0
500.326171875 -148.469726562 m 1
 244.404296875 -96.375 51.8251953125 129.943359375 51.8251953125 401.25 c 0
 51.8251953125 532.263671875 96.734375 652.788085938 171.997070312 748.267578125 c 1
 194.121661625 741.559163245 254.578454531 724.094496785 336.220980821 724.094496785 c 0
 384.658994327 724.094496785 440.554336446 730.24201854 500.326171875 748.430664062 c 1
 522.480517123 741.689132437 583.154560557 724.093873153 665.096293754 724.093873153 c 0
 713.402839117 724.093873153 769.100704143 730.20888552 828.655273438 748.267578125 c 1
 903.919921875 652.788085938 948.828125 532.263671875 948.828125 401.25 c 0
 948.828125 129.943359375 756.248046875 -96.375 500.326171875 -148.469726562 c 1
87.224609375 543.75 m 1
 913.42578125 543.75 l 1
 925.264648438 498.9453125 931.57421875 451.880859375 931.57421875 403.337890625 c 0
 931.57421875 140.572265625 746.706054688 -78.8720703125 500.325195312 -131.249023438 c 1
 253.944335938 -78.8720703125 69.07421875 140.572265625 69.07421875 403.337890625 c 0
 69.07421875 451.880859375 75.3837890625 498.9453125 87.224609375 543.75 c 1
437.618164062 350.05078125 m 0
 415.7890625 350.05078125 396.823242188 343.609375 380.719726562 330.7265625 c 1
 380.719726562 346.830078125 l 1
 322.749023438 346.830078125 l 1
 322.749023438 80.05078125 l 1
 381.793945312 80.05078125 l 1
 381.793945312 250.208984375 l 2
 382.151367188 262.017578125 386.534179688 272.486328125 394.944335938 281.611328125 c 0
 403.353515625 290.736328125 413.462890625 295.477539062 425.272460938 295.8359375 c 0
 425.737634085 295.84852922 426.200158928 295.854825038 426.660035338 295.854825038 c 0
 439.28963214 295.854825038 449.921734547 291.106407929 458.553710938 281.611328125 c 0
 467.5 271.770507812 471.793945312 261.302734375 471.436523438 250.208984375 c 2
 471.436523438 80.05078125 l 1
 532.092773438 80.05078125 l 1
 532.092773438 250.208984375 l 2
 531.734375 262.017578125 535.58203125 272.575195312 543.633789062 281.87890625 c 0
 551.685546875 291.182617188 562.151367188 295.8359375 575.034179688 295.8359375 c 0
 575.483604518 295.848102931 575.930659716 295.854185627 576.375345203 295.854185627 c 0
 589.031271145 295.854185627 599.767745651 290.927236517 608.583007812 281.07421875 c 0
 617.708007812 270.875 622.091796875 260.586914062 621.733398438 250.208984375 c 2
 621.733398438 80.05078125 l 1
 678.096679688 80.05078125 l 1
 678.096679688 249.13671875 l 2
 677.739257812 275.975585938 667.629882812 299.415039062 647.768554688 319.455078125 c 0
 627.908203125 339.495117188 604.915039062 349.513671875 578.791992188 349.513671875 c 0
 548.374023438 349.513671875 524.576171875 337.34765625 507.399414062 313.013671875 c 1
 490.580078125 337.705078125 467.319335938 350.05078125 437.618164062 350.05078125 c 0
EndSplineSet
Validated: 37
EndChar

StartChar: n
Encoding: 110 110 40
Width: 1000
HStem: 345.465 198.285<394.782 450.831 451.576 577.099> 724.094 2.94989<247.343 408.169 575.718 736.974>
VStem: 48.8252 3<129.166 562.654> 69.0742 325.708<249.614 345.465> 451.909 97.5449<78.6992 280.011> 948.828 3<129.166 532.798>
LayerCount: 2
Fore
SplineSet
48.8251953125 401.25 m 0
 48.8251953125 129.412109375 241.413085938 -98.9755859375 500.326171875 -151.53125 c 1
 759.2109375 -98.9814453125 951.828125 129.3828125 951.828125 401.25 c 0
 951.828125 487.20703125 931.908203125 622.604492188 829.73828125 751.734375 c 1
 769.164363443 733.245479429 712.835249481 727.093239724 664.482956401 727.093239724 c 0
 568.281507601 727.093239724 503.656189801 751.446792319 499.999550594 751.446792319 c 0
 497.819672621 751.446792319 430.687599765 727.044388538 335.703516577 727.044388538 c 0
 284.219697464 727.044388538 228.659505523 734.108745886 170.9140625 751.734375 c 1
 143.68359375 717.318359375 48.8251953125 593.043945312 48.8251953125 401.25 c 0
500.326171875 -148.469726562 m 1
 244.404296875 -96.375 51.8251953125 129.943359375 51.8251953125 401.25 c 0
 51.8251953125 532.263671875 96.734375 652.788085938 171.997070312 748.267578125 c 1
 194.121661625 741.559163245 254.578454531 724.094496785 336.220980821 724.094496785 c 0
 384.658994327 724.094496785 440.554336446 730.24201854 500.326171875 748.430664062 c 1
 522.480517123 741.689132437 583.154560557 724.093873153 665.096293754 724.093873153 c 0
 713.402839117 724.093873153 769.100704143 730.20888552 828.655273438 748.267578125 c 1
 903.919921875 652.788085938 948.828125 532.263671875 948.828125 401.25 c 0
 948.828125 129.943359375 756.248046875 -96.375 500.326171875 -148.469726562 c 1
335.891601562 727.084960938 m 0
 240.107421875 727.084960938 174.219726562 751.500976562 171.455078125 751.500976562 c 0
 170.977539062 751.500976562 170.552734375 751.27734375 170.27734375 750.930664062 c 0
 94.228515625 654.811523438 48.8251953125 533.33203125 48.8251953125 401.25 c 0
 48.8251953125 128.388671875 242.5859375 -99.2138671875 500.026367188 -151.470703125 c 0
 500.133789062 -151.4921875 500.35546875 -151.525390625 500.625976562 -151.470703125 c 0
 758.06640625 -99.2138671875 951.828125 128.388671875 951.828125 401.25 c 0
 951.828125 533.33203125 906.42578125 654.811523438 830.375 750.930664062 c 0
 830.099609375 751.27734375 829.674804688 751.500976562 829.198242188 751.500976562 c 0
 826.43359375 751.500976562 760.544921875 727.084960938 664.76171875 727.084960938 c 0
 568.981445312 727.084960938 503.091796875 751.499023438 500.326171875 751.499023438 c 0
 497.551757812 751.499023438 431.6796875 727.084960938 335.891601562 727.084960938 c 0
500.326171875 -148.469726562 m 1
 244.404296875 -96.375 51.8251953125 129.943359375 51.8251953125 401.25 c 0
 51.8251953125 532.263671875 96.734375 652.788085938 171.997070312 748.267578125 c 1
 194.121661625 741.559163245 254.578454531 724.094496785 336.220980821 724.094496785 c 0
 384.658994327 724.094496785 440.554336446 730.24201854 500.326171875 748.430664062 c 1
 522.480517123 741.689132437 583.154560557 724.093873153 665.096293754 724.093873153 c 0
 713.402839117 724.093873153 769.100704143 730.20888552 828.655273438 748.267578125 c 1
 903.919921875 652.788085938 948.828125 532.263671875 948.828125 401.25 c 0
 948.828125 129.943359375 756.248046875 -96.375 500.326171875 -148.469726562 c 1
87.224609375 543.75 m 1
 913.42578125 543.75 l 1
 925.264648438 498.9453125 931.57421875 451.880859375 931.57421875 403.337890625 c 0
 931.57421875 140.572265625 746.706054688 -78.8720703125 500.325195312 -131.249023438 c 1
 253.944335938 -78.8720703125 69.07421875 140.572265625 69.07421875 403.337890625 c 0
 69.07421875 451.880859375 75.3837890625 498.9453125 87.224609375 543.75 c 1
513.883789062 348.69921875 m 0
 487.65625 348.69921875 466.638671875 342.051757812 450.831054688 328.7578125 c 1
 450.831054688 345.46484375 l 1
 394.782226562 345.46484375 l 1
 394.782226562 78.69921875 l 1
 451.909179688 78.69921875 l 1
 451.909179688 243.609375 l 2
 451.909179688 260.495117188 455.950195312 273.427734375 464.034179688 282.41015625 c 0
 472.118164062 291.392578125 483.883789062 295.884765625 499.333007812 295.884765625 c 0
 500.239654476 295.92900402 501.136771227 295.951123103 502.024358522 295.951123103 c 0
 515.557578614 295.951123103 526.875418427 290.808943239 535.979492188 280.525390625 c 0
 545.6796875 269.567382812 550.172851562 257.26171875 549.454101562 243.609375 c 2
 549.454101562 78.69921875 l 1
 604.961914062 78.69921875 l 1
 604.961914062 244.685546875 l 2
 604.961914062 272.349609375 597.416992188 296.602539062 582.327148438 317.44140625 c 0
 567.237304688 338.280273438 544.422851562 348.69921875 513.883789062 348.69921875 c 0
EndSplineSet
Validated: 37
EndChar

StartChar: t
Encoding: 116 116 41
Width: 1000
HStem: -131.249 674.999<253.944 746.706> 724.094 2.94989<247.343 408.169 575.718 736.974>
VStem: 48.8252 3<129.166 562.654> 948.828 3<129.166 532.798>
LayerCount: 2
Fore
SplineSet
48.8251953125 401.25 m 0
 48.8251953125 129.412109375 241.413085938 -98.9755859375 500.326171875 -151.53125 c 1
 759.2109375 -98.9814453125 951.828125 129.3828125 951.828125 401.25 c 0
 951.828125 487.20703125 931.908203125 622.604492188 829.73828125 751.734375 c 1
 769.164363443 733.245479429 712.835249481 727.093239724 664.482956401 727.093239724 c 0
 568.281507601 727.093239724 503.656189801 751.446792319 499.999550594 751.446792319 c 0
 497.819672621 751.446792319 430.687599765 727.044388538 335.703516577 727.044388538 c 0
 284.219697464 727.044388538 228.659505523 734.108745886 170.9140625 751.734375 c 1
 143.68359375 717.318359375 48.8251953125 593.043945312 48.8251953125 401.25 c 0
500.326171875 -148.469726562 m 1
 244.404296875 -96.375 51.8251953125 129.943359375 51.8251953125 401.25 c 0
 51.8251953125 532.263671875 96.734375 652.788085938 171.997070312 748.267578125 c 1
 194.121661625 741.559163245 254.578454531 724.094496785 336.220980821 724.094496785 c 0
 384.658994327 724.094496785 440.554336446 730.24201854 500.326171875 748.430664062 c 1
 522.480517123 741.689132437 583.154560557 724.093873153 665.096293754 724.093873153 c 0
 713.402839117 724.093873153 769.100704143 730.20888552 828.655273438 748.267578125 c 1
 903.919921875 652.788085938 948.828125 532.263671875 948.828125 401.25 c 0
 948.828125 129.943359375 756.248046875 -96.375 500.326171875 -148.469726562 c 1
335.891601562 727.084960938 m 0
 240.107421875 727.084960938 174.219726562 751.500976562 171.455078125 751.500976562 c 0
 170.977539062 751.500976562 170.552734375 751.27734375 170.27734375 750.930664062 c 0
 94.228515625 654.811523438 48.8251953125 533.33203125 48.8251953125 401.25 c 0
 48.8251953125 128.388671875 242.5859375 -99.2138671875 500.026367188 -151.470703125 c 0
 500.133789062 -151.4921875 500.35546875 -151.525390625 500.625976562 -151.470703125 c 0
 758.06640625 -99.2138671875 951.828125 128.388671875 951.828125 401.25 c 0
 951.828125 533.33203125 906.42578125 654.811523438 830.375 750.930664062 c 0
 830.099609375 751.27734375 829.674804688 751.500976562 829.198242188 751.500976562 c 0
 826.43359375 751.500976562 760.544921875 727.084960938 664.76171875 727.084960938 c 0
 568.981445312 727.084960938 503.091796875 751.499023438 500.326171875 751.499023438 c 0
 497.551757812 751.499023438 431.6796875 727.084960938 335.891601562 727.084960938 c 0
500.326171875 -148.469726562 m 1
 244.404296875 -96.375 51.8251953125 129.943359375 51.8251953125 401.25 c 0
 51.8251953125 532.263671875 96.734375 652.788085938 171.997070312 748.267578125 c 1
 194.121661625 741.559163245 254.578454531 724.094496785 336.220980821 724.094496785 c 0
 384.658994327 724.094496785 440.554336446 730.24201854 500.326171875 748.430664062 c 1
 522.480517123 741.689132437 583.154560557 724.093873153 665.096293754 724.093873153 c 0
 713.402839117 724.093873153 769.100704143 730.20888552 828.655273438 748.267578125 c 1
 903.919921875 652.788085938 948.828125 532.263671875 948.828125 401.25 c 0
 948.828125 129.943359375 756.248046875 -96.375 500.326171875 -148.469726562 c 1
87.224609375 543.75 m 1
 913.42578125 543.75 l 1
 925.264648438 498.9453125 931.57421875 451.880859375 931.57421875 403.337890625 c 0
 931.57421875 140.572265625 746.706054688 -78.8720703125 500.325195312 -131.249023438 c 1
 253.944335938 -78.8720703125 69.07421875 140.572265625 69.07421875 403.337890625 c 0
 69.07421875 451.880859375 75.3837890625 498.9453125 87.224609375 543.75 c 1
507.762695312 443.140625 m 1
 454.256835938 416.646484375 l 1
 454.256835938 343.400390625 l 1
 417.374023438 343.400390625 l 1
 417.374023438 291.97265625 l 1
 454.256835938 291.97265625 l 1
 454.256835938 150.154296875 l 2
 454.256835938 129.721679688 459.624023438 113.443359375 470.360351562 101.322265625 c 0
 481.096679688 89.201171875 493.043945312 83.140625 506.204101562 83.140625 c 0
 517.6328125 83.140625 527.676757812 85.3916015625 536.334960938 89.89453125 c 1
 551.399414062 144.958984375 l 1
 541.356445312 137.685546875 532.004882812 134.221679688 523.346679688 134.568359375 c 0
 512.95703125 135.260742188 507.762695312 142.533203125 507.762695312 156.38671875 c 2
 507.762695312 293.009765625 l 1
 551.918945312 293.009765625 l 1
 551.918945312 343.400390625 l 1
 507.762695312 343.400390625 l 1
 507.762695312 443.140625 l 1
EndSplineSet
Validated: 5
EndChar

